<?xml version="1.0" encoding="us-ascii" standalone="no"?><svg xmlns="http://www.w3.org/2000/svg" xmlns:xlink="http://www.w3.org/1999/xlink" contentStyleType="text/css" height="1441px" preserveAspectRatio="none" style="width:3199px;height:1441px;background:#000000;" version="1.1" viewBox="0 0 3199 1441" width="3199px" zoomAndPan="magnify"><defs/><g><!--cluster rockpaperscissor--><g id="cluster_rockpaperscissor"><path d="M8.5,6 L148.5,6 A3.75,3.75 0 0 1 151,8.5 L158,28.2969 L3189.5,28.2969 A2.5,2.5 0 0 1 3192,30.7969 L3192,1431.5 A2.5,2.5 0 0 1 3189.5,1434 L8.5,1434 A2.5,2.5 0 0 1 6,1431.5 L6,8.5 A2.5,2.5 0 0 1 8.5,6 " fill="none" style="stroke:#FFFFFF;stroke-width:1.5;"/><line style="stroke:#FFFFFF;stroke-width:1.5;" x1="6" x2="158" y1="28.2969" y2="28.2969"/><text fill="#FFFFFF" font-family="sans-serif" font-size="14" font-weight="bold" lengthAdjust="spacing" textLength="139" x="10" y="20.9951">rockpaperscissor</text></g><!--cluster model--><g id="cluster_model"><path d="M390.5,1056 L440.5,1056 A3.75,3.75 0 0 1 443,1058.5 L450,1078.2969 L1757.5,1078.2969 A2.5,2.5 0 0 1 1760,1080.7969 L1760,1407.5 A2.5,2.5 0 0 1 1757.5,1410 L390.5,1410 A2.5,2.5 0 0 1 388,1407.5 L388,1058.5 A2.5,2.5 0 0 1 390.5,1056 " fill="none" style="stroke:#FFFFFF;stroke-width:1.5;"/><line style="stroke:#FFFFFF;stroke-width:1.5;" x1="388" x2="450" y1="1078.2969" y2="1078.2969"/><text fill="#FFFFFF" font-family="sans-serif" font-size="14" font-weight="bold" lengthAdjust="spacing" textLength="49" x="392" y="1070.9951">model</text></g><!--cluster controller--><g id="cluster_controller"><path d="M32.5,237 L113.5,237 A3.75,3.75 0 0 1 116,239.5 L123,259.2969 L1744.5,259.2969 A2.5,2.5 0 0 1 1747,261.7969 L1747,1029.5 A2.5,2.5 0 0 1 1744.5,1032 L32.5,1032 A2.5,2.5 0 0 1 30,1029.5 L30,239.5 A2.5,2.5 0 0 1 32.5,237 " fill="none" style="stroke:#FFFFFF;stroke-width:1.5;"/><line style="stroke:#FFFFFF;stroke-width:1.5;" x1="30" x2="123" y1="259.2969" y2="259.2969"/><text fill="#FFFFFF" font-family="sans-serif" font-size="14" font-weight="bold" lengthAdjust="spacing" textLength="80" x="34" y="251.9951">controller</text></g><!--cluster player--><g id="cluster_player"><path d="M562.5,508 L613.5,508 A3.75,3.75 0 0 1 616,510.5 L623,530.2969 L1427.5,530.2969 A2.5,2.5 0 0 1 1430,532.7969 L1430,1005.5 A2.5,2.5 0 0 1 1427.5,1008 L562.5,1008 A2.5,2.5 0 0 1 560,1005.5 L560,510.5 A2.5,2.5 0 0 1 562.5,508 " fill="none" style="stroke:#FFFFFF;stroke-width:1.5;"/><line style="stroke:#FFFFFF;stroke-width:1.5;" x1="560" x2="623" y1="530.2969" y2="530.2969"/><text fill="#FFFFFF" font-family="sans-serif" font-size="14" font-weight="bold" lengthAdjust="spacing" textLength="50" x="564" y="522.9951">player</text></g><!--cluster utils--><g id="cluster_utils"><path d="M2065.5,49 L2103.5,49 A3.75,3.75 0 0 1 2106,51.5 L2113,71.2969 L2657.5,71.2969 A2.5,2.5 0 0 1 2660,73.7969 L2660,210.5 A2.5,2.5 0 0 1 2657.5,213 L2065.5,213 A2.5,2.5 0 0 1 2063,210.5 L2063,51.5 A2.5,2.5 0 0 1 2065.5,49 " fill="none" style="stroke:#FFFFFF;stroke-width:1.5;"/><line style="stroke:#FFFFFF;stroke-width:1.5;" x1="2063" x2="2113" y1="71.2969" y2="71.2969"/><text fill="#FFFFFF" font-family="sans-serif" font-size="14" font-weight="bold" lengthAdjust="spacing" textLength="37" x="2067" y="63.9951">utils</text></g><!--cluster view--><g id="cluster_view"><path d="M1786.5,565 L1823.5,565 A3.75,3.75 0 0 1 1826,567.5 L1833,587.2969 L3165.5,587.2969 A2.5,2.5 0 0 1 3168,589.7969 L3168,1217.5 A2.5,2.5 0 0 1 3165.5,1220 L1786.5,1220 A2.5,2.5 0 0 1 1784,1217.5 L1784,567.5 A2.5,2.5 0 0 1 1786.5,565 " fill="none" style="stroke:#FFFFFF;stroke-width:1.5;"/><line style="stroke:#FFFFFF;stroke-width:1.5;" x1="1784" x2="1833" y1="587.2969" y2="587.2969"/><text fill="#FFFFFF" font-family="sans-serif" font-size="14" font-weight="bold" lengthAdjust="spacing" textLength="36" x="1788" y="579.9951">view</text></g><!--cluster player--><g id="cluster_player"><path d="M1810.5,787 L1861.5,787 A3.75,3.75 0 0 1 1864,789.5 L1871,809.2969 L2741.5,809.2969 A2.5,2.5 0 0 1 2744,811.7969 L2744,1193.5 A2.5,2.5 0 0 1 2741.5,1196 L1810.5,1196 A2.5,2.5 0 0 1 1808,1193.5 L1808,789.5 A2.5,2.5 0 0 1 1810.5,787 " fill="none" style="stroke:#FFFFFF;stroke-width:1.5;"/><line style="stroke:#FFFFFF;stroke-width:1.5;" x1="1808" x2="1871" y1="809.2969" y2="809.2969"/><text fill="#FFFFFF" font-family="sans-serif" font-size="14" font-weight="bold" lengthAdjust="spacing" textLength="50" x="1812" y="801.9951">player</text></g><!--class RPSApp--><g id="elem_RPSApp"><rect codeLine="3" fill="#0E0E0E" height="113.1875" id="RPSApp" rx="2.5" ry="2.5" style="stroke:#E7E7E7;stroke-width:0.5;" width="286" x="1250" y="84"/><ellipse cx="1359.75" cy="100" fill="#3D3D3D" rx="11" ry="11" style="stroke:#E7E7E7;stroke-width:1.0;"/><path d="M1362.0938,95.6719 C1361.1563,95.2344 1360.5625,95.0938 1359.6875,95.0938 C1357.0625,95.0938 1355.0625,97.1719 1355.0625,99.8906 L1355.0625,101.0156 C1355.0625,103.5938 1357.1719,105.4844 1360.0625,105.4844 C1361.2813,105.4844 1362.4375,105.1875 1363.1875,104.6406 C1363.7656,104.2344 1364.0938,103.7813 1364.0938,103.3906 C1364.0938,102.9375 1363.7031,102.5469 1363.2344,102.5469 C1363.0156,102.5469 1362.8125,102.625 1362.625,102.8125 C1362.1719,103.2969 1362.1719,103.2969 1361.9844,103.3906 C1361.5625,103.6563 1360.875,103.7813 1360.1094,103.7813 C1358.0625,103.7813 1356.7656,102.6875 1356.7656,100.9844 L1356.7656,99.8906 C1356.7656,98.1094 1358.0156,96.7969 1359.75,96.7969 C1360.3281,96.7969 1360.9375,96.9531 1361.4063,97.2031 C1361.8906,97.4844 1362.0625,97.7031 1362.1563,98.1094 C1362.2188,98.5156 1362.25,98.6406 1362.3906,98.7656 C1362.5313,98.9063 1362.7656,99.0156 1362.9844,99.0156 C1363.25,99.0156 1363.5156,98.875 1363.6875,98.6563 C1363.7969,98.5 1363.8281,98.3125 1363.8281,97.8906 L1363.8281,96.4688 C1363.8281,96.0313 1363.8125,95.9063 1363.7188,95.75 C1363.5625,95.4844 1363.2813,95.3438 1362.9844,95.3438 C1362.6875,95.3438 1362.4844,95.4375 1362.2656,95.75 L1362.0938,95.6719 Z " fill="#FFFFFF"/><text fill="#FFFFFF" font-family="sans-serif" font-size="14" lengthAdjust="spacing" textLength="58" x="1380.25" y="104.8467">RPSApp</text><line style="stroke:#E7E7E7;stroke-width:0.5;" x1="1251" x2="1535" y1="116" y2="116"/><rect fill="none" height="6" style="stroke:#A6A6A6;stroke-width:1.0;" width="6" x="1258" y="126.6484"/><text fill="#FFFFFF" font-family="sans-serif" font-size="14" lengthAdjust="spacing" textLength="114" x="1270" y="132.9951">RPSGame game</text><rect fill="none" height="6" style="stroke:#A6A6A6;stroke-width:1.0;" width="6" x="1258" y="142.9453"/><text fill="#FFFFFF" font-family="sans-serif" font-size="14" lengthAdjust="spacing" textLength="260" x="1270" y="149.292">RPSGameController gameController</text><line style="stroke:#E7E7E7;stroke-width:0.5;" x1="1251" x2="1535" y1="156.5938" y2="156.5938"/><ellipse cx="1261" cy="170.2422" fill="#595959" rx="3" ry="3" style="stroke:#ABABAB;stroke-width:1.0;"/><text fill="#FFFFFF" font-family="sans-serif" font-size="14" lengthAdjust="spacing" textLength="68" x="1270" y="173.5889">RPSApp()</text><ellipse cx="1261" cy="186.5391" fill="#595959" rx="3" ry="3" style="stroke:#ABABAB;stroke-width:1.0;"/><text fill="#FFFFFF" font-family="sans-serif" font-size="14" lengthAdjust="spacing" textLength="144" x="1270" y="189.8857">void executeGame()</text></g><!--class Player--><g id="elem_Player"><rect codeLine="11" fill="#0E0E0E" height="113.1875" id="Player" rx="2.5" ry="2.5" style="stroke:#E7E7E7;stroke-width:0.5;" width="365" x="611.5" y="1264.5"/><ellipse cx="767.75" cy="1280.5" fill="#3D3D3D" rx="11" ry="11" style="stroke:#E7E7E7;stroke-width:1.0;"/><path d="M770.0938,1276.1719 C769.1563,1275.7344 768.5625,1275.5938 767.6875,1275.5938 C765.0625,1275.5938 763.0625,1277.6719 763.0625,1280.3906 L763.0625,1281.5156 C763.0625,1284.0938 765.1719,1285.9844 768.0625,1285.9844 C769.2813,1285.9844 770.4375,1285.6875 771.1875,1285.1406 C771.7656,1284.7344 772.0938,1284.2813 772.0938,1283.8906 C772.0938,1283.4375 771.7031,1283.0469 771.2344,1283.0469 C771.0156,1283.0469 770.8125,1283.125 770.625,1283.3125 C770.1719,1283.7969 770.1719,1283.7969 769.9844,1283.8906 C769.5625,1284.1563 768.875,1284.2813 768.1094,1284.2813 C766.0625,1284.2813 764.7656,1283.1875 764.7656,1281.4844 L764.7656,1280.3906 C764.7656,1278.6094 766.0156,1277.2969 767.75,1277.2969 C768.3281,1277.2969 768.9375,1277.4531 769.4063,1277.7031 C769.8906,1277.9844 770.0625,1278.2031 770.1563,1278.6094 C770.2188,1279.0156 770.25,1279.1406 770.3906,1279.2656 C770.5313,1279.4063 770.7656,1279.5156 770.9844,1279.5156 C771.25,1279.5156 771.5156,1279.375 771.6875,1279.1563 C771.7969,1279 771.8281,1278.8125 771.8281,1278.3906 L771.8281,1276.9688 C771.8281,1276.5313 771.8125,1276.4063 771.7188,1276.25 C771.5625,1275.9844 771.2813,1275.8438 770.9844,1275.8438 C770.6875,1275.8438 770.4844,1275.9375 770.2656,1276.25 L770.0938,1276.1719 Z " fill="#FFFFFF"/><text fill="#FFFFFF" font-family="sans-serif" font-size="14" lengthAdjust="spacing" textLength="44" x="788.25" y="1285.3467">Player</text><line style="stroke:#E7E7E7;stroke-width:0.5;" x1="612.5" x2="975.5" y1="1296.5" y2="1296.5"/><rect fill="none" height="6" style="stroke:#A6A6A6;stroke-width:1.0;" width="6" x="619.5" y="1307.1484"/><text fill="#FFFFFF" font-family="sans-serif" font-size="14" lengthAdjust="spacing" textLength="88" x="631.5" y="1313.4951">String name</text><rect fill="none" height="6" style="stroke:#A6A6A6;stroke-width:1.0;" width="6" x="619.5" y="1323.4453"/><text fill="#FFFFFF" font-family="sans-serif" font-size="14" lengthAdjust="spacing" textLength="63" x="631.5" y="1329.792">int score</text><rect fill="none" height="6" style="stroke:#A6A6A6;stroke-width:1.0;" width="6" x="619.5" y="1339.7422"/><text fill="#FFFFFF" font-family="sans-serif" font-size="14" lengthAdjust="spacing" textLength="118" x="631.5" y="1346.0889">PlayerType type</text><line style="stroke:#E7E7E7;stroke-width:0.5;" x1="612.5" x2="975.5" y1="1353.3906" y2="1353.3906"/><ellipse cx="622.5" cy="1367.0391" fill="#595959" rx="3" ry="3" style="stroke:#ABABAB;stroke-width:1.0;"/><text fill="#FFFFFF" font-family="sans-serif" font-size="14" lengthAdjust="spacing" textLength="339" x="631.5" y="1370.3857">Player(String name, int score, PlayerType type)</text></g><!--class Round--><g id="elem_Round"><rect codeLine="18" fill="#0E0E0E" height="96.8906" id="Round" rx="2.5" ry="2.5" style="stroke:#E7E7E7;stroke-width:0.5;" width="172" x="404" y="1272.5"/><ellipse cx="463.25" cy="1288.5" fill="#3D3D3D" rx="11" ry="11" style="stroke:#E7E7E7;stroke-width:1.0;"/><path d="M465.5938,1284.1719 C464.6563,1283.7344 464.0625,1283.5938 463.1875,1283.5938 C460.5625,1283.5938 458.5625,1285.6719 458.5625,1288.3906 L458.5625,1289.5156 C458.5625,1292.0938 460.6719,1293.9844 463.5625,1293.9844 C464.7813,1293.9844 465.9375,1293.6875 466.6875,1293.1406 C467.2656,1292.7344 467.5938,1292.2813 467.5938,1291.8906 C467.5938,1291.4375 467.2031,1291.0469 466.7344,1291.0469 C466.5156,1291.0469 466.3125,1291.125 466.125,1291.3125 C465.6719,1291.7969 465.6719,1291.7969 465.4844,1291.8906 C465.0625,1292.1563 464.375,1292.2813 463.6094,1292.2813 C461.5625,1292.2813 460.2656,1291.1875 460.2656,1289.4844 L460.2656,1288.3906 C460.2656,1286.6094 461.5156,1285.2969 463.25,1285.2969 C463.8281,1285.2969 464.4375,1285.4531 464.9063,1285.7031 C465.3906,1285.9844 465.5625,1286.2031 465.6563,1286.6094 C465.7188,1287.0156 465.75,1287.1406 465.8906,1287.2656 C466.0313,1287.4063 466.2656,1287.5156 466.4844,1287.5156 C466.75,1287.5156 467.0156,1287.375 467.1875,1287.1563 C467.2969,1287 467.3281,1286.8125 467.3281,1286.3906 L467.3281,1284.9688 C467.3281,1284.5313 467.3125,1284.4063 467.2188,1284.25 C467.0625,1283.9844 466.7813,1283.8438 466.4844,1283.8438 C466.1875,1283.8438 465.9844,1283.9375 465.7656,1284.25 L465.5938,1284.1719 Z " fill="#FFFFFF"/><text fill="#FFFFFF" font-family="sans-serif" font-size="14" lengthAdjust="spacing" textLength="45" x="483.75" y="1293.3467">Round</text><line style="stroke:#E7E7E7;stroke-width:0.5;" x1="405" x2="575" y1="1304.5" y2="1304.5"/><rect fill="none" height="6" style="stroke:#A6A6A6;stroke-width:1.0;" width="6" x="412" y="1315.1484"/><text fill="#FFFFFF" font-family="sans-serif" font-size="14" lengthAdjust="spacing" textLength="103" x="424" y="1321.4951">Player playerA</text><rect fill="none" height="6" style="stroke:#A6A6A6;stroke-width:1.0;" width="6" x="412" y="1331.4453"/><text fill="#FFFFFF" font-family="sans-serif" font-size="14" lengthAdjust="spacing" textLength="103" x="424" y="1337.792">Player playerB</text><rect fill="none" height="6" style="stroke:#A6A6A6;stroke-width:1.0;" width="6" x="412" y="1347.7422"/><text fill="#FFFFFF" font-family="sans-serif" font-size="14" lengthAdjust="spacing" textLength="146" x="424" y="1354.0889">final int totalRounds</text><line style="stroke:#E7E7E7;stroke-width:0.5;" x1="405" x2="575" y1="1361.3906" y2="1361.3906"/></g><!--class RPSGame--><g id="elem_RPSGame"><rect codeLine="23" fill="#0E0E0E" height="96.8906" id="RPSGame" rx="2.5" ry="2.5" style="stroke:#E7E7E7;stroke-width:0.5;" width="155" x="757.5" y="1091"/><ellipse cx="796.35" cy="1107" fill="#3D3D3D" rx="11" ry="11" style="stroke:#E7E7E7;stroke-width:1.0;"/><path d="M798.6938,1102.6719 C797.7563,1102.2344 797.1625,1102.0938 796.2875,1102.0938 C793.6625,1102.0938 791.6625,1104.1719 791.6625,1106.8906 L791.6625,1108.0156 C791.6625,1110.5938 793.7719,1112.4844 796.6625,1112.4844 C797.8813,1112.4844 799.0375,1112.1875 799.7875,1111.6406 C800.3656,1111.2344 800.6938,1110.7813 800.6938,1110.3906 C800.6938,1109.9375 800.3031,1109.5469 799.8344,1109.5469 C799.6156,1109.5469 799.4125,1109.625 799.225,1109.8125 C798.7719,1110.2969 798.7719,1110.2969 798.5844,1110.3906 C798.1625,1110.6563 797.475,1110.7813 796.7094,1110.7813 C794.6625,1110.7813 793.3656,1109.6875 793.3656,1107.9844 L793.3656,1106.8906 C793.3656,1105.1094 794.6156,1103.7969 796.35,1103.7969 C796.9281,1103.7969 797.5375,1103.9531 798.0063,1104.2031 C798.4906,1104.4844 798.6625,1104.7031 798.7563,1105.1094 C798.8188,1105.5156 798.85,1105.6406 798.9906,1105.7656 C799.1313,1105.9063 799.3656,1106.0156 799.5844,1106.0156 C799.85,1106.0156 800.1156,1105.875 800.2875,1105.6563 C800.3969,1105.5 800.4281,1105.3125 800.4281,1104.8906 L800.4281,1103.4688 C800.4281,1103.0313 800.4125,1102.9063 800.3188,1102.75 C800.1625,1102.4844 799.8813,1102.3438 799.5844,1102.3438 C799.2875,1102.3438 799.0844,1102.4375 798.8656,1102.75 L798.6938,1102.6719 Z " fill="#FFFFFF"/><text fill="#FFFFFF" font-family="sans-serif" font-size="14" lengthAdjust="spacing" textLength="70" x="815.65" y="1111.8467">RPSGame</text><line style="stroke:#E7E7E7;stroke-width:0.5;" x1="758.5" x2="911.5" y1="1123" y2="1123"/><rect fill="none" height="6" style="stroke:#A6A6A6;stroke-width:1.0;" width="6" x="765.5" y="1133.6484"/><text fill="#FFFFFF" font-family="sans-serif" font-size="14" lengthAdjust="spacing" textLength="90" x="777.5" y="1139.9951">Round round</text><ellipse cx="768.5" cy="1152.9453" fill="none" rx="3" ry="3" style="stroke:#ABABAB;stroke-width:1.0;"/><text fill="#FFFFFF" font-family="sans-serif" font-size="14" lengthAdjust="spacing" textLength="105" x="777.5" y="1156.292">void newGame</text><line style="stroke:#E7E7E7;stroke-width:0.5;" x1="758.5" x2="911.5" y1="1163.5938" y2="1163.5938"/><ellipse cx="768.5" cy="1177.2422" fill="#595959" rx="3" ry="3" style="stroke:#ABABAB;stroke-width:1.0;"/><text fill="#FFFFFF" font-family="sans-serif" font-size="14" lengthAdjust="spacing" textLength="129" x="777.5" y="1180.5889">Round getRound()</text></g><!--class Statistics--><g id="elem_Statistics"><rect codeLine="28" fill="#0E0E0E" height="80.5938" id="Statistics" rx="2.5" ry="2.5" style="stroke:#E7E7E7;stroke-width:0.5;" width="277" x="1345.5" y="1099"/><ellipse cx="1445.75" cy="1115" fill="#3D3D3D" rx="11" ry="11" style="stroke:#E7E7E7;stroke-width:1.0;"/><path d="M1448.0938,1110.6719 C1447.1563,1110.2344 1446.5625,1110.0938 1445.6875,1110.0938 C1443.0625,1110.0938 1441.0625,1112.1719 1441.0625,1114.8906 L1441.0625,1116.0156 C1441.0625,1118.5938 1443.1719,1120.4844 1446.0625,1120.4844 C1447.2813,1120.4844 1448.4375,1120.1875 1449.1875,1119.6406 C1449.7656,1119.2344 1450.0938,1118.7813 1450.0938,1118.3906 C1450.0938,1117.9375 1449.7031,1117.5469 1449.2344,1117.5469 C1449.0156,1117.5469 1448.8125,1117.625 1448.625,1117.8125 C1448.1719,1118.2969 1448.1719,1118.2969 1447.9844,1118.3906 C1447.5625,1118.6563 1446.875,1118.7813 1446.1094,1118.7813 C1444.0625,1118.7813 1442.7656,1117.6875 1442.7656,1115.9844 L1442.7656,1114.8906 C1442.7656,1113.1094 1444.0156,1111.7969 1445.75,1111.7969 C1446.3281,1111.7969 1446.9375,1111.9531 1447.4063,1112.2031 C1447.8906,1112.4844 1448.0625,1112.7031 1448.1563,1113.1094 C1448.2188,1113.5156 1448.25,1113.6406 1448.3906,1113.7656 C1448.5313,1113.9063 1448.7656,1114.0156 1448.9844,1114.0156 C1449.25,1114.0156 1449.5156,1113.875 1449.6875,1113.6563 C1449.7969,1113.5 1449.8281,1113.3125 1449.8281,1112.8906 L1449.8281,1111.4688 C1449.8281,1111.0313 1449.8125,1110.9063 1449.7188,1110.75 C1449.5625,1110.4844 1449.2813,1110.3438 1448.9844,1110.3438 C1448.6875,1110.3438 1448.4844,1110.4375 1448.2656,1110.75 L1448.0938,1110.6719 Z " fill="#FFFFFF"/><text fill="#FFFFFF" font-family="sans-serif" font-size="14" lengthAdjust="spacing" textLength="68" x="1466.25" y="1119.8467">Statistics</text><line style="stroke:#E7E7E7;stroke-width:0.5;" x1="1346.5" x2="1621.5" y1="1131" y2="1131"/><rect fill="none" height="6" style="stroke:#A6A6A6;stroke-width:1.0;" width="6" x="1353.5" y="1141.6484"/><text fill="#FFFFFF" font-family="sans-serif" font-size="14" lengthAdjust="spacing" textLength="251" x="1365.5" y="1147.9951">ArrayList&lt;StatisticItem&gt; statistics</text><line style="stroke:#E7E7E7;stroke-width:0.5;" x1="1346.5" x2="1621.5" y1="1155.2969" y2="1155.2969"/><ellipse cx="1356.5" cy="1168.9453" fill="#595959" rx="3" ry="3" style="stroke:#ABABAB;stroke-width:1.0;"/><text fill="#FFFFFF" font-family="sans-serif" font-size="14" lengthAdjust="spacing" textLength="71" x="1365.5" y="1172.292">Statistic()</text></g><!--class StatisticItem--><g id="elem_StatisticItem"><rect codeLine="32" fill="#0E0E0E" height="145.7813" id="StatisticItem" rx="2.5" ry="2.5" style="stroke:#E7E7E7;stroke-width:0.5;" width="732" x="1012" y="1248"/><ellipse cx="1326.25" cy="1264" fill="#3D3D3D" rx="11" ry="11" style="stroke:#E7E7E7;stroke-width:1.0;"/><path d="M1328.5938,1259.6719 C1327.6563,1259.2344 1327.0625,1259.0938 1326.1875,1259.0938 C1323.5625,1259.0938 1321.5625,1261.1719 1321.5625,1263.8906 L1321.5625,1265.0156 C1321.5625,1267.5938 1323.6719,1269.4844 1326.5625,1269.4844 C1327.7813,1269.4844 1328.9375,1269.1875 1329.6875,1268.6406 C1330.2656,1268.2344 1330.5938,1267.7813 1330.5938,1267.3906 C1330.5938,1266.9375 1330.2031,1266.5469 1329.7344,1266.5469 C1329.5156,1266.5469 1329.3125,1266.625 1329.125,1266.8125 C1328.6719,1267.2969 1328.6719,1267.2969 1328.4844,1267.3906 C1328.0625,1267.6563 1327.375,1267.7813 1326.6094,1267.7813 C1324.5625,1267.7813 1323.2656,1266.6875 1323.2656,1264.9844 L1323.2656,1263.8906 C1323.2656,1262.1094 1324.5156,1260.7969 1326.25,1260.7969 C1326.8281,1260.7969 1327.4375,1260.9531 1327.9063,1261.2031 C1328.3906,1261.4844 1328.5625,1261.7031 1328.6563,1262.1094 C1328.7188,1262.5156 1328.75,1262.6406 1328.8906,1262.7656 C1329.0313,1262.9063 1329.2656,1263.0156 1329.4844,1263.0156 C1329.75,1263.0156 1330.0156,1262.875 1330.1875,1262.6563 C1330.2969,1262.5 1330.3281,1262.3125 1330.3281,1261.8906 L1330.3281,1260.4688 C1330.3281,1260.0313 1330.3125,1259.9063 1330.2188,1259.75 C1330.0625,1259.4844 1329.7813,1259.3438 1329.4844,1259.3438 C1329.1875,1259.3438 1328.9844,1259.4375 1328.7656,1259.75 L1328.5938,1259.6719 Z " fill="#FFFFFF"/><text fill="#FFFFFF" font-family="sans-serif" font-size="14" lengthAdjust="spacing" textLength="95" x="1346.75" y="1268.8467">StatisticItem</text><line style="stroke:#E7E7E7;stroke-width:0.5;" x1="1013" x2="1743" y1="1280" y2="1280"/><rect fill="none" height="6" style="stroke:#A6A6A6;stroke-width:1.0;" width="6" x="1020" y="1290.6484"/><text fill="#FFFFFF" font-family="sans-serif" font-size="14" lengthAdjust="spacing" textLength="65" x="1032" y="1296.9951">int round</text><rect fill="none" height="6" style="stroke:#A6A6A6;stroke-width:1.0;" width="6" x="1020" y="1306.9453"/><text fill="#FFFFFF" font-family="sans-serif" font-size="14" lengthAdjust="spacing" textLength="103" x="1032" y="1313.292">String playerA</text><rect fill="none" height="6" style="stroke:#A6A6A6;stroke-width:1.0;" width="6" x="1020" y="1323.2422"/><text fill="#FFFFFF" font-family="sans-serif" font-size="14" lengthAdjust="spacing" textLength="149" x="1032" y="1329.5889">Shape playerAShape</text><rect fill="none" height="6" style="stroke:#A6A6A6;stroke-width:1.0;" width="6" x="1020" y="1339.5391"/><text fill="#FFFFFF" font-family="sans-serif" font-size="14" lengthAdjust="spacing" textLength="103" x="1032" y="1345.8857">String playerB</text><rect fill="none" height="6" style="stroke:#A6A6A6;stroke-width:1.0;" width="6" x="1020" y="1355.8359"/><text fill="#FFFFFF" font-family="sans-serif" font-size="14" lengthAdjust="spacing" textLength="149" x="1032" y="1362.1826">Shape playerBShape</text><line style="stroke:#E7E7E7;stroke-width:0.5;" x1="1013" x2="1743" y1="1369.4844" y2="1369.4844"/><ellipse cx="1023" cy="1383.1328" fill="#595959" rx="3" ry="3" style="stroke:#ABABAB;stroke-width:1.0;"/><text fill="#FFFFFF" font-family="sans-serif" font-size="14" lengthAdjust="spacing" textLength="706" x="1032" y="1386.4795">StatisticItem(int round, String playerA, Shape playerAShape, String playerB, Shape playerBShape)</text></g><!--class RoundController--><g id="elem_RoundController"><rect codeLine="88" fill="#0E0E0E" height="194.6719" id="RoundController" rx="2.5" ry="2.5" style="stroke:#E7E7E7;stroke-width:0.5;" width="497" x="46.5" y="551"/><ellipse cx="231.75" cy="567" fill="#3D3D3D" rx="11" ry="11" style="stroke:#E7E7E7;stroke-width:1.0;"/><path d="M234.0938,562.6719 C233.1563,562.2344 232.5625,562.0938 231.6875,562.0938 C229.0625,562.0938 227.0625,564.1719 227.0625,566.8906 L227.0625,568.0156 C227.0625,570.5938 229.1719,572.4844 232.0625,572.4844 C233.2813,572.4844 234.4375,572.1875 235.1875,571.6406 C235.7656,571.2344 236.0938,570.7813 236.0938,570.3906 C236.0938,569.9375 235.7031,569.5469 235.2344,569.5469 C235.0156,569.5469 234.8125,569.625 234.625,569.8125 C234.1719,570.2969 234.1719,570.2969 233.9844,570.3906 C233.5625,570.6563 232.875,570.7813 232.1094,570.7813 C230.0625,570.7813 228.7656,569.6875 228.7656,567.9844 L228.7656,566.8906 C228.7656,565.1094 230.0156,563.7969 231.75,563.7969 C232.3281,563.7969 232.9375,563.9531 233.4063,564.2031 C233.8906,564.4844 234.0625,564.7031 234.1563,565.1094 C234.2188,565.5156 234.25,565.6406 234.3906,565.7656 C234.5313,565.9063 234.7656,566.0156 234.9844,566.0156 C235.25,566.0156 235.5156,565.875 235.6875,565.6563 C235.7969,565.5 235.8281,565.3125 235.8281,564.8906 L235.8281,563.4688 C235.8281,563.0313 235.8125,562.9063 235.7188,562.75 C235.5625,562.4844 235.2813,562.3438 234.9844,562.3438 C234.6875,562.3438 234.4844,562.4375 234.2656,562.75 L234.0938,562.6719 Z " fill="#FFFFFF"/><text fill="#FFFFFF" font-family="sans-serif" font-size="14" lengthAdjust="spacing" textLength="118" x="252.25" y="571.8467">RoundController</text><line style="stroke:#E7E7E7;stroke-width:0.5;" x1="47.5" x2="542.5" y1="583" y2="583"/><rect fill="none" height="6" style="stroke:#A6A6A6;stroke-width:1.0;" width="6" x="54.5" y="593.6484"/><text fill="#FFFFFF" font-family="sans-serif" font-size="14" lengthAdjust="spacing" textLength="158" x="66.5" y="599.9951">RoundView roundView</text><rect fill="none" height="6" style="stroke:#A6A6A6;stroke-width:1.0;" width="6" x="54.5" y="609.9453"/><text fill="#FFFFFF" font-family="sans-serif" font-size="14" lengthAdjust="spacing" textLength="90" x="66.5" y="616.292">Round round</text><rect fill="none" height="6" style="stroke:#A6A6A6;stroke-width:1.0;" width="6" x="54.5" y="626.2422"/><text fill="#FFFFFF" font-family="sans-serif" font-size="14" lengthAdjust="spacing" textLength="168" x="66.5" y="632.5889">static int roundCounter</text><rect fill="none" height="6" style="stroke:#A6A6A6;stroke-width:1.0;" width="6" x="54.5" y="642.5391"/><text fill="#FFFFFF" font-family="sans-serif" font-size="14" lengthAdjust="spacing" textLength="249" x="66.5" y="648.8857">PlayerController[] playerController</text><rect fill="none" height="6" style="stroke:#A6A6A6;stroke-width:1.0;" width="6" x="54.5" y="658.8359"/><text fill="#FFFFFF" font-family="sans-serif" font-size="14" lengthAdjust="spacing" textLength="270" x="66.5" y="665.1826">StatisticController statisticController</text><line style="stroke:#E7E7E7;stroke-width:0.5;" x1="47.5" x2="542.5" y1="672.4844" y2="672.4844"/><ellipse cx="57.5" cy="686.1328" fill="#595959" rx="3" ry="3" style="stroke:#ABABAB;stroke-width:1.0;"/><text fill="#FFFFFF" font-family="sans-serif" font-size="14" lengthAdjust="spacing" textLength="128" x="66.5" y="689.4795">RoundController()</text><ellipse cx="57.5" cy="702.4297" fill="#595959" rx="3" ry="3" style="stroke:#ABABAB;stroke-width:1.0;"/><text fill="#FFFFFF" font-family="sans-serif" font-size="14" lengthAdjust="spacing" textLength="400" x="66.5" y="705.7764">void determinateWinner(Player playerA, Player playerB)</text><ellipse cx="57.5" cy="718.7266" fill="#595959" rx="3" ry="3" style="stroke:#ABABAB;stroke-width:1.0;"/><text fill="#FFFFFF" font-family="sans-serif" font-size="14" lengthAdjust="spacing" textLength="110" x="66.5" y="722.0732">void initGame()</text><ellipse cx="57.5" cy="735.0234" fill="#595959" rx="3" ry="3" style="stroke:#ABABAB;stroke-width:1.0;"/><text fill="#FFFFFF" font-family="sans-serif" font-size="14" lengthAdjust="spacing" textLength="471" x="66.5" y="738.3701">void setStatisticController(StatisticController statisticController)</text></g><!--class RSPGameController--><g id="elem_RSPGameController"><rect codeLine="101" fill="#0E0E0E" height="210.9688" id="RSPGameController" rx="2.5" ry="2.5" style="stroke:#E7E7E7;stroke-width:0.5;" width="357" x="1214.5" y="272"/><ellipse cx="1317.25" cy="288" fill="#3D3D3D" rx="11" ry="11" style="stroke:#E7E7E7;stroke-width:1.0;"/><path d="M1319.5938,283.6719 C1318.6563,283.2344 1318.0625,283.0938 1317.1875,283.0938 C1314.5625,283.0938 1312.5625,285.1719 1312.5625,287.8906 L1312.5625,289.0156 C1312.5625,291.5938 1314.6719,293.4844 1317.5625,293.4844 C1318.7813,293.4844 1319.9375,293.1875 1320.6875,292.6406 C1321.2656,292.2344 1321.5938,291.7813 1321.5938,291.3906 C1321.5938,290.9375 1321.2031,290.5469 1320.7344,290.5469 C1320.5156,290.5469 1320.3125,290.625 1320.125,290.8125 C1319.6719,291.2969 1319.6719,291.2969 1319.4844,291.3906 C1319.0625,291.6563 1318.375,291.7813 1317.6094,291.7813 C1315.5625,291.7813 1314.2656,290.6875 1314.2656,288.9844 L1314.2656,287.8906 C1314.2656,286.1094 1315.5156,284.7969 1317.25,284.7969 C1317.8281,284.7969 1318.4375,284.9531 1318.9063,285.2031 C1319.3906,285.4844 1319.5625,285.7031 1319.6563,286.1094 C1319.7188,286.5156 1319.75,286.6406 1319.8906,286.7656 C1320.0313,286.9063 1320.2656,287.0156 1320.4844,287.0156 C1320.75,287.0156 1321.0156,286.875 1321.1875,286.6563 C1321.2969,286.5 1321.3281,286.3125 1321.3281,285.8906 L1321.3281,284.4688 C1321.3281,284.0313 1321.3125,283.9063 1321.2188,283.75 C1321.0625,283.4844 1320.7813,283.3438 1320.4844,283.3438 C1320.1875,283.3438 1319.9844,283.4375 1319.7656,283.75 L1319.5938,283.6719 Z " fill="#FFFFFF"/><text fill="#FFFFFF" font-family="sans-serif" font-size="14" lengthAdjust="spacing" textLength="143" x="1337.75" y="292.8467">RSPGameController</text><line style="stroke:#E7E7E7;stroke-width:0.5;" x1="1215.5" x2="1570.5" y1="304" y2="304"/><rect fill="none" height="6" style="stroke:#A6A6A6;stroke-width:1.0;" width="6" x="1222.5" y="314.6484"/><text fill="#FFFFFF" font-family="sans-serif" font-size="14" lengthAdjust="spacing" textLength="114" x="1234.5" y="320.9951">RPSGame game</text><rect fill="none" height="6" style="stroke:#A6A6A6;stroke-width:1.0;" width="6" x="1222.5" y="330.9453"/><text fill="#FFFFFF" font-family="sans-serif" font-size="14" lengthAdjust="spacing" textLength="182" x="1234.5" y="337.292">RPSGameView gameView</text><rect fill="none" height="6" style="stroke:#A6A6A6;stroke-width:1.0;" width="6" x="1222.5" y="347.2422"/><text fill="#FFFFFF" font-family="sans-serif" font-size="14" lengthAdjust="spacing" textLength="331" x="1234.5" y="353.5889">PlayerAdminController playerAdminController</text><rect fill="none" height="6" style="stroke:#A6A6A6;stroke-width:1.0;" width="6" x="1222.5" y="363.5391"/><text fill="#FFFFFF" font-family="sans-serif" font-size="14" lengthAdjust="spacing" textLength="256" x="1234.5" y="369.8857">PlayerController[] playersController</text><rect fill="none" height="6" style="stroke:#A6A6A6;stroke-width:1.0;" width="6" x="1222.5" y="379.8359"/><text fill="#FFFFFF" font-family="sans-serif" font-size="14" lengthAdjust="spacing" textLength="236" x="1234.5" y="386.1826">RoundController roundController</text><rect fill="none" height="6" style="stroke:#A6A6A6;stroke-width:1.0;" width="6" x="1222.5" y="396.1328"/><text fill="#FFFFFF" font-family="sans-serif" font-size="14" lengthAdjust="spacing" textLength="270" x="1234.5" y="402.4795">StatisticController statisticController</text><line style="stroke:#E7E7E7;stroke-width:0.5;" x1="1215.5" x2="1570.5" y1="409.7813" y2="409.7813"/><ellipse cx="1225.5" cy="423.4297" fill="#595959" rx="3" ry="3" style="stroke:#ABABAB;stroke-width:1.0;"/><text fill="#FFFFFF" font-family="sans-serif" font-size="14" lengthAdjust="spacing" textLength="267" x="1234.5" y="426.7764">RPSGameController(RPSGame game)</text><ellipse cx="1225.5" cy="439.7266" fill="#595959" rx="3" ry="3" style="stroke:#ABABAB;stroke-width:1.0;"/><text fill="#FFFFFF" font-family="sans-serif" font-size="14" lengthAdjust="spacing" textLength="85" x="1234.5" y="443.0732">void setup()</text><ellipse cx="1225.5" cy="456.0234" fill="#595959" rx="3" ry="3" style="stroke:#ABABAB;stroke-width:1.0;"/><text fill="#FFFFFF" font-family="sans-serif" font-size="14" lengthAdjust="spacing" textLength="110" x="1234.5" y="459.3701">void initGame()</text><ellipse cx="1225.5" cy="472.3203" fill="#595959" rx="3" ry="3" style="stroke:#ABABAB;stroke-width:1.0;"/><text fill="#FFFFFF" font-family="sans-serif" font-size="14" lengthAdjust="spacing" textLength="110" x="1234.5" y="475.667">void statistics()</text></g><!--class StatisticController--><g id="elem_StatisticController"><rect codeLine="115" fill="#0E0E0E" height="129.4844" id="StatisticController" rx="2.5" ry="2.5" style="stroke:#E7E7E7;stroke-width:0.5;" width="282" x="1449" y="838.5"/><ellipse cx="1518.75" cy="854.5" fill="#3D3D3D" rx="11" ry="11" style="stroke:#E7E7E7;stroke-width:1.0;"/><path d="M1521.0938,850.1719 C1520.1563,849.7344 1519.5625,849.5938 1518.6875,849.5938 C1516.0625,849.5938 1514.0625,851.6719 1514.0625,854.3906 L1514.0625,855.5156 C1514.0625,858.0938 1516.1719,859.9844 1519.0625,859.9844 C1520.2813,859.9844 1521.4375,859.6875 1522.1875,859.1406 C1522.7656,858.7344 1523.0938,858.2813 1523.0938,857.8906 C1523.0938,857.4375 1522.7031,857.0469 1522.2344,857.0469 C1522.0156,857.0469 1521.8125,857.125 1521.625,857.3125 C1521.1719,857.7969 1521.1719,857.7969 1520.9844,857.8906 C1520.5625,858.1563 1519.875,858.2813 1519.1094,858.2813 C1517.0625,858.2813 1515.7656,857.1875 1515.7656,855.4844 L1515.7656,854.3906 C1515.7656,852.6094 1517.0156,851.2969 1518.75,851.2969 C1519.3281,851.2969 1519.9375,851.4531 1520.4063,851.7031 C1520.8906,851.9844 1521.0625,852.2031 1521.1563,852.6094 C1521.2188,853.0156 1521.25,853.1406 1521.3906,853.2656 C1521.5313,853.4063 1521.7656,853.5156 1521.9844,853.5156 C1522.25,853.5156 1522.5156,853.375 1522.6875,853.1563 C1522.7969,853 1522.8281,852.8125 1522.8281,852.3906 L1522.8281,850.9688 C1522.8281,850.5313 1522.8125,850.4063 1522.7188,850.25 C1522.5625,849.9844 1522.2813,849.8438 1521.9844,849.8438 C1521.6875,849.8438 1521.4844,849.9375 1521.2656,850.25 L1521.0938,850.1719 Z " fill="#FFFFFF"/><text fill="#FFFFFF" font-family="sans-serif" font-size="14" lengthAdjust="spacing" textLength="134" x="1539.25" y="859.3467">StatisticController</text><line style="stroke:#E7E7E7;stroke-width:0.5;" x1="1450" x2="1730" y1="870.5" y2="870.5"/><rect fill="none" height="6" style="stroke:#A6A6A6;stroke-width:1.0;" width="6" x="1457" y="881.1484"/><text fill="#FFFFFF" font-family="sans-serif" font-size="14" lengthAdjust="spacing" textLength="256" x="1469" y="887.4951">ArrayList&lt;StatisticItem&gt; statistics;</text><rect fill="none" height="6" style="stroke:#A6A6A6;stroke-width:1.0;" width="6" x="1457" y="897.4453"/><text fill="#FFFFFF" font-family="sans-serif" font-size="14" lengthAdjust="spacing" textLength="197" x="1469" y="903.792">StatisticView statisticView;</text><line style="stroke:#E7E7E7;stroke-width:0.5;" x1="1450" x2="1730" y1="911.0938" y2="911.0938"/><ellipse cx="1460" cy="924.7422" fill="#595959" rx="3" ry="3" style="stroke:#ABABAB;stroke-width:1.0;"/><text fill="#FFFFFF" font-family="sans-serif" font-size="14" lengthAdjust="spacing" textLength="144" x="1469" y="928.0889">StatisticController()</text><ellipse cx="1460" cy="941.0391" fill="#595959" rx="3" ry="3" style="stroke:#ABABAB;stroke-width:1.0;"/><text fill="#FFFFFF" font-family="sans-serif" font-size="14" lengthAdjust="spacing" textLength="230" x="1469" y="944.3857">addStatistic(StatisticItem item)</text><ellipse cx="1460" cy="957.3359" fill="#595959" rx="3" ry="3" style="stroke:#ABABAB;stroke-width:1.0;"/><text fill="#FFFFFF" font-family="sans-serif" font-size="14" lengthAdjust="spacing" textLength="114" x="1469" y="960.6826">showStatistics()</text></g><!--class PlayerAdminController--><g id="elem_PlayerAdminController"><rect codeLine="45" fill="#0E0E0E" height="210.9688" id="PlayerAdminController" rx="2.5" ry="2.5" style="stroke:#E7E7E7;stroke-width:0.5;" width="296" x="1118" y="543"/><ellipse cx="1180.25" cy="559" fill="#3D3D3D" rx="11" ry="11" style="stroke:#E7E7E7;stroke-width:1.0;"/><path d="M1182.5938,554.6719 C1181.6563,554.2344 1181.0625,554.0938 1180.1875,554.0938 C1177.5625,554.0938 1175.5625,556.1719 1175.5625,558.8906 L1175.5625,560.0156 C1175.5625,562.5938 1177.6719,564.4844 1180.5625,564.4844 C1181.7813,564.4844 1182.9375,564.1875 1183.6875,563.6406 C1184.2656,563.2344 1184.5938,562.7813 1184.5938,562.3906 C1184.5938,561.9375 1184.2031,561.5469 1183.7344,561.5469 C1183.5156,561.5469 1183.3125,561.625 1183.125,561.8125 C1182.6719,562.2969 1182.6719,562.2969 1182.4844,562.3906 C1182.0625,562.6563 1181.375,562.7813 1180.6094,562.7813 C1178.5625,562.7813 1177.2656,561.6875 1177.2656,559.9844 L1177.2656,558.8906 C1177.2656,557.1094 1178.5156,555.7969 1180.25,555.7969 C1180.8281,555.7969 1181.4375,555.9531 1181.9063,556.2031 C1182.3906,556.4844 1182.5625,556.7031 1182.6563,557.1094 C1182.7188,557.5156 1182.75,557.6406 1182.8906,557.7656 C1183.0313,557.9063 1183.2656,558.0156 1183.4844,558.0156 C1183.75,558.0156 1184.0156,557.875 1184.1875,557.6563 C1184.2969,557.5 1184.3281,557.3125 1184.3281,556.8906 L1184.3281,555.4688 C1184.3281,555.0313 1184.3125,554.9063 1184.2188,554.75 C1184.0625,554.4844 1183.7813,554.3438 1183.4844,554.3438 C1183.1875,554.3438 1182.9844,554.4375 1182.7656,554.75 L1182.5938,554.6719 Z " fill="#FFFFFF"/><text fill="#FFFFFF" font-family="sans-serif" font-size="14" lengthAdjust="spacing" textLength="163" x="1200.75" y="563.8467">PlayerAdminController</text><line style="stroke:#E7E7E7;stroke-width:0.5;" x1="1119" x2="1413" y1="575" y2="575"/><rect fill="none" height="6" style="stroke:#A6A6A6;stroke-width:1.0;" width="6" x="1126" y="585.6484"/><text fill="#FFFFFF" font-family="sans-serif" font-size="14" lengthAdjust="spacing" textLength="212" x="1138" y="591.9951">ArrayList&lt;Player&gt; playersList</text><rect fill="none" height="6" style="stroke:#A6A6A6;stroke-width:1.0;" width="6" x="1126" y="601.9453"/><text fill="#FFFFFF" font-family="sans-serif" font-size="14" lengthAdjust="spacing" textLength="263" x="1138" y="608.292">PlayerController[] playersControllers</text><ellipse cx="1129" cy="621.2422" fill="none" rx="3" ry="3" style="stroke:#ABABAB;stroke-width:1.0;"/><text fill="#FFFFFF" font-family="sans-serif" font-size="14" lengthAdjust="spacing" textLength="176" x="1138" y="624.5889">Player[] getGamePlayers</text><line style="stroke:#E7E7E7;stroke-width:0.5;" x1="1119" x2="1413" y1="631.8906" y2="631.8906"/><ellipse cx="1129" cy="645.5391" fill="#595959" rx="3" ry="3" style="stroke:#ABABAB;stroke-width:1.0;"/><text fill="#FFFFFF" font-family="sans-serif" font-size="14" lengthAdjust="spacing" textLength="173" x="1138" y="648.8857">PlayerAdminController()</text><ellipse cx="1129" cy="661.8359" fill="#595959" rx="3" ry="3" style="stroke:#ABABAB;stroke-width:1.0;"/><text fill="#FFFFFF" font-family="sans-serif" font-size="14" lengthAdjust="spacing" textLength="110" x="1138" y="665.1826">void initGame()</text><rect fill="#7F7F7F" height="6" style="stroke:#A6A6A6;stroke-width:1.0;" width="6" x="1126" y="675.1328"/><text fill="#FFFFFF" font-family="sans-serif" font-size="14" lengthAdjust="spacing" textLength="114" x="1138" y="681.4795">void addPlayer()</text><rect fill="#7F7F7F" height="6" style="stroke:#A6A6A6;stroke-width:1.0;" width="6" x="1126" y="691.4297"/><text fill="#FFFFFF" font-family="sans-serif" font-size="14" lengthAdjust="spacing" textLength="270" x="1138" y="697.7764">Player searchPlayer(Player newPlayer)</text><rect fill="#7F7F7F" height="6" style="stroke:#A6A6A6;stroke-width:1.0;" width="6" x="1126" y="707.7266"/><text fill="#FFFFFF" font-family="sans-serif" font-size="14" lengthAdjust="spacing" textLength="237" x="1138" y="714.0732">Player searchPlayer(String name)</text><rect fill="#7F7F7F" height="6" style="stroke:#A6A6A6;stroke-width:1.0;" width="6" x="1126" y="724.0234"/><text fill="#FFFFFF" font-family="sans-serif" font-size="14" lengthAdjust="spacing" textLength="153" x="1138" y="730.3701">void setGamePlayer()</text><rect fill="#7F7F7F" height="6" style="stroke:#A6A6A6;stroke-width:1.0;" width="6" x="1126" y="740.3203"/><text fill="#FFFFFF" font-family="sans-serif" font-size="14" lengthAdjust="spacing" textLength="222" x="1138" y="746.667">boolean arePlayersDuplicates()</text></g><!--class PlayerControllerFactory--><g id="elem_PlayerControllerFactory"><rect codeLine="59" fill="#0E0E0E" height="64.2969" id="PlayerControllerFactory" rx="2.5" ry="2.5" style="stroke:#E7E7E7;stroke-width:0.5;" width="513" x="900.5" y="871"/><ellipse cx="1067.25" cy="887" fill="#3D3D3D" rx="11" ry="11" style="stroke:#E7E7E7;stroke-width:1.0;"/><path d="M1069.5938,882.6719 C1068.6563,882.2344 1068.0625,882.0938 1067.1875,882.0938 C1064.5625,882.0938 1062.5625,884.1719 1062.5625,886.8906 L1062.5625,888.0156 C1062.5625,890.5938 1064.6719,892.4844 1067.5625,892.4844 C1068.7813,892.4844 1069.9375,892.1875 1070.6875,891.6406 C1071.2656,891.2344 1071.5938,890.7813 1071.5938,890.3906 C1071.5938,889.9375 1071.2031,889.5469 1070.7344,889.5469 C1070.5156,889.5469 1070.3125,889.625 1070.125,889.8125 C1069.6719,890.2969 1069.6719,890.2969 1069.4844,890.3906 C1069.0625,890.6563 1068.375,890.7813 1067.6094,890.7813 C1065.5625,890.7813 1064.2656,889.6875 1064.2656,887.9844 L1064.2656,886.8906 C1064.2656,885.1094 1065.5156,883.7969 1067.25,883.7969 C1067.8281,883.7969 1068.4375,883.9531 1068.9063,884.2031 C1069.3906,884.4844 1069.5625,884.7031 1069.6563,885.1094 C1069.7188,885.5156 1069.75,885.6406 1069.8906,885.7656 C1070.0313,885.9063 1070.2656,886.0156 1070.4844,886.0156 C1070.75,886.0156 1071.0156,885.875 1071.1875,885.6563 C1071.2969,885.5 1071.3281,885.3125 1071.3281,884.8906 L1071.3281,883.4688 C1071.3281,883.0313 1071.3125,882.9063 1071.2188,882.75 C1071.0625,882.4844 1070.7813,882.3438 1070.4844,882.3438 C1070.1875,882.3438 1069.9844,882.4375 1069.7656,882.75 L1069.5938,882.6719 Z " fill="#FFFFFF"/><text fill="#FFFFFF" font-family="sans-serif" font-size="14" lengthAdjust="spacing" textLength="171" x="1087.75" y="891.8467">PlayerControllerFactory</text><line style="stroke:#E7E7E7;stroke-width:0.5;" x1="901.5" x2="1412.5" y1="903" y2="903"/><line style="stroke:#E7E7E7;stroke-width:0.5;" x1="901.5" x2="1412.5" y1="911" y2="911"/><ellipse cx="911.5" cy="924.6484" fill="#595959" rx="3" ry="3" style="stroke:#ABABAB;stroke-width:1.0;"/><text fill="#FFFFFF" font-family="sans-serif" font-size="14" lengthAdjust="spacing" textLength="487" x="920.5" y="927.9951">static PlayerController getPlayerController(PLayerType playerType)</text></g><!--class PlayerController--><g id="elem_PlayerController"><rect codeLine="63" fill="#0E0E0E" height="178.375" id="PlayerController" rx="2.5" ry="2.5" style="stroke:#E7E7E7;stroke-width:0.5;" width="289" x="576.5" y="814"/><ellipse cx="659.25" cy="830" fill="#323232" rx="11" ry="11" style="stroke:#E7E7E7;stroke-width:1.0;"/><path d="M661.3281,831.8125 L661.7188,832.7969 L661.3281,832.7969 C660.875,832.7969 660.7656,832.8125 660.6094,832.9219 C660.3594,833.0781 660.2031,833.3594 660.2031,833.6563 C660.2031,833.9219 660.3438,834.1719 660.5625,834.3281 C660.7031,834.4531 660.9063,834.5 661.3281,834.5 L663.6875,834.5 C664.0469,834.5 664.2656,834.4688 664.4063,834.375 C664.6563,834.2344 664.8125,833.9375 664.8125,833.6563 C664.8125,833.375 664.6719,833.125 664.4531,832.9688 C664.2813,832.8281 664.125,832.7969 663.6563,832.7969 L660.2656,824.5938 L656.5938,824.5938 C656.1406,824.5938 656.0156,824.6094 655.8594,824.7031 C655.6094,824.875 655.4531,825.1563 655.4531,825.4375 C655.4531,825.7188 655.5938,825.9688 655.8125,826.1406 C655.9844,826.25 656.1563,826.2813 656.5938,826.2813 L657.6719,826.2813 L655.0313,832.7969 C654.6094,832.7969 654.4531,832.8125 654.2969,832.9219 C654.0469,833.0781 653.8906,833.3594 653.8906,833.6563 C653.8906,834.2188 654.2656,834.5 655.0156,834.5 L657.2813,834.5 C657.6406,834.5 657.8594,834.4688 657.9844,834.375 C658.25,834.2344 658.3906,833.9375 658.3906,833.6563 C658.3906,833.375 658.2656,833.125 658.0469,832.9531 C657.875,832.8281 657.7344,832.7969 657.2813,832.7969 L656.8906,832.7969 L657.2813,831.8125 L661.3281,831.8125 Z M660.625,830.1094 L657.9531,830.1094 L659.2969,826.8438 L660.625,830.1094 Z " fill="#FFFFFF"/><text fill="#FFFFFF" font-family="sans-serif" font-size="14" font-style="italic" lengthAdjust="spacing" textLength="115" x="679.75" y="834.8467">PlayerController</text><line style="stroke:#E7E7E7;stroke-width:0.5;" x1="577.5" x2="864.5" y1="846" y2="846"/><rect fill="none" height="6" style="stroke:#A6A6A6;stroke-width:1.0;" width="6" x="584.5" y="856.6484"/><text fill="#FFFFFF" font-family="sans-serif" font-size="14" lengthAdjust="spacing" textLength="93" x="596.5" y="862.9951">Player player</text><polygon fill="none" points="587.5,870.9453,591.5,874.9453,587.5,878.9453,583.5,874.9453" style="stroke:#737373;stroke-width:1.0;"/><text fill="#FFFFFF" font-family="sans-serif" font-size="14" lengthAdjust="spacing" textLength="168" x="596.5" y="879.292">PlayersView playerView</text><polygon fill="none" points="587.5,887.2422,591.5,891.2422,587.5,895.2422,583.5,891.2422" style="stroke:#737373;stroke-width:1.0;"/><text fill="#FFFFFF" font-family="sans-serif" font-size="14" lengthAdjust="spacing" textLength="165" x="596.5" y="895.5889">PlayerType playerType</text><line style="stroke:#E7E7E7;stroke-width:0.5;" x1="577.5" x2="864.5" y1="902.8906" y2="902.8906"/><ellipse cx="587.5" cy="916.5391" fill="#595959" rx="3" ry="3" style="stroke:#ABABAB;stroke-width:1.0;"/><text fill="#FFFFFF" font-family="sans-serif" font-size="14" lengthAdjust="spacing" textLength="127" x="596.5" y="919.8857">PlayerController()</text><ellipse cx="587.5" cy="932.8359" fill="#595959" rx="3" ry="3" style="stroke:#ABABAB;stroke-width:1.0;"/><text fill="#FFFFFF" font-family="sans-serif" font-size="14" lengthAdjust="spacing" textLength="213" x="596.5" y="936.1826">abstract Shape selectShape()</text><ellipse cx="587.5" cy="949.1328" fill="#595959" rx="3" ry="3" style="stroke:#ABABAB;stroke-width:1.0;"/><text fill="#FFFFFF" font-family="sans-serif" font-size="14" lengthAdjust="spacing" textLength="259" x="596.5" y="952.4795">abstract PlayerView initPlayerView()</text><ellipse cx="587.5" cy="965.4297" fill="#595959" rx="3" ry="3" style="stroke:#ABABAB;stroke-width:1.0;"/><text fill="#FFFFFF" font-family="sans-serif" font-size="14" lengthAdjust="spacing" textLength="263" x="596.5" y="968.7764">abstract PlayerType initPlayerType()</text><ellipse cx="587.5" cy="981.7266" fill="#595959" rx="3" ry="3" style="stroke:#ABABAB;stroke-width:1.0;"/><text fill="#FFFFFF" font-family="sans-serif" font-size="14" lengthAdjust="spacing" textLength="145" x="596.5" y="985.0732">void increaseScore()</text></g><!--class HumanController--><g id="elem_HumanController"><rect codeLine="75" fill="#0E0E0E" height="96.8906" id="HumanController" rx="2.5" ry="2.5" style="stroke:#E7E7E7;stroke-width:0.5;" width="214" x="867" y="600"/><ellipse cx="909" cy="616" fill="#3D3D3D" rx="11" ry="11" style="stroke:#E7E7E7;stroke-width:1.0;"/><path d="M911.3438,611.6719 C910.4063,611.2344 909.8125,611.0938 908.9375,611.0938 C906.3125,611.0938 904.3125,613.1719 904.3125,615.8906 L904.3125,617.0156 C904.3125,619.5938 906.4219,621.4844 909.3125,621.4844 C910.5313,621.4844 911.6875,621.1875 912.4375,620.6406 C913.0156,620.2344 913.3438,619.7813 913.3438,619.3906 C913.3438,618.9375 912.9531,618.5469 912.4844,618.5469 C912.2656,618.5469 912.0625,618.625 911.875,618.8125 C911.4219,619.2969 911.4219,619.2969 911.2344,619.3906 C910.8125,619.6563 910.125,619.7813 909.3594,619.7813 C907.3125,619.7813 906.0156,618.6875 906.0156,616.9844 L906.0156,615.8906 C906.0156,614.1094 907.2656,612.7969 909,612.7969 C909.5781,612.7969 910.1875,612.9531 910.6563,613.2031 C911.1406,613.4844 911.3125,613.7031 911.4063,614.1094 C911.4688,614.5156 911.5,614.6406 911.6406,614.7656 C911.7813,614.9063 912.0156,615.0156 912.2344,615.0156 C912.5,615.0156 912.7656,614.875 912.9375,614.6563 C913.0469,614.5 913.0781,614.3125 913.0781,613.8906 L913.0781,612.4688 C913.0781,612.0313 913.0625,611.9063 912.9688,611.75 C912.8125,611.4844 912.5313,611.3438 912.2344,611.3438 C911.9375,611.3438 911.7344,611.4375 911.5156,611.75 L911.3438,611.6719 Z " fill="#FFFFFF"/><text fill="#FFFFFF" font-family="sans-serif" font-size="14" lengthAdjust="spacing" textLength="122" x="929" y="620.8467">HumanController</text><line style="stroke:#E7E7E7;stroke-width:0.5;" x1="868" x2="1080" y1="632" y2="632"/><ellipse cx="878" cy="645.6484" fill="none" rx="3" ry="3" style="stroke:#ABABAB;stroke-width:1.0;"/><text fill="#FFFFFF" font-family="sans-serif" font-size="14" lengthAdjust="spacing" textLength="184" x="887" y="648.9951">PlayerView initPlayerView</text><ellipse cx="878" cy="661.9453" fill="none" rx="3" ry="3" style="stroke:#ABABAB;stroke-width:1.0;"/><text fill="#FFFFFF" font-family="sans-serif" font-size="14" lengthAdjust="spacing" textLength="188" x="887" y="665.292">PlayerType initPlayerType</text><line style="stroke:#E7E7E7;stroke-width:0.5;" x1="868" x2="1080" y1="672.5938" y2="672.5938"/><ellipse cx="878" cy="686.2422" fill="#595959" rx="3" ry="3" style="stroke:#ABABAB;stroke-width:1.0;"/><text fill="#FFFFFF" font-family="sans-serif" font-size="14" lengthAdjust="spacing" textLength="148" x="887" y="689.5889">Shape selectShape()</text></g><!--class ComputerController--><g id="elem_ComputerController"><rect codeLine="81" fill="#0E0E0E" height="96.8906" id="ComputerController" rx="2.5" ry="2.5" style="stroke:#E7E7E7;stroke-width:0.5;" width="214" x="618" y="600"/><ellipse cx="649.2" cy="616" fill="#3D3D3D" rx="11" ry="11" style="stroke:#E7E7E7;stroke-width:1.0;"/><path d="M651.5438,611.6719 C650.6063,611.2344 650.0125,611.0938 649.1375,611.0938 C646.5125,611.0938 644.5125,613.1719 644.5125,615.8906 L644.5125,617.0156 C644.5125,619.5938 646.6219,621.4844 649.5125,621.4844 C650.7313,621.4844 651.8875,621.1875 652.6375,620.6406 C653.2156,620.2344 653.5438,619.7813 653.5438,619.3906 C653.5438,618.9375 653.1531,618.5469 652.6844,618.5469 C652.4656,618.5469 652.2625,618.625 652.075,618.8125 C651.6219,619.2969 651.6219,619.2969 651.4344,619.3906 C651.0125,619.6563 650.325,619.7813 649.5594,619.7813 C647.5125,619.7813 646.2156,618.6875 646.2156,616.9844 L646.2156,615.8906 C646.2156,614.1094 647.4656,612.7969 649.2,612.7969 C649.7781,612.7969 650.3875,612.9531 650.8563,613.2031 C651.3406,613.4844 651.5125,613.7031 651.6063,614.1094 C651.6688,614.5156 651.7,614.6406 651.8406,614.7656 C651.9813,614.9063 652.2156,615.0156 652.4344,615.0156 C652.7,615.0156 652.9656,614.875 653.1375,614.6563 C653.2469,614.5 653.2781,614.3125 653.2781,613.8906 L653.2781,612.4688 C653.2781,612.0313 653.2625,611.9063 653.1688,611.75 C653.0125,611.4844 652.7313,611.3438 652.4344,611.3438 C652.1375,611.3438 651.9344,611.4375 651.7156,611.75 L651.5438,611.6719 Z " fill="#FFFFFF"/><text fill="#FFFFFF" font-family="sans-serif" font-size="14" lengthAdjust="spacing" textLength="146" x="666.8" y="620.8467">ComputerController</text><line style="stroke:#E7E7E7;stroke-width:0.5;" x1="619" x2="831" y1="632" y2="632"/><ellipse cx="629" cy="645.6484" fill="none" rx="3" ry="3" style="stroke:#ABABAB;stroke-width:1.0;"/><text fill="#FFFFFF" font-family="sans-serif" font-size="14" lengthAdjust="spacing" textLength="184" x="638" y="648.9951">PlayerView initPlayerView</text><ellipse cx="629" cy="661.9453" fill="none" rx="3" ry="3" style="stroke:#ABABAB;stroke-width:1.0;"/><text fill="#FFFFFF" font-family="sans-serif" font-size="14" lengthAdjust="spacing" textLength="188" x="638" y="665.292">PlayerType initPlayerType</text><line style="stroke:#E7E7E7;stroke-width:0.5;" x1="619" x2="831" y1="672.5938" y2="672.5938"/><ellipse cx="629" cy="686.2422" fill="#595959" rx="3" ry="3" style="stroke:#ABABAB;stroke-width:1.0;"/><text fill="#FFFFFF" font-family="sans-serif" font-size="14" lengthAdjust="spacing" textLength="148" x="638" y="689.5889">Shape selectShape()</text></g><!--class Shape--><g id="elem_Shape"><rect codeLine="126" fill="#0E0E0E" height="113.1875" id="Shape" rx="2.5" ry="2.5" style="stroke:#E7E7E7;stroke-width:0.5;" width="417" x="2226.5" y="84"/><ellipse cx="2408.25" cy="100" fill="#545454" rx="11" ry="11" style="stroke:#E7E7E7;stroke-width:1.0;"/><path d="M2407.0469,100.875 L2408.5,100.875 L2408.5,100.9844 C2408.5,101.3906 2408.5313,101.5469 2408.6094,101.7031 C2408.7656,101.9531 2409.0469,102.1094 2409.3438,102.1094 C2409.5938,102.1094 2409.8594,101.9688 2410.0156,101.75 C2410.1406,101.5938 2410.1719,101.4375 2410.1719,100.9844 L2410.1719,99.0625 C2410.1719,98.9063 2410.1719,98.8594 2410.1563,98.7031 C2410.0938,98.2344 2409.7813,97.9219 2409.3281,97.9219 C2409.0781,97.9219 2408.8125,98.0625 2408.6406,98.2813 C2408.5313,98.4531 2408.5,98.6094 2408.5,99.0625 L2408.5,99.1875 L2407.0469,99.1875 L2407.0469,96.7813 L2411.0313,96.7813 L2411.0313,97.6406 C2411.0313,98.0469 2411.0625,98.2188 2411.1406,98.375 C2411.3125,98.625 2411.5938,98.7813 2411.875,98.7813 C2412.1406,98.7813 2412.4063,98.6406 2412.5781,98.4219 C2412.6875,98.25 2412.7188,98.1094 2412.7188,97.6406 L2412.7188,95.0938 L2405.0938,95.0938 C2404.6563,95.0938 2404.5313,95.1094 2404.375,95.2031 C2404.125,95.3594 2403.9688,95.6563 2403.9688,95.9375 C2403.9688,96.2188 2404.1094,96.4688 2404.3281,96.6406 C2404.4844,96.75 2404.6719,96.7813 2405.0938,96.7813 L2405.3438,96.7813 L2405.3438,103.2969 L2405.0938,103.2969 C2404.6875,103.2969 2404.5313,103.3125 2404.375,103.4219 C2404.125,103.5938 2403.9688,103.8594 2403.9688,104.1563 C2403.9688,104.4219 2404.1094,104.6719 2404.3281,104.8281 C2404.4688,104.9531 2404.7031,105 2405.0938,105 L2413.0938,105 L2413.0938,102.4219 C2413.0938,101.9844 2413.0625,101.8438 2412.9844,101.6875 C2412.8125,101.4375 2412.5313,101.2813 2412.25,101.2813 C2411.9844,101.2813 2411.7188,101.3906 2411.5469,101.6406 C2411.4375,101.7969 2411.4063,101.9375 2411.4063,102.4219 L2411.4063,103.2969 L2407.0469,103.2969 L2407.0469,100.875 Z " fill="#FFFFFF"/><text fill="#FFFFFF" font-family="sans-serif" font-size="14" lengthAdjust="spacing" textLength="45" x="2428.75" y="104.8467">Shape</text><line style="stroke:#E7E7E7;stroke-width:0.5;" x1="2227.5" x2="2642.5" y1="116" y2="116"/><text fill="#FFFFFF" font-family="sans-serif" font-size="14" lengthAdjust="spacing" textLength="41" x="2232.5" y="132.9951">ROCK</text><text fill="#FFFFFF" font-family="sans-serif" font-size="14" lengthAdjust="spacing" textLength="62" x="2232.5" y="149.292">SCISSOR</text><text fill="#FFFFFF" font-family="sans-serif" font-size="14" lengthAdjust="spacing" textLength="47" x="2232.5" y="165.5889">PAPER</text><line style="stroke:#E7E7E7;stroke-width:0.5;" x1="2227.5" x2="2642.5" y1="172.8906" y2="172.8906"/><ellipse cx="2237.5" cy="186.5391" fill="#595959" rx="3" ry="3" style="stroke:#ABABAB;stroke-width:1.0;"/><text fill="#FFFFFF" font-family="sans-serif" font-size="14" lengthAdjust="spacing" textLength="391" x="2246.5" y="189.8857">static boolean winsWith(Shape shape1, Shape shape2)</text></g><!--class PlayerType--><g id="elem_PlayerType"><rect codeLine="133" fill="#0E0E0E" height="80.5938" id="PlayerType" rx="2.5" ry="2.5" style="stroke:#E7E7E7;stroke-width:0.5;" width="112" x="2079" y="100"/><ellipse cx="2094" cy="116" fill="#545454" rx="11" ry="11" style="stroke:#E7E7E7;stroke-width:1.0;"/><path d="M2092.7969,116.875 L2094.25,116.875 L2094.25,116.9844 C2094.25,117.3906 2094.2813,117.5469 2094.3594,117.7031 C2094.5156,117.9531 2094.7969,118.1094 2095.0938,118.1094 C2095.3438,118.1094 2095.6094,117.9688 2095.7656,117.75 C2095.8906,117.5938 2095.9219,117.4375 2095.9219,116.9844 L2095.9219,115.0625 C2095.9219,114.9063 2095.9219,114.8594 2095.9063,114.7031 C2095.8438,114.2344 2095.5313,113.9219 2095.0781,113.9219 C2094.8281,113.9219 2094.5625,114.0625 2094.3906,114.2813 C2094.2813,114.4531 2094.25,114.6094 2094.25,115.0625 L2094.25,115.1875 L2092.7969,115.1875 L2092.7969,112.7813 L2096.7813,112.7813 L2096.7813,113.6406 C2096.7813,114.0469 2096.8125,114.2188 2096.8906,114.375 C2097.0625,114.625 2097.3438,114.7813 2097.625,114.7813 C2097.8906,114.7813 2098.1563,114.6406 2098.3281,114.4219 C2098.4375,114.25 2098.4688,114.1094 2098.4688,113.6406 L2098.4688,111.0938 L2090.8438,111.0938 C2090.4063,111.0938 2090.2813,111.1094 2090.125,111.2031 C2089.875,111.3594 2089.7188,111.6563 2089.7188,111.9375 C2089.7188,112.2188 2089.8594,112.4688 2090.0781,112.6406 C2090.2344,112.75 2090.4219,112.7813 2090.8438,112.7813 L2091.0938,112.7813 L2091.0938,119.2969 L2090.8438,119.2969 C2090.4375,119.2969 2090.2813,119.3125 2090.125,119.4219 C2089.875,119.5938 2089.7188,119.8594 2089.7188,120.1563 C2089.7188,120.4219 2089.8594,120.6719 2090.0781,120.8281 C2090.2188,120.9531 2090.4531,121 2090.8438,121 L2098.8438,121 L2098.8438,118.4219 C2098.8438,117.9844 2098.8125,117.8438 2098.7344,117.6875 C2098.5625,117.4375 2098.2813,117.2813 2098,117.2813 C2097.7344,117.2813 2097.4688,117.3906 2097.2969,117.6406 C2097.1875,117.7969 2097.1563,117.9375 2097.1563,118.4219 L2097.1563,119.2969 L2092.7969,119.2969 L2092.7969,116.875 Z " fill="#FFFFFF"/><text fill="#FFFFFF" font-family="sans-serif" font-size="14" lengthAdjust="spacing" textLength="80" x="2108" y="120.8467">PlayerType</text><line style="stroke:#E7E7E7;stroke-width:0.5;" x1="2080" x2="2190" y1="132" y2="132"/><text fill="#FFFFFF" font-family="sans-serif" font-size="14" lengthAdjust="spacing" textLength="51" x="2085" y="148.9951">HUMAN</text><text fill="#FFFFFF" font-family="sans-serif" font-size="14" lengthAdjust="spacing" textLength="77" x="2085" y="165.292">CONPUTER</text><line style="stroke:#E7E7E7;stroke-width:0.5;" x1="2080" x2="2190" y1="172.5938" y2="172.5938"/></g><!--class RSPGameView--><g id="elem_RSPGameView"><rect codeLine="167" fill="#0E0E0E" height="96.8906" id="RSPGameView" rx="2.5" ry="2.5" style="stroke:#E7E7E7;stroke-width:0.5;" width="437" x="2257.5" y="600"/><ellipse cx="2419.75" cy="616" fill="#3D3D3D" rx="11" ry="11" style="stroke:#E7E7E7;stroke-width:1.0;"/><path d="M2422.0938,611.6719 C2421.1563,611.2344 2420.5625,611.0938 2419.6875,611.0938 C2417.0625,611.0938 2415.0625,613.1719 2415.0625,615.8906 L2415.0625,617.0156 C2415.0625,619.5938 2417.1719,621.4844 2420.0625,621.4844 C2421.2813,621.4844 2422.4375,621.1875 2423.1875,620.6406 C2423.7656,620.2344 2424.0938,619.7813 2424.0938,619.3906 C2424.0938,618.9375 2423.7031,618.5469 2423.2344,618.5469 C2423.0156,618.5469 2422.8125,618.625 2422.625,618.8125 C2422.1719,619.2969 2422.1719,619.2969 2421.9844,619.3906 C2421.5625,619.6563 2420.875,619.7813 2420.1094,619.7813 C2418.0625,619.7813 2416.7656,618.6875 2416.7656,616.9844 L2416.7656,615.8906 C2416.7656,614.1094 2418.0156,612.7969 2419.75,612.7969 C2420.3281,612.7969 2420.9375,612.9531 2421.4063,613.2031 C2421.8906,613.4844 2422.0625,613.7031 2422.1563,614.1094 C2422.2188,614.5156 2422.25,614.6406 2422.3906,614.7656 C2422.5313,614.9063 2422.7656,615.0156 2422.9844,615.0156 C2423.25,615.0156 2423.5156,614.875 2423.6875,614.6563 C2423.7969,614.5 2423.8281,614.3125 2423.8281,613.8906 L2423.8281,612.4688 C2423.8281,612.0313 2423.8125,611.9063 2423.7188,611.75 C2423.5625,611.4844 2423.2813,611.3438 2422.9844,611.3438 C2422.6875,611.3438 2422.4844,611.4375 2422.2656,611.75 L2422.0938,611.6719 Z " fill="#FFFFFF"/><text fill="#FFFFFF" font-family="sans-serif" font-size="14" lengthAdjust="spacing" textLength="104" x="2440.25" y="620.8467">RSPGameView</text><line style="stroke:#E7E7E7;stroke-width:0.5;" x1="2258.5" x2="2693.5" y1="632" y2="632"/><line style="stroke:#E7E7E7;stroke-width:0.5;" x1="2258.5" x2="2693.5" y1="640" y2="640"/><ellipse cx="2268.5" cy="653.6484" fill="#595959" rx="3" ry="3" style="stroke:#ABABAB;stroke-width:1.0;"/><text fill="#FFFFFF" font-family="sans-serif" font-size="14" lengthAdjust="spacing" textLength="411" x="2277.5" y="656.9951">static void play(String playerAName,String playerBName)</text><ellipse cx="2268.5" cy="669.9453" fill="#595959" rx="3" ry="3" style="stroke:#ABABAB;stroke-width:1.0;"/><text fill="#FFFFFF" font-family="sans-serif" font-size="14" lengthAdjust="spacing" textLength="227" x="2277.5" y="673.292">void showWinner(Player winner)</text><ellipse cx="2268.5" cy="686.2422" fill="#595959" rx="3" ry="3" style="stroke:#ABABAB;stroke-width:1.0;"/><text fill="#FFFFFF" font-family="sans-serif" font-size="14" lengthAdjust="spacing" textLength="169" x="2277.5" y="689.5889">void showMainWindow()</text></g><!--class RoundView--><g id="elem_RoundView"><rect codeLine="173" fill="#0E0E0E" height="96.8906" id="RoundView" rx="2.5" ry="2.5" style="stroke:#E7E7E7;stroke-width:0.5;" width="334" x="2763" y="854.5"/><ellipse cx="2886.25" cy="870.5" fill="#3D3D3D" rx="11" ry="11" style="stroke:#E7E7E7;stroke-width:1.0;"/><path d="M2888.5938,866.1719 C2887.6563,865.7344 2887.0625,865.5938 2886.1875,865.5938 C2883.5625,865.5938 2881.5625,867.6719 2881.5625,870.3906 L2881.5625,871.5156 C2881.5625,874.0938 2883.6719,875.9844 2886.5625,875.9844 C2887.7813,875.9844 2888.9375,875.6875 2889.6875,875.1406 C2890.2656,874.7344 2890.5938,874.2813 2890.5938,873.8906 C2890.5938,873.4375 2890.2031,873.0469 2889.7344,873.0469 C2889.5156,873.0469 2889.3125,873.125 2889.125,873.3125 C2888.6719,873.7969 2888.6719,873.7969 2888.4844,873.8906 C2888.0625,874.1563 2887.375,874.2813 2886.6094,874.2813 C2884.5625,874.2813 2883.2656,873.1875 2883.2656,871.4844 L2883.2656,870.3906 C2883.2656,868.6094 2884.5156,867.2969 2886.25,867.2969 C2886.8281,867.2969 2887.4375,867.4531 2887.9063,867.7031 C2888.3906,867.9844 2888.5625,868.2031 2888.6563,868.6094 C2888.7188,869.0156 2888.75,869.1406 2888.8906,869.2656 C2889.0313,869.4063 2889.2656,869.5156 2889.4844,869.5156 C2889.75,869.5156 2890.0156,869.375 2890.1875,869.1563 C2890.2969,869 2890.3281,868.8125 2890.3281,868.3906 L2890.3281,866.9688 C2890.3281,866.5313 2890.3125,866.4063 2890.2188,866.25 C2890.0625,865.9844 2889.7813,865.8438 2889.4844,865.8438 C2889.1875,865.8438 2888.9844,865.9375 2888.7656,866.25 L2888.5938,866.1719 Z " fill="#FFFFFF"/><text fill="#FFFFFF" font-family="sans-serif" font-size="14" lengthAdjust="spacing" textLength="79" x="2906.75" y="875.3467">RoundView</text><line style="stroke:#E7E7E7;stroke-width:0.5;" x1="2764" x2="3096" y1="886.5" y2="886.5"/><line style="stroke:#E7E7E7;stroke-width:0.5;" x1="2764" x2="3096" y1="894.5" y2="894.5"/><ellipse cx="2774" cy="908.1484" fill="#595959" rx="3" ry="3" style="stroke:#ABABAB;stroke-width:1.0;"/><text fill="#FFFFFF" font-family="sans-serif" font-size="14" lengthAdjust="spacing" textLength="308" x="2783" y="911.4951">void executeRound(int round, String name)</text><ellipse cx="2774" cy="924.4453" fill="#595959" rx="3" ry="3" style="stroke:#ABABAB;stroke-width:1.0;"/><text fill="#FFFFFF" font-family="sans-serif" font-size="14" lengthAdjust="spacing" textLength="272" x="2783" y="927.792">void showRoundWinner(Player winner)</text><ellipse cx="2774" cy="940.7422" fill="#595959" rx="3" ry="3" style="stroke:#ABABAB;stroke-width:1.0;"/><text fill="#FFFFFF" font-family="sans-serif" font-size="14" lengthAdjust="spacing" textLength="102" x="2783" y="944.0889">void showTie()</text></g><!--class StatisticView--><g id="elem_StatisticView"><rect codeLine="178" fill="#0E0E0E" height="64.2969" id="StatisticView" rx="2.5" ry="2.5" style="stroke:#E7E7E7;stroke-width:0.5;" width="391" x="2760.5" y="1107.5"/><ellipse cx="2904.25" cy="1123.5" fill="#3D3D3D" rx="11" ry="11" style="stroke:#E7E7E7;stroke-width:1.0;"/><path d="M2906.5938,1119.1719 C2905.6563,1118.7344 2905.0625,1118.5938 2904.1875,1118.5938 C2901.5625,1118.5938 2899.5625,1120.6719 2899.5625,1123.3906 L2899.5625,1124.5156 C2899.5625,1127.0938 2901.6719,1128.9844 2904.5625,1128.9844 C2905.7813,1128.9844 2906.9375,1128.6875 2907.6875,1128.1406 C2908.2656,1127.7344 2908.5938,1127.2813 2908.5938,1126.8906 C2908.5938,1126.4375 2908.2031,1126.0469 2907.7344,1126.0469 C2907.5156,1126.0469 2907.3125,1126.125 2907.125,1126.3125 C2906.6719,1126.7969 2906.6719,1126.7969 2906.4844,1126.8906 C2906.0625,1127.1563 2905.375,1127.2813 2904.6094,1127.2813 C2902.5625,1127.2813 2901.2656,1126.1875 2901.2656,1124.4844 L2901.2656,1123.3906 C2901.2656,1121.6094 2902.5156,1120.2969 2904.25,1120.2969 C2904.8281,1120.2969 2905.4375,1120.4531 2905.9063,1120.7031 C2906.3906,1120.9844 2906.5625,1121.2031 2906.6563,1121.6094 C2906.7188,1122.0156 2906.75,1122.1406 2906.8906,1122.2656 C2907.0313,1122.4063 2907.2656,1122.5156 2907.4844,1122.5156 C2907.75,1122.5156 2908.0156,1122.375 2908.1875,1122.1563 C2908.2969,1122 2908.3281,1121.8125 2908.3281,1121.3906 L2908.3281,1119.9688 C2908.3281,1119.5313 2908.3125,1119.4063 2908.2188,1119.25 C2908.0625,1118.9844 2907.7813,1118.8438 2907.4844,1118.8438 C2907.1875,1118.8438 2906.9844,1118.9375 2906.7656,1119.25 L2906.5938,1119.1719 Z " fill="#FFFFFF"/><text fill="#FFFFFF" font-family="sans-serif" font-size="14" lengthAdjust="spacing" textLength="95" x="2924.75" y="1128.3467">StatisticView</text><line style="stroke:#E7E7E7;stroke-width:0.5;" x1="2761.5" x2="3150.5" y1="1139.5" y2="1139.5"/><line style="stroke:#E7E7E7;stroke-width:0.5;" x1="2761.5" x2="3150.5" y1="1147.5" y2="1147.5"/><ellipse cx="2771.5" cy="1161.1484" fill="#595959" rx="3" ry="3" style="stroke:#ABABAB;stroke-width:1.0;"/><text fill="#FFFFFF" font-family="sans-serif" font-size="14" lengthAdjust="spacing" textLength="365" x="2780.5" y="1164.4951">showStatistics(ArrayList&lt;StatisticItem&gt; statistics)</text></g><!--class PlayerView--><g id="elem_PlayerView"><rect codeLine="140" fill="#0E0E0E" height="80.5938" id="PlayerView" rx="2.5" ry="2.5" style="stroke:#E7E7E7;stroke-width:0.5;" width="239" x="2486.5" y="1099"/><ellipse cx="2562.75" cy="1115" fill="#3D3D3D" rx="11" ry="11" style="stroke:#E7E7E7;stroke-width:1.0;"/><path d="M2565.0938,1110.6719 C2564.1563,1110.2344 2563.5625,1110.0938 2562.6875,1110.0938 C2560.0625,1110.0938 2558.0625,1112.1719 2558.0625,1114.8906 L2558.0625,1116.0156 C2558.0625,1118.5938 2560.1719,1120.4844 2563.0625,1120.4844 C2564.2813,1120.4844 2565.4375,1120.1875 2566.1875,1119.6406 C2566.7656,1119.2344 2567.0938,1118.7813 2567.0938,1118.3906 C2567.0938,1117.9375 2566.7031,1117.5469 2566.2344,1117.5469 C2566.0156,1117.5469 2565.8125,1117.625 2565.625,1117.8125 C2565.1719,1118.2969 2565.1719,1118.2969 2564.9844,1118.3906 C2564.5625,1118.6563 2563.875,1118.7813 2563.1094,1118.7813 C2561.0625,1118.7813 2559.7656,1117.6875 2559.7656,1115.9844 L2559.7656,1114.8906 C2559.7656,1113.1094 2561.0156,1111.7969 2562.75,1111.7969 C2563.3281,1111.7969 2563.9375,1111.9531 2564.4063,1112.2031 C2564.8906,1112.4844 2565.0625,1112.7031 2565.1563,1113.1094 C2565.2188,1113.5156 2565.25,1113.6406 2565.3906,1113.7656 C2565.5313,1113.9063 2565.7656,1114.0156 2565.9844,1114.0156 C2566.25,1114.0156 2566.5156,1113.875 2566.6875,1113.6563 C2566.7969,1113.5 2566.8281,1113.3125 2566.8281,1112.8906 L2566.8281,1111.4688 C2566.8281,1111.0313 2566.8125,1110.9063 2566.7188,1110.75 C2566.5625,1110.4844 2566.2813,1110.3438 2565.9844,1110.3438 C2565.6875,1110.3438 2565.4844,1110.4375 2565.2656,1110.75 L2565.0938,1110.6719 Z " fill="#FFFFFF"/><text fill="#FFFFFF" font-family="sans-serif" font-size="14" lengthAdjust="spacing" textLength="78" x="2583.25" y="1119.8467">PlayerView</text><line style="stroke:#E7E7E7;stroke-width:0.5;" x1="2487.5" x2="2724.5" y1="1131" y2="1131"/><line style="stroke:#E7E7E7;stroke-width:0.5;" x1="2487.5" x2="2724.5" y1="1139" y2="1139"/><ellipse cx="2497.5" cy="1152.6484" fill="#595959" rx="3" ry="3" style="stroke:#ABABAB;stroke-width:1.0;"/><text fill="#FFFFFF" font-family="sans-serif" font-size="14" lengthAdjust="spacing" textLength="189" x="2506.5" y="1155.9951">abstract String getName()</text><ellipse cx="2497.5" cy="1168.9453" fill="#595959" rx="3" ry="3" style="stroke:#ABABAB;stroke-width:1.0;"/><text fill="#FFFFFF" font-family="sans-serif" font-size="14" lengthAdjust="spacing" textLength="213" x="2506.5" y="1172.292">abstract Shape selectShape()</text></g><!--class HumanPlayerView--><g id="elem_HumanPlayerView"><rect codeLine="144" fill="#0E0E0E" height="80.5938" id="HumanPlayerView" rx="2.5" ry="2.5" style="stroke:#E7E7E7;stroke-width:0.5;" width="174" x="2554" y="862.5"/><ellipse cx="2575.75" cy="878.5" fill="#3D3D3D" rx="11" ry="11" style="stroke:#E7E7E7;stroke-width:1.0;"/><path d="M2578.0938,874.1719 C2577.1563,873.7344 2576.5625,873.5938 2575.6875,873.5938 C2573.0625,873.5938 2571.0625,875.6719 2571.0625,878.3906 L2571.0625,879.5156 C2571.0625,882.0938 2573.1719,883.9844 2576.0625,883.9844 C2577.2813,883.9844 2578.4375,883.6875 2579.1875,883.1406 C2579.7656,882.7344 2580.0938,882.2813 2580.0938,881.8906 C2580.0938,881.4375 2579.7031,881.0469 2579.2344,881.0469 C2579.0156,881.0469 2578.8125,881.125 2578.625,881.3125 C2578.1719,881.7969 2578.1719,881.7969 2577.9844,881.8906 C2577.5625,882.1563 2576.875,882.2813 2576.1094,882.2813 C2574.0625,882.2813 2572.7656,881.1875 2572.7656,879.4844 L2572.7656,878.3906 C2572.7656,876.6094 2574.0156,875.2969 2575.75,875.2969 C2576.3281,875.2969 2576.9375,875.4531 2577.4063,875.7031 C2577.8906,875.9844 2578.0625,876.2031 2578.1563,876.6094 C2578.2188,877.0156 2578.25,877.1406 2578.3906,877.2656 C2578.5313,877.4063 2578.7656,877.5156 2578.9844,877.5156 C2579.25,877.5156 2579.5156,877.375 2579.6875,877.1563 C2579.7969,877 2579.8281,876.8125 2579.8281,876.3906 L2579.8281,874.9688 C2579.8281,874.5313 2579.8125,874.4063 2579.7188,874.25 C2579.5625,873.9844 2579.2813,873.8438 2578.9844,873.8438 C2578.6875,873.8438 2578.4844,873.9375 2578.2656,874.25 L2578.0938,874.1719 Z " fill="#FFFFFF"/><text fill="#FFFFFF" font-family="sans-serif" font-size="14" lengthAdjust="spacing" textLength="127" x="2591.25" y="883.3467">HumanPlayerView</text><line style="stroke:#E7E7E7;stroke-width:0.5;" x1="2555" x2="2727" y1="894.5" y2="894.5"/><line style="stroke:#E7E7E7;stroke-width:0.5;" x1="2555" x2="2727" y1="902.5" y2="902.5"/><ellipse cx="2565" cy="916.1484" fill="#595959" rx="3" ry="3" style="stroke:#ABABAB;stroke-width:1.0;"/><text fill="#FFFFFF" font-family="sans-serif" font-size="14" lengthAdjust="spacing" textLength="124" x="2574" y="919.4951">String getName()</text><ellipse cx="2565" cy="932.4453" fill="#595959" rx="3" ry="3" style="stroke:#ABABAB;stroke-width:1.0;"/><text fill="#FFFFFF" font-family="sans-serif" font-size="14" lengthAdjust="spacing" textLength="148" x="2574" y="935.792">Shape selectShape()</text></g><!--class ComputerPlayerView--><g id="elem_ComputerPlayerView"><rect codeLine="148" fill="#0E0E0E" height="96.8906" id="ComputerPlayerView" rx="2.5" ry="2.5" style="stroke:#E7E7E7;stroke-width:0.5;" width="290" x="2229" y="854.5"/><ellipse cx="2294.25" cy="870.5" fill="#3D3D3D" rx="11" ry="11" style="stroke:#E7E7E7;stroke-width:1.0;"/><path d="M2296.5938,866.1719 C2295.6563,865.7344 2295.0625,865.5938 2294.1875,865.5938 C2291.5625,865.5938 2289.5625,867.6719 2289.5625,870.3906 L2289.5625,871.5156 C2289.5625,874.0938 2291.6719,875.9844 2294.5625,875.9844 C2295.7813,875.9844 2296.9375,875.6875 2297.6875,875.1406 C2298.2656,874.7344 2298.5938,874.2813 2298.5938,873.8906 C2298.5938,873.4375 2298.2031,873.0469 2297.7344,873.0469 C2297.5156,873.0469 2297.3125,873.125 2297.125,873.3125 C2296.6719,873.7969 2296.6719,873.7969 2296.4844,873.8906 C2296.0625,874.1563 2295.375,874.2813 2294.6094,874.2813 C2292.5625,874.2813 2291.2656,873.1875 2291.2656,871.4844 L2291.2656,870.3906 C2291.2656,868.6094 2292.5156,867.2969 2294.25,867.2969 C2294.8281,867.2969 2295.4375,867.4531 2295.9063,867.7031 C2296.3906,867.9844 2296.5625,868.2031 2296.6563,868.6094 C2296.7188,869.0156 2296.75,869.1406 2296.8906,869.2656 C2297.0313,869.4063 2297.2656,869.5156 2297.4844,869.5156 C2297.75,869.5156 2298.0156,869.375 2298.1875,869.1563 C2298.2969,869 2298.3281,868.8125 2298.3281,868.3906 L2298.3281,866.9688 C2298.3281,866.5313 2298.3125,866.4063 2298.2188,866.25 C2298.0625,865.9844 2297.7813,865.8438 2297.4844,865.8438 C2297.1875,865.8438 2296.9844,865.9375 2296.7656,866.25 L2296.5938,866.1719 Z " fill="#FFFFFF"/><text fill="#FFFFFF" font-family="sans-serif" font-size="14" lengthAdjust="spacing" textLength="151" x="2314.75" y="875.3467">ComputerPlayerView</text><line style="stroke:#E7E7E7;stroke-width:0.5;" x1="2230" x2="2518" y1="886.5" y2="886.5"/><line style="stroke:#E7E7E7;stroke-width:0.5;" x1="2230" x2="2518" y1="894.5" y2="894.5"/><ellipse cx="2240" cy="908.1484" fill="#595959" rx="3" ry="3" style="stroke:#ABABAB;stroke-width:1.0;"/><text fill="#FFFFFF" font-family="sans-serif" font-size="14" lengthAdjust="spacing" textLength="124" x="2249" y="911.4951">String getName()</text><ellipse cx="2240" cy="924.4453" fill="#595959" rx="3" ry="3" style="stroke:#ABABAB;stroke-width:1.0;"/><text fill="#FFFFFF" font-family="sans-serif" font-size="14" lengthAdjust="spacing" textLength="148" x="2249" y="927.792">Shape selectShape()</text><ellipse cx="2240" cy="940.7422" fill="#595959" rx="3" ry="3" style="stroke:#ABABAB;stroke-width:1.0;"/><text fill="#FFFFFF" font-family="sans-serif" font-size="14" lengthAdjust="spacing" textLength="264" x="2249" y="944.0889">static String getRandomString(int n)</text></g><!--class PlayerAdminView--><g id="elem_PlayerAdminView"><rect codeLine="153" fill="#0E0E0E" height="162.0781" id="PlayerAdminView" rx="2.5" ry="2.5" style="stroke:#E7E7E7;stroke-width:0.5;" width="369" x="1824.5" y="822"/><ellipse cx="1942.75" cy="838" fill="#3D3D3D" rx="11" ry="11" style="stroke:#E7E7E7;stroke-width:1.0;"/><path d="M1945.0938,833.6719 C1944.1563,833.2344 1943.5625,833.0938 1942.6875,833.0938 C1940.0625,833.0938 1938.0625,835.1719 1938.0625,837.8906 L1938.0625,839.0156 C1938.0625,841.5938 1940.1719,843.4844 1943.0625,843.4844 C1944.2813,843.4844 1945.4375,843.1875 1946.1875,842.6406 C1946.7656,842.2344 1947.0938,841.7813 1947.0938,841.3906 C1947.0938,840.9375 1946.7031,840.5469 1946.2344,840.5469 C1946.0156,840.5469 1945.8125,840.625 1945.625,840.8125 C1945.1719,841.2969 1945.1719,841.2969 1944.9844,841.3906 C1944.5625,841.6563 1943.875,841.7813 1943.1094,841.7813 C1941.0625,841.7813 1939.7656,840.6875 1939.7656,838.9844 L1939.7656,837.8906 C1939.7656,836.1094 1941.0156,834.7969 1942.75,834.7969 C1943.3281,834.7969 1943.9375,834.9531 1944.4063,835.2031 C1944.8906,835.4844 1945.0625,835.7031 1945.1563,836.1094 C1945.2188,836.5156 1945.25,836.6406 1945.3906,836.7656 C1945.5313,836.9063 1945.7656,837.0156 1945.9844,837.0156 C1946.25,837.0156 1946.5156,836.875 1946.6875,836.6563 C1946.7969,836.5 1946.8281,836.3125 1946.8281,835.8906 L1946.8281,834.4688 C1946.8281,834.0313 1946.8125,833.9063 1946.7188,833.75 C1946.5625,833.4844 1946.2813,833.3438 1945.9844,833.3438 C1945.6875,833.3438 1945.4844,833.4375 1945.2656,833.75 L1945.0938,833.6719 Z " fill="#FFFFFF"/><text fill="#FFFFFF" font-family="sans-serif" font-size="14" lengthAdjust="spacing" textLength="124" x="1963.25" y="842.8467">PlayerAdminView</text><line style="stroke:#E7E7E7;stroke-width:0.5;" x1="1825.5" x2="2192.5" y1="854" y2="854"/><ellipse cx="1835.5" cy="867.6484" fill="none" rx="3" ry="3" style="stroke:#ABABAB;stroke-width:1.0;"/><text fill="#FFFFFF" font-family="sans-serif" font-size="14" lengthAdjust="spacing" textLength="197" x="1844.5" y="870.9951">void duplicateErrorMassage</text><line style="stroke:#E7E7E7;stroke-width:0.5;" x1="1825.5" x2="2192.5" y1="878.2969" y2="878.2969"/><ellipse cx="1835.5" cy="891.9453" fill="#595959" rx="3" ry="3" style="stroke:#ABABAB;stroke-width:1.0;"/><text fill="#FFFFFF" font-family="sans-serif" font-size="14" lengthAdjust="spacing" textLength="141" x="1844.5" y="895.292">int showMainMenu()</text><rect fill="#7F7F7F" height="6" style="stroke:#A6A6A6;stroke-width:1.0;" width="6" x="1832.5" y="905.2422"/><text fill="#FFFFFF" font-family="sans-serif" font-size="14" lengthAdjust="spacing" textLength="218" x="1844.5" y="911.5889">PlayerType selectPlayerType()</text><ellipse cx="1835.5" cy="924.5391" fill="#595959" rx="3" ry="3" style="stroke:#ABABAB;stroke-width:1.0;"/><text fill="#FFFFFF" font-family="sans-serif" font-size="14" lengthAdjust="spacing" textLength="153" x="1844.5" y="927.8857">Player setPlayerInfo()</text><ellipse cx="1835.5" cy="940.8359" fill="#595959" rx="3" ry="3" style="stroke:#ABABAB;stroke-width:1.0;"/><text fill="#FFFFFF" font-family="sans-serif" font-size="14" lengthAdjust="spacing" textLength="206" x="1844.5" y="944.1826">void existingPlayerMessage()</text><ellipse cx="1835.5" cy="957.1328" fill="#595959" rx="3" ry="3" style="stroke:#ABABAB;stroke-width:1.0;"/><text fill="#FFFFFF" font-family="sans-serif" font-size="14" lengthAdjust="spacing" textLength="335" x="1844.5" y="960.4795">void showPlayers(ArraList&lt;Player&gt; playersList)</text><ellipse cx="1835.5" cy="973.4297" fill="#595959" rx="3" ry="3" style="stroke:#ABABAB;stroke-width:1.0;"/><text fill="#FFFFFF" font-family="sans-serif" font-size="14" lengthAdjust="spacing" textLength="343" x="1844.5" y="976.7764">String selectGamePlayers(int numberOfPlayers)</text></g><!--class PlayerViewFactory--><g id="elem_PlayerViewFactory"><rect codeLine="162" fill="#0E0E0E" height="64.2969" id="PlayerViewFactory" rx="2.5" ry="2.5" style="stroke:#E7E7E7;stroke-width:0.5;" width="431" x="1824.5" y="1107.5"/><ellipse cx="1969.75" cy="1123.5" fill="#3D3D3D" rx="11" ry="11" style="stroke:#E7E7E7;stroke-width:1.0;"/><path d="M1972.0938,1119.1719 C1971.1563,1118.7344 1970.5625,1118.5938 1969.6875,1118.5938 C1967.0625,1118.5938 1965.0625,1120.6719 1965.0625,1123.3906 L1965.0625,1124.5156 C1965.0625,1127.0938 1967.1719,1128.9844 1970.0625,1128.9844 C1971.2813,1128.9844 1972.4375,1128.6875 1973.1875,1128.1406 C1973.7656,1127.7344 1974.0938,1127.2813 1974.0938,1126.8906 C1974.0938,1126.4375 1973.7031,1126.0469 1973.2344,1126.0469 C1973.0156,1126.0469 1972.8125,1126.125 1972.625,1126.3125 C1972.1719,1126.7969 1972.1719,1126.7969 1971.9844,1126.8906 C1971.5625,1127.1563 1970.875,1127.2813 1970.1094,1127.2813 C1968.0625,1127.2813 1966.7656,1126.1875 1966.7656,1124.4844 L1966.7656,1123.3906 C1966.7656,1121.6094 1968.0156,1120.2969 1969.75,1120.2969 C1970.3281,1120.2969 1970.9375,1120.4531 1971.4063,1120.7031 C1971.8906,1120.9844 1972.0625,1121.2031 1972.1563,1121.6094 C1972.2188,1122.0156 1972.25,1122.1406 1972.3906,1122.2656 C1972.5313,1122.4063 1972.7656,1122.5156 1972.9844,1122.5156 C1973.25,1122.5156 1973.5156,1122.375 1973.6875,1122.1563 C1973.7969,1122 1973.8281,1121.8125 1973.8281,1121.3906 L1973.8281,1119.9688 C1973.8281,1119.5313 1973.8125,1119.4063 1973.7188,1119.25 C1973.5625,1118.9844 1973.2813,1118.8438 1972.9844,1118.8438 C1972.6875,1118.8438 1972.4844,1118.9375 1972.2656,1119.25 L1972.0938,1119.1719 Z " fill="#FFFFFF"/><text fill="#FFFFFF" font-family="sans-serif" font-size="14" lengthAdjust="spacing" textLength="132" x="1990.25" y="1128.3467">PlayerViewFactory</text><line style="stroke:#E7E7E7;stroke-width:0.5;" x1="1825.5" x2="2254.5" y1="1139.5" y2="1139.5"/><line style="stroke:#E7E7E7;stroke-width:0.5;" x1="1825.5" x2="2254.5" y1="1147.5" y2="1147.5"/><ellipse cx="1835.5" cy="1161.1484" fill="#595959" rx="3" ry="3" style="stroke:#ABABAB;stroke-width:1.0;"/><text fill="#FFFFFF" font-family="sans-serif" font-size="14" lengthAdjust="spacing" textLength="405" x="1844.5" y="1164.4951">static PlayerView getPlayerView(PlayerType playerType)</text></g><!--link RPSGame to Player--><g id="link_RPSGame_Player"><path codeLine="184" d="M824.12,1188.131 C819.137,1209.949 813.173,1236.06 807.871,1259.27 " fill="none" id="RPSGame-to-Player" style="stroke:#E7E7E7;stroke-width:1.0;"/><polygon fill="#E7E7E7" points="806.751,1264.177,812.6561,1256.2948,807.8653,1259.3027,804.8573,1254.5119,806.751,1264.177" style="stroke:#E7E7E7;stroke-width:1.0;"/></g><!--link RPSGame to Round--><g id="link_RPSGame_Round"><path codeLine="185" d="M757.242,1170.857 C709.131,1190.689 646.703,1218.343 594,1248 C582.409,1254.522 570.482,1261.988 559.027,1269.586 " fill="none" id="RPSGame-to-Round" style="stroke:#E7E7E7;stroke-width:1.0;"/><polygon fill="#E7E7E7" points="554.829,1272.39,564.5349,1270.7182,558.9871,1269.6132,560.0921,1264.0653,554.829,1272.39" style="stroke:#E7E7E7;stroke-width:1.0;"/></g><!--reverse link Statistics to StatisticItem--><g id="link_Statistics_StatisticItem"><path codeLine="186" d="M1453.62,1191.953 C1443.35,1209.336 1431.69,1229.078 1420.66,1247.766 " fill="none" id="Statistics-backto-StatisticItem" style="stroke:#E7E7E7;stroke-width:1.0;"/><polygon fill="#E7E7E7" points="1460.48,1180.337,1453.9839,1183.4675,1454.3751,1190.668,1460.8712,1187.5375,1460.48,1180.337" style="stroke:#E7E7E7;stroke-width:1.0;"/></g><!--reverse link RSPGameController to RPSGame--><g id="link_RSPGameController_RPSGame"><path codeLine="188" d="M1531.21,491.858 C1688.88,634.226 1905.69,879.274 1748,1040 C1739.83,1048.329 1339.61,1046.832 1328,1048 C1179.73,1062.921 1009.22,1098.377 912.568,1120.218 " fill="none" id="RSPGameController-backto-RPSGame" style="stroke:#E7E7E7;stroke-width:1.0;"/><polygon fill="#E7E7E7" points="1521.39,483.053,1523.1844,490.0373,1530.3216,491.0672,1528.5272,484.0829,1521.39,483.053" style="stroke:#E7E7E7;stroke-width:1.0;"/></g><!--reverse link RSPGameController to PlayerController--><g id="link_RSPGameController_PlayerController"><path codeLine="189" d="M1201.43,380.29 C991.99,386.79 675.977,411.5 600,500 C563.234,542.828 581.034,700.837 600,754 C607.528,775.1 619.498,795.362 633.044,813.762 " fill="none" id="RSPGameController-backto-PlayerController" style="stroke:#E7E7E7;stroke-width:1.0;"/><polygon fill="#E7E7E7" points="1214.44,379.91,1208.324,376.0897,1202.4453,380.2659,1208.5613,384.0862,1214.44,379.91" style="stroke:#E7E7E7;stroke-width:1.0;"/></g><!--reverse link RSPGameController to RoundController--><g id="link_RSPGameController_RoundController"><path codeLine="190" d="M1201.36,386.76 C1029.5,398.74 772.435,428.1 560,500 C521.722,512.956 482.576,531.401 446.525,550.88 " fill="none" id="RSPGameController-backto-RoundController" style="stroke:#E7E7E7;stroke-width:1.0;"/><polygon fill="#E7E7E7" points="1214.36,385.87,1208.1014,382.288,1202.3879,386.6875,1208.6464,390.2694,1214.36,385.87" style="stroke:#E7E7E7;stroke-width:1.0;"/></g><!--reverse link RSPGameController to StatisticController--><g id="link_RSPGameController_StatisticController"><path codeLine="191" d="M1437.04,495.53 C1476.88,601.389 1534.04,753.304 1566.01,838.262 " fill="none" id="RSPGameController-backto-StatisticController" style="stroke:#E7E7E7;stroke-width:1.0;"/><polygon fill="#E7E7E7" points="1432.39,483.18,1430.7586,490.2042,1436.615,494.4116,1438.2464,487.3875,1432.39,483.18" style="stroke:#E7E7E7;stroke-width:1.0;"/></g><!--reverse link RoundController to Round--><g id="link_RoundController_Round"><path codeLine="192" d="M326.834,758.96 C369.965,907.264 445.127,1165.707 476.076,1272.122 " fill="none" id="RoundController-backto-Round" style="stroke:#E7E7E7;stroke-width:1.0;"/><polygon fill="#E7E7E7" points="323.146,746.28,320.9805,753.1583,326.4968,757.8027,328.6623,750.9244,323.146,746.28" style="stroke:#E7E7E7;stroke-width:1.0;"/></g><!--link RoundController to PlayerController--><g id="link_RoundController_PlayerController"><path codeLine="193" d="M515.126,746.075 C534.709,756.555 553.939,767.583 572,779 C587.032,788.502 602.228,799.344 616.875,810.562 " fill="none" id="RoundController-to-PlayerController" style="stroke:#E7E7E7;stroke-width:1.0;"/><polygon fill="#E7E7E7" points="620.992,813.736,616.3064,805.0731,617.0321,810.6832,611.422,811.4089,620.992,813.736" style="stroke:#E7E7E7;stroke-width:1.0;"/></g><!--link RoundController to StatisticController--><g id="link_RoundController_StatisticController"><path codeLine="194" d="M526.644,746.044 C537.822,749.058 548.978,751.741 560,754 C654.737,773.418 1338.9,746.562 1430,779 C1463.66,790.986 1495.9,812.942 1522.5,835.023 " fill="none" id="RoundController-to-StatisticController" style="stroke:#E7E7E7;stroke-width:1.0;"/><polygon fill="#E7E7E7" points="1526.38,838.281,1522.0575,829.4314,1522.55,835.0667,1516.9147,835.5593,1526.38,838.281" style="stroke:#E7E7E7;stroke-width:1.0;"/></g><!--link ComputerController to PlayerController--><g id="link_ComputerController_PlayerController"><path codeLine="195" d="M724.243,697.29 C723.81,724.591 723.249,760.002 722.716,793.676 " fill="none" id="ComputerController-to-PlayerController" style="stroke:#E7E7E7;stroke-width:1.0;"/><polygon fill="none" points="729.714,793.89,722.398,813.777,715.715,793.668,729.714,793.89" style="stroke:#E7E7E7;stroke-width:1.0;"/></g><!--link HumanController to PlayerController--><g id="link_HumanController_PlayerController"><path codeLine="196" d="M926.115,697.29 C897.219,726.129 859.256,764.018 823.854,799.349 " fill="none" id="HumanController-to-PlayerController" style="stroke:#E7E7E7;stroke-width:1.0;"/><polygon fill="none" points="828.499,804.603,809.398,813.777,818.609,794.694,828.499,804.603" style="stroke:#E7E7E7;stroke-width:1.0;"/></g><!--link RSPGameController to RSPGameView--><g id="link_RSPGameController_RSPGameView"><path codeLine="197" d="M1571.53,422.84 C1766.45,471.259 2077.66,548.558 2279.42,598.673 " fill="none" id="RSPGameController-to-RSPGameView" style="stroke:#E7E7E7;stroke-width:1.0;"/><polygon fill="#E7E7E7" points="2284.47,599.926,2276.6933,593.8825,2279.6162,598.7258,2274.773,601.6486,2284.47,599.926" style="stroke:#E7E7E7;stroke-width:1.0;"/></g><!--reverse link RPSApp to RSPGameController--><g id="link_RPSApp_RSPGameController"><path codeLine="199" d="M1393,210.2 C1393,229.53 1393,251 1393,271.92 " fill="none" id="RPSApp-backto-RSPGameController" style="stroke:#E7E7E7;stroke-width:1.0;"/><polygon fill="#E7E7E7" points="1393,197.19,1389,203.19,1393,209.19,1397,203.19,1393,197.19" style="stroke:#E7E7E7;stroke-width:1.0;"/></g><!--link RSPGameView to RoundView--><g id="link_RSPGameView_RoundView"><path codeLine="201" d="M2582.69,697.038 C2632.5,720.247 2692.12,749.489 2744,779 C2782.81,801.075 2824.39,828.222 2858.38,851.391 " fill="none" id="RSPGameView-to-RoundView" style="stroke:#E7E7E7;stroke-width:1.0;stroke-dasharray:7.0,7.0;"/><polygon fill="#E7E7E7" points="2862.92,854.487,2857.7364,846.1126,2858.7886,851.6708,2853.2304,852.7229,2862.92,854.487" style="stroke:#E7E7E7;stroke-width:1.0;"/></g><!--link RoundView to PlayerView--><g id="link_RoundView_PlayerView"><path codeLine="202" d="M2869.52,951.58 C2833.86,978.773 2787.36,1012.773 2744,1040 C2737.6,1044.018 2735.39,1043.973 2729,1048 C2705.87,1062.572 2681.41,1080.09 2660.45,1095.815 " fill="none" id="RoundView-to-PlayerView" style="stroke:#E7E7E7;stroke-width:1.0;stroke-dasharray:7.0,7.0;"/><polygon fill="#E7E7E7" points="2656.31,1098.935,2665.9034,1096.7065,2660.3011,1095.9231,2661.0844,1090.3208,2656.31,1098.935" style="stroke:#E7E7E7;stroke-width:1.0;"/></g><!--link RoundView to StatisticView--><g id="link_RoundView_StatisticView"><path codeLine="203" d="M2935.29,951.737 C2940.22,996.209 2947.47,1061.562 2951.95,1101.999 " fill="none" id="RoundView-to-StatisticView" style="stroke:#E7E7E7;stroke-width:1.0;stroke-dasharray:7.0,7.0;"/><polygon fill="#E7E7E7" points="2952.54,1107.291,2955.5234,1097.9049,2951.9888,1102.3215,2947.5722,1098.7868,2952.54,1107.291" style="stroke:#E7E7E7;stroke-width:1.0;"/></g><!--link HumanPlayerView to PlayerView--><g id="link_HumanPlayerView_PlayerView"><path codeLine="205" d="M2635.1,943.515 C2629.57,980.559 2621.23,1036.447 2614.89,1078.905 " fill="none" id="HumanPlayerView-to-PlayerView" style="stroke:#E7E7E7;stroke-width:1.0;"/><polygon fill="none" points="2621.8,1080.076,2611.92,1098.823,2607.95,1078.009,2621.8,1080.076" style="stroke:#E7E7E7;stroke-width:1.0;"/></g><!--link ComputerPlayerView to PlayerView--><g id="link_ComputerPlayerView_PlayerView"><path codeLine="206" d="M2421.23,951.737 C2459.38,990.295 2513.05,1044.55 2552.73,1084.653 " fill="none" id="ComputerPlayerView-to-PlayerView" style="stroke:#E7E7E7;stroke-width:1.0;"/><polygon fill="none" points="2557.83,1079.859,2566.92,1099,2547.88,1089.705,2557.83,1079.859" style="stroke:#E7E7E7;stroke-width:1.0;"/></g><!--link PlayerAdminView to PlayerViewFactory--><g id="link_PlayerAdminView_PlayerViewFactory"><path codeLine="208" d="M2019.58,984.046 C2024.87,1024.056 2031.01,1070.515 2035.17,1101.947 " fill="none" id="PlayerAdminView-to-PlayerViewFactory" style="stroke:#E7E7E7;stroke-width:1.0;"/><polygon fill="#E7E7E7" points="2035.87,1107.248,2038.6552,1097.8012,2035.2143,1102.2912,2030.7243,1098.8503,2035.87,1107.248" style="stroke:#E7E7E7;stroke-width:1.0;"/></g><!--link PlayerAdminController to PlayerAdminView--><g id="link_PlayerAdminController_PlayerAdminView"><path codeLine="209" d="M1414.12,682.235 C1510.31,705.232 1637.67,738.973 1747,779 C1779.38,790.855 1813.23,805.193 1845.43,819.831 " fill="none" id="PlayerAdminController-to-PlayerAdminView" style="stroke:#E7E7E7;stroke-width:1.0;"/><polygon fill="#E7E7E7" points="1850.17,821.993,1843.6554,814.6065,1845.6248,819.9095,1840.3218,821.8788,1850.17,821.993" style="stroke:#E7E7E7;stroke-width:1.0;"/></g><!--link PlayerAdminController to PlayerControllerFactory--><g id="link_PlayerAdminController_PlayerControllerFactory"><path codeLine="210" d="M1220.88,754.024 C1203.66,793.911 1185.15,836.78 1172.52,866.056 " fill="none" id="PlayerAdminController-to-PlayerControllerFactory" style="stroke:#E7E7E7;stroke-width:1.0;"/><polygon fill="#E7E7E7" points="1170.38,870.998,1177.6234,864.3247,1172.3644,866.4087,1170.2805,861.1496,1170.38,870.998" style="stroke:#E7E7E7;stroke-width:1.0;"/></g><!--reverse link RSPGameController to PlayerAdminController--><g id="link_RSPGameController_PlayerAdminController"><path codeLine="211" d="M1337.89,495.233 C1330.46,510.976 1322.87,527.05 1315.54,542.571 " fill="none" id="RSPGameController-backto-PlayerAdminController" style="stroke:#E7E7E7;stroke-width:1.0;"/><polygon fill="#E7E7E7" points="1343.53,483.273,1337.3515,486.9913,1338.4074,494.1247,1344.5859,490.4064,1343.53,483.273" style="stroke:#E7E7E7;stroke-width:1.0;"/></g><!--reverse link StatisticController to Statistics--><g id="link_StatisticController_Statistics"><path codeLine="212" d="M1555.74,979.797 C1537.84,1019.381 1516.68,1066.2 1502,1098.681 " fill="none" id="StatisticController-backto-Statistics" style="stroke:#E7E7E7;stroke-width:1.0;"/><polygon fill="#E7E7E7" points="1561.18,967.768,1555.0648,971.5895,1556.2403,978.7041,1562.3555,974.8826,1561.18,967.768" style="stroke:#E7E7E7;stroke-width:1.0;"/></g><!--reverse link PlayerController to Player--><g id="link_PlayerController_Player"><path codeLine="213" d="M714.892,1005.366 C713.892,1070.343 718.069,1155.741 740,1228 C743.711,1240.228 749.345,1252.548 755.595,1264.022 " fill="none" id="PlayerController-backto-Player" style="stroke:#E7E7E7;stroke-width:1.0;"/><polygon fill="#E7E7E7" points="715.168,992.239,711.0423,998.1533,714.9148,1004.2363,719.0405,998.3221,715.168,992.239" style="stroke:#E7E7E7;stroke-width:1.0;"/></g><!--SRC=[pLXBR-Cs4BxhLmZeHQxZ1Thh5W4SDzqDkauCAxjxA7fW9COc8f42ASSRfFxlvKCItugys0BrGHQ7m-4td27dezWJmWsWe4vhWacnfwI6AONFa3AODA1u0ZlU9iLJ0nekAn1ZXBucAVyL5M0itMxoPTCeYVWjkE03u4Ps_E59LmItb5GLfB9VDvD1TQuiPZCjUIQeJE4tM1nQAAnqVIVvx47Mf8ILng7GRIhm0gcMIYnvIn7UfTW4A3iGRbDM4Eg8bP7xbmQcBNyaLkzSzMQ6qOjqC7IHEeErLoS7wfOSSFaQcZbjvDzofE_Axdj465GIHKjQK4dJB3wpYeqpjnp4Gy-VjiCo6XWUFxZhDrT3Th2LBrdSrxm5BM8jAfWpwP9IyFA9T_qsgDoqiBvCsJ32dd9GcpARCFNgXzptiK-HuCBdUxuL-YxP61bx5HzxfSP6_15Oim7THMeZucqFXQDpPUkesTn5EYNM7Yg6_QYNgUzh0bl9t6JBiaPu5J0G2AuQSTdPP4BcgoibRV6lltjzBMFUi6u_ScMUXo95LPibCKq7jv57TiOZZ5hZyB6WIWLGbjrPC8ivap88QB7lr3ePtqhgRU8muwI9GM6cwo4u3uHK4E0Kq7vzVZyq5If02vcZVqgY8TUhzWSeMa9V_A3FvSOjl04YEguistmQpifcE3P7qO07rb8-TmJMQtH5bNsl-wTkDRuWUEnqn6jCpu4QpR7nz1gSKFkLmGeMhNmVrTuCy6HkwkQ4KHAu7YMQ8ubVK0WOp4L1cv8S7myr63q9vfCSZVeNKmquzJRO5QaRJYle_n9l0Bb15cAGLUcMG6Z_DgssBxhTEjIT5N-qpZw97ym6dNCgObVKZFtFV5aIO1FHdQDoiuGS7J-_-Rdr5M6i3zMXJjeqAMGZSh3F-vCqW3wRwD5i98BvnYR4RWn3DDhiaV7TTI-X03c5hLyIMvgSNN83cMHCGkts3ya3z-gGcMiJ2TgXoSwFzS0niv701PmudyI-ZooC32epM-zZ136-CpWHqRJOWf0Y_d2qsPuSyx3d0OPuQ55baFPhVAXLsRBNO7kt-jCIvAkRFB_RMhBDSdEzTTph3g2UdnmHPbzHky-w4rWyV-c9hMpz6kBz4fO-LMri7p-lbxUMP7Ltk_byVxtrN3SzV-R1E9yLVx561Kg-8dES3Ts6kULqTd2AbU9H96y3-9vv-whw7qzjfeosjWMu9BLgooiKVXkmSMH6qCexFTyhQu3m6k93dENBkgv0ZzEhWTrtUZVuaKHf6FmcTYZUATKrP8pdNrHR8EsuR2REezYrQnODYtB0k46ffJpK3v3UFNQosFHbVvkuffJGDP1W9mP1hF_4-uIgWT3ala5YFflCgrHLzbEWdrTw9mndzeLSPF25VV- -ZLKd7XgRh1nbAwOh4exhb-GuLfO6plUQX797VZjJdsNyZmfu1AaSSmxSUmIdV8i9BR5TYIQKKRzOyNNfsS5YSTcbYIMI3YLwdlJdnSB-HCHDkEHCAdLM8hqkTuePSGXIM2jGvHENQWtMl1xj-SXmeHIQnhyGSTL_0WQTQrv4o_TF1a7lCncmPTCeVrpj8HPogxzxTwaJFT7N724txbjsXvLoIUAKH1EsLF1BbwUIEDN2M73Zy4h2D5ph3kFVrFG-j8pce4lnGxJRIZAMU9zdjBL_0G00]--></g></svg>