<?xml version="1.0" encoding="us-ascii" standalone="no"?><svg xmlns="http://www.w3.org/2000/svg" xmlns:xlink="http://www.w3.org/1999/xlink" contentStyleType="text/css" height="1474px" preserveAspectRatio="none" style="width:3205px;height:1474px;background:#000000;" version="1.1" viewBox="0 0 3205 1474" width="3205px" zoomAndPan="magnify"><defs/><g><!--cluster rockpaperscissor--><g id="cluster_rockpaperscissor"><path d="M8.5,6 L148.5,6 A3.75,3.75 0 0 1 151,8.5 L158,28.2969 L3195.5,28.2969 A2.5,2.5 0 0 1 3198,30.7969 L3198,1464.5 A2.5,2.5 0 0 1 3195.5,1467 L8.5,1467 A2.5,2.5 0 0 1 6,1464.5 L6,8.5 A2.5,2.5 0 0 1 8.5,6 " fill="none" style="stroke:#FFFFFF;stroke-width:1.5;"/><line style="stroke:#FFFFFF;stroke-width:1.5;" x1="6" x2="158" y1="28.2969" y2="28.2969"/><text fill="#FFFFFF" font-family="sans-serif" font-size="14" font-weight="bold" lengthAdjust="spacing" textLength="139" x="10" y="20.9951">rockpaperscissor</text></g><!--cluster model--><g id="cluster_model"><path d="M404.5,1089 L454.5,1089 A3.75,3.75 0 0 1 457,1091.5 L464,1111.2969 L1771.5,1111.2969 A2.5,2.5 0 0 1 1774,1113.7969 L1774,1440.5 A2.5,2.5 0 0 1 1771.5,1443 L404.5,1443 A2.5,2.5 0 0 1 402,1440.5 L402,1091.5 A2.5,2.5 0 0 1 404.5,1089 " fill="none" style="stroke:#FFFFFF;stroke-width:1.5;"/><line style="stroke:#FFFFFF;stroke-width:1.5;" x1="402" x2="464" y1="1111.2969" y2="1111.2969"/><text fill="#FFFFFF" font-family="sans-serif" font-size="14" font-weight="bold" lengthAdjust="spacing" textLength="49" x="406" y="1103.9951">model</text></g><!--cluster controller--><g id="cluster_controller"><path d="M32.5,237 L113.5,237 A3.75,3.75 0 0 1 116,239.5 L123,259.2969 L1758.5,259.2969 A2.5,2.5 0 0 1 1761,261.7969 L1761,1062.5 A2.5,2.5 0 0 1 1758.5,1065 L32.5,1065 A2.5,2.5 0 0 1 30,1062.5 L30,239.5 A2.5,2.5 0 0 1 32.5,237 " fill="none" style="stroke:#FFFFFF;stroke-width:1.5;"/><line style="stroke:#FFFFFF;stroke-width:1.5;" x1="30" x2="123" y1="259.2969" y2="259.2969"/><text fill="#FFFFFF" font-family="sans-serif" font-size="14" font-weight="bold" lengthAdjust="spacing" textLength="80" x="34" y="251.9951">controller</text></g><!--cluster player--><g id="cluster_player"><path d="M576.5,516 L627.5,516 A3.75,3.75 0 0 1 630,518.5 L637,538.2969 L1441.5,538.2969 A2.5,2.5 0 0 1 1444,540.7969 L1444,1038.5 A2.5,2.5 0 0 1 1441.5,1041 L576.5,1041 A2.5,2.5 0 0 1 574,1038.5 L574,518.5 A2.5,2.5 0 0 1 576.5,516 " fill="none" style="stroke:#FFFFFF;stroke-width:1.5;"/><line style="stroke:#FFFFFF;stroke-width:1.5;" x1="574" x2="637" y1="538.2969" y2="538.2969"/><text fill="#FFFFFF" font-family="sans-serif" font-size="14" font-weight="bold" lengthAdjust="spacing" textLength="50" x="578" y="530.9951">player</text></g><!--cluster utils--><g id="cluster_utils"><path d="M2075.5,49 L2113.5,49 A3.75,3.75 0 0 1 2116,51.5 L2123,71.2969 L2667.5,71.2969 A2.5,2.5 0 0 1 2670,73.7969 L2670,210.5 A2.5,2.5 0 0 1 2667.5,213 L2075.5,213 A2.5,2.5 0 0 1 2073,210.5 L2073,51.5 A2.5,2.5 0 0 1 2075.5,49 " fill="none" style="stroke:#FFFFFF;stroke-width:1.5;"/><line style="stroke:#FFFFFF;stroke-width:1.5;" x1="2073" x2="2123" y1="71.2969" y2="71.2969"/><text fill="#FFFFFF" font-family="sans-serif" font-size="14" font-weight="bold" lengthAdjust="spacing" textLength="37" x="2077" y="63.9951">utils</text></g><!--cluster view--><g id="cluster_view"><path d="M1800.5,573 L1837.5,573 A3.75,3.75 0 0 1 1840,575.5 L1847,595.2969 L3171.5,595.2969 A2.5,2.5 0 0 1 3174,597.7969 L3174,1250.5 A2.5,2.5 0 0 1 3171.5,1253 L1800.5,1253 A2.5,2.5 0 0 1 1798,1250.5 L1798,575.5 A2.5,2.5 0 0 1 1800.5,573 " fill="none" style="stroke:#FFFFFF;stroke-width:1.5;"/><line style="stroke:#FFFFFF;stroke-width:1.5;" x1="1798" x2="1847" y1="595.2969" y2="595.2969"/><text fill="#FFFFFF" font-family="sans-serif" font-size="14" font-weight="bold" lengthAdjust="spacing" textLength="36" x="1802" y="587.9951">view</text></g><!--cluster player--><g id="cluster_player"><path d="M1824.5,811.5 L1875.5,811.5 A3.75,3.75 0 0 1 1878,814 L1885,833.7969 L2747.5,833.7969 A2.5,2.5 0 0 1 2750,836.2969 L2750,1226.5 A2.5,2.5 0 0 1 2747.5,1229 L1824.5,1229 A2.5,2.5 0 0 1 1822,1226.5 L1822,814 A2.5,2.5 0 0 1 1824.5,811.5 " fill="none" style="stroke:#FFFFFF;stroke-width:1.5;"/><line style="stroke:#FFFFFF;stroke-width:1.5;" x1="1822" x2="1885" y1="833.7969" y2="833.7969"/><text fill="#FFFFFF" font-family="sans-serif" font-size="14" font-weight="bold" lengthAdjust="spacing" textLength="50" x="1826" y="826.4951">player</text></g><!--class RPSApp--><g id="elem_RPSApp"><rect codeLine="3" fill="#0E0E0E" height="113.1875" id="RPSApp" rx="2.5" ry="2.5" style="stroke:#E7E7E7;stroke-width:0.5;" width="286" x="1264" y="84"/><ellipse cx="1373.75" cy="100" fill="#3D3D3D" rx="11" ry="11" style="stroke:#E7E7E7;stroke-width:1.0;"/><path d="M1376.0938,95.6719 C1375.1563,95.2344 1374.5625,95.0938 1373.6875,95.0938 C1371.0625,95.0938 1369.0625,97.1719 1369.0625,99.8906 L1369.0625,101.0156 C1369.0625,103.5938 1371.1719,105.4844 1374.0625,105.4844 C1375.2813,105.4844 1376.4375,105.1875 1377.1875,104.6406 C1377.7656,104.2344 1378.0938,103.7813 1378.0938,103.3906 C1378.0938,102.9375 1377.7031,102.5469 1377.2344,102.5469 C1377.0156,102.5469 1376.8125,102.625 1376.625,102.8125 C1376.1719,103.2969 1376.1719,103.2969 1375.9844,103.3906 C1375.5625,103.6563 1374.875,103.7813 1374.1094,103.7813 C1372.0625,103.7813 1370.7656,102.6875 1370.7656,100.9844 L1370.7656,99.8906 C1370.7656,98.1094 1372.0156,96.7969 1373.75,96.7969 C1374.3281,96.7969 1374.9375,96.9531 1375.4063,97.2031 C1375.8906,97.4844 1376.0625,97.7031 1376.1563,98.1094 C1376.2188,98.5156 1376.25,98.6406 1376.3906,98.7656 C1376.5313,98.9063 1376.7656,99.0156 1376.9844,99.0156 C1377.25,99.0156 1377.5156,98.875 1377.6875,98.6563 C1377.7969,98.5 1377.8281,98.3125 1377.8281,97.8906 L1377.8281,96.4688 C1377.8281,96.0313 1377.8125,95.9063 1377.7188,95.75 C1377.5625,95.4844 1377.2813,95.3438 1376.9844,95.3438 C1376.6875,95.3438 1376.4844,95.4375 1376.2656,95.75 L1376.0938,95.6719 Z " fill="#FFFFFF"/><text fill="#FFFFFF" font-family="sans-serif" font-size="14" lengthAdjust="spacing" textLength="58" x="1394.25" y="104.8467">RPSApp</text><line style="stroke:#E7E7E7;stroke-width:0.5;" x1="1265" x2="1549" y1="116" y2="116"/><rect fill="none" height="6" style="stroke:#A6A6A6;stroke-width:1.0;" width="6" x="1272" y="126.6484"/><text fill="#FFFFFF" font-family="sans-serif" font-size="14" lengthAdjust="spacing" textLength="114" x="1284" y="132.9951">RPSGame game</text><rect fill="none" height="6" style="stroke:#A6A6A6;stroke-width:1.0;" width="6" x="1272" y="142.9453"/><text fill="#FFFFFF" font-family="sans-serif" font-size="14" lengthAdjust="spacing" textLength="260" x="1284" y="149.292">RPSGameController gameController</text><line style="stroke:#E7E7E7;stroke-width:0.5;" x1="1265" x2="1549" y1="156.5938" y2="156.5938"/><ellipse cx="1275" cy="170.2422" fill="#595959" rx="3" ry="3" style="stroke:#ABABAB;stroke-width:1.0;"/><text fill="#FFFFFF" font-family="sans-serif" font-size="14" lengthAdjust="spacing" textLength="68" x="1284" y="173.5889">RPSApp()</text><ellipse cx="1275" cy="186.5391" fill="#595959" rx="3" ry="3" style="stroke:#ABABAB;stroke-width:1.0;"/><text fill="#FFFFFF" font-family="sans-serif" font-size="14" lengthAdjust="spacing" textLength="144" x="1284" y="189.8857">void executeGame()</text></g><!--class Player--><g id="elem_Player"><rect codeLine="11" fill="#0E0E0E" height="113.1875" id="Player" rx="2.5" ry="2.5" style="stroke:#E7E7E7;stroke-width:0.5;" width="365" x="625.5" y="1297.5"/><ellipse cx="781.75" cy="1313.5" fill="#3D3D3D" rx="11" ry="11" style="stroke:#E7E7E7;stroke-width:1.0;"/><path d="M784.0938,1309.1719 C783.1563,1308.7344 782.5625,1308.5938 781.6875,1308.5938 C779.0625,1308.5938 777.0625,1310.6719 777.0625,1313.3906 L777.0625,1314.5156 C777.0625,1317.0938 779.1719,1318.9844 782.0625,1318.9844 C783.2813,1318.9844 784.4375,1318.6875 785.1875,1318.1406 C785.7656,1317.7344 786.0938,1317.2813 786.0938,1316.8906 C786.0938,1316.4375 785.7031,1316.0469 785.2344,1316.0469 C785.0156,1316.0469 784.8125,1316.125 784.625,1316.3125 C784.1719,1316.7969 784.1719,1316.7969 783.9844,1316.8906 C783.5625,1317.1563 782.875,1317.2813 782.1094,1317.2813 C780.0625,1317.2813 778.7656,1316.1875 778.7656,1314.4844 L778.7656,1313.3906 C778.7656,1311.6094 780.0156,1310.2969 781.75,1310.2969 C782.3281,1310.2969 782.9375,1310.4531 783.4063,1310.7031 C783.8906,1310.9844 784.0625,1311.2031 784.1563,1311.6094 C784.2188,1312.0156 784.25,1312.1406 784.3906,1312.2656 C784.5313,1312.4063 784.7656,1312.5156 784.9844,1312.5156 C785.25,1312.5156 785.5156,1312.375 785.6875,1312.1563 C785.7969,1312 785.8281,1311.8125 785.8281,1311.3906 L785.8281,1309.9688 C785.8281,1309.5313 785.8125,1309.4063 785.7188,1309.25 C785.5625,1308.9844 785.2813,1308.8438 784.9844,1308.8438 C784.6875,1308.8438 784.4844,1308.9375 784.2656,1309.25 L784.0938,1309.1719 Z " fill="#FFFFFF"/><text fill="#FFFFFF" font-family="sans-serif" font-size="14" lengthAdjust="spacing" textLength="44" x="802.25" y="1318.3467">Player</text><line style="stroke:#E7E7E7;stroke-width:0.5;" x1="626.5" x2="989.5" y1="1329.5" y2="1329.5"/><rect fill="none" height="6" style="stroke:#A6A6A6;stroke-width:1.0;" width="6" x="633.5" y="1340.1484"/><text fill="#FFFFFF" font-family="sans-serif" font-size="14" lengthAdjust="spacing" textLength="88" x="645.5" y="1346.4951">String name</text><rect fill="none" height="6" style="stroke:#A6A6A6;stroke-width:1.0;" width="6" x="633.5" y="1356.4453"/><text fill="#FFFFFF" font-family="sans-serif" font-size="14" lengthAdjust="spacing" textLength="63" x="645.5" y="1362.792">int score</text><rect fill="none" height="6" style="stroke:#A6A6A6;stroke-width:1.0;" width="6" x="633.5" y="1372.7422"/><text fill="#FFFFFF" font-family="sans-serif" font-size="14" lengthAdjust="spacing" textLength="118" x="645.5" y="1379.0889">PlayerType type</text><line style="stroke:#E7E7E7;stroke-width:0.5;" x1="626.5" x2="989.5" y1="1386.3906" y2="1386.3906"/><ellipse cx="636.5" cy="1400.0391" fill="#595959" rx="3" ry="3" style="stroke:#ABABAB;stroke-width:1.0;"/><text fill="#FFFFFF" font-family="sans-serif" font-size="14" lengthAdjust="spacing" textLength="339" x="645.5" y="1403.3857">Player(String name, int score, PlayerType type)</text></g><!--class Round--><g id="elem_Round"><rect codeLine="18" fill="#0E0E0E" height="96.8906" id="Round" rx="2.5" ry="2.5" style="stroke:#E7E7E7;stroke-width:0.5;" width="172" x="418" y="1305.5"/><ellipse cx="477.25" cy="1321.5" fill="#3D3D3D" rx="11" ry="11" style="stroke:#E7E7E7;stroke-width:1.0;"/><path d="M479.5938,1317.1719 C478.6563,1316.7344 478.0625,1316.5938 477.1875,1316.5938 C474.5625,1316.5938 472.5625,1318.6719 472.5625,1321.3906 L472.5625,1322.5156 C472.5625,1325.0938 474.6719,1326.9844 477.5625,1326.9844 C478.7813,1326.9844 479.9375,1326.6875 480.6875,1326.1406 C481.2656,1325.7344 481.5938,1325.2813 481.5938,1324.8906 C481.5938,1324.4375 481.2031,1324.0469 480.7344,1324.0469 C480.5156,1324.0469 480.3125,1324.125 480.125,1324.3125 C479.6719,1324.7969 479.6719,1324.7969 479.4844,1324.8906 C479.0625,1325.1563 478.375,1325.2813 477.6094,1325.2813 C475.5625,1325.2813 474.2656,1324.1875 474.2656,1322.4844 L474.2656,1321.3906 C474.2656,1319.6094 475.5156,1318.2969 477.25,1318.2969 C477.8281,1318.2969 478.4375,1318.4531 478.9063,1318.7031 C479.3906,1318.9844 479.5625,1319.2031 479.6563,1319.6094 C479.7188,1320.0156 479.75,1320.1406 479.8906,1320.2656 C480.0313,1320.4063 480.2656,1320.5156 480.4844,1320.5156 C480.75,1320.5156 481.0156,1320.375 481.1875,1320.1563 C481.2969,1320 481.3281,1319.8125 481.3281,1319.3906 L481.3281,1317.9688 C481.3281,1317.5313 481.3125,1317.4063 481.2188,1317.25 C481.0625,1316.9844 480.7813,1316.8438 480.4844,1316.8438 C480.1875,1316.8438 479.9844,1316.9375 479.7656,1317.25 L479.5938,1317.1719 Z " fill="#FFFFFF"/><text fill="#FFFFFF" font-family="sans-serif" font-size="14" lengthAdjust="spacing" textLength="45" x="497.75" y="1326.3467">Round</text><line style="stroke:#E7E7E7;stroke-width:0.5;" x1="419" x2="589" y1="1337.5" y2="1337.5"/><rect fill="none" height="6" style="stroke:#A6A6A6;stroke-width:1.0;" width="6" x="426" y="1348.1484"/><text fill="#FFFFFF" font-family="sans-serif" font-size="14" lengthAdjust="spacing" textLength="103" x="438" y="1354.4951">Player playerA</text><rect fill="none" height="6" style="stroke:#A6A6A6;stroke-width:1.0;" width="6" x="426" y="1364.4453"/><text fill="#FFFFFF" font-family="sans-serif" font-size="14" lengthAdjust="spacing" textLength="103" x="438" y="1370.792">Player playerB</text><rect fill="none" height="6" style="stroke:#A6A6A6;stroke-width:1.0;" width="6" x="426" y="1380.7422"/><text fill="#FFFFFF" font-family="sans-serif" font-size="14" lengthAdjust="spacing" textLength="146" x="438" y="1387.0889">final int totalRounds</text><line style="stroke:#E7E7E7;stroke-width:0.5;" x1="419" x2="589" y1="1394.3906" y2="1394.3906"/></g><!--class RPSGame--><g id="elem_RPSGame"><rect codeLine="23" fill="#0E0E0E" height="96.8906" id="RPSGame" rx="2.5" ry="2.5" style="stroke:#E7E7E7;stroke-width:0.5;" width="155" x="771.5" y="1124"/><ellipse cx="810.35" cy="1140" fill="#3D3D3D" rx="11" ry="11" style="stroke:#E7E7E7;stroke-width:1.0;"/><path d="M812.6938,1135.6719 C811.7563,1135.2344 811.1625,1135.0938 810.2875,1135.0938 C807.6625,1135.0938 805.6625,1137.1719 805.6625,1139.8906 L805.6625,1141.0156 C805.6625,1143.5938 807.7719,1145.4844 810.6625,1145.4844 C811.8813,1145.4844 813.0375,1145.1875 813.7875,1144.6406 C814.3656,1144.2344 814.6938,1143.7813 814.6938,1143.3906 C814.6938,1142.9375 814.3031,1142.5469 813.8344,1142.5469 C813.6156,1142.5469 813.4125,1142.625 813.225,1142.8125 C812.7719,1143.2969 812.7719,1143.2969 812.5844,1143.3906 C812.1625,1143.6563 811.475,1143.7813 810.7094,1143.7813 C808.6625,1143.7813 807.3656,1142.6875 807.3656,1140.9844 L807.3656,1139.8906 C807.3656,1138.1094 808.6156,1136.7969 810.35,1136.7969 C810.9281,1136.7969 811.5375,1136.9531 812.0063,1137.2031 C812.4906,1137.4844 812.6625,1137.7031 812.7563,1138.1094 C812.8188,1138.5156 812.85,1138.6406 812.9906,1138.7656 C813.1313,1138.9063 813.3656,1139.0156 813.5844,1139.0156 C813.85,1139.0156 814.1156,1138.875 814.2875,1138.6563 C814.3969,1138.5 814.4281,1138.3125 814.4281,1137.8906 L814.4281,1136.4688 C814.4281,1136.0313 814.4125,1135.9063 814.3188,1135.75 C814.1625,1135.4844 813.8813,1135.3438 813.5844,1135.3438 C813.2875,1135.3438 813.0844,1135.4375 812.8656,1135.75 L812.6938,1135.6719 Z " fill="#FFFFFF"/><text fill="#FFFFFF" font-family="sans-serif" font-size="14" lengthAdjust="spacing" textLength="70" x="829.65" y="1144.8467">RPSGame</text><line style="stroke:#E7E7E7;stroke-width:0.5;" x1="772.5" x2="925.5" y1="1156" y2="1156"/><rect fill="none" height="6" style="stroke:#A6A6A6;stroke-width:1.0;" width="6" x="779.5" y="1166.6484"/><text fill="#FFFFFF" font-family="sans-serif" font-size="14" lengthAdjust="spacing" textLength="90" x="791.5" y="1172.9951">Round round</text><ellipse cx="782.5" cy="1185.9453" fill="none" rx="3" ry="3" style="stroke:#ABABAB;stroke-width:1.0;"/><text fill="#FFFFFF" font-family="sans-serif" font-size="14" lengthAdjust="spacing" textLength="105" x="791.5" y="1189.292">void newGame</text><line style="stroke:#E7E7E7;stroke-width:0.5;" x1="772.5" x2="925.5" y1="1196.5938" y2="1196.5938"/><ellipse cx="782.5" cy="1210.2422" fill="#595959" rx="3" ry="3" style="stroke:#ABABAB;stroke-width:1.0;"/><text fill="#FFFFFF" font-family="sans-serif" font-size="14" lengthAdjust="spacing" textLength="129" x="791.5" y="1213.5889">Round getRound()</text></g><!--class Statistics--><g id="elem_Statistics"><rect codeLine="28" fill="#0E0E0E" height="80.5938" id="Statistics" rx="2.5" ry="2.5" style="stroke:#E7E7E7;stroke-width:0.5;" width="277" x="1359.5" y="1132"/><ellipse cx="1459.75" cy="1148" fill="#3D3D3D" rx="11" ry="11" style="stroke:#E7E7E7;stroke-width:1.0;"/><path d="M1462.0938,1143.6719 C1461.1563,1143.2344 1460.5625,1143.0938 1459.6875,1143.0938 C1457.0625,1143.0938 1455.0625,1145.1719 1455.0625,1147.8906 L1455.0625,1149.0156 C1455.0625,1151.5938 1457.1719,1153.4844 1460.0625,1153.4844 C1461.2813,1153.4844 1462.4375,1153.1875 1463.1875,1152.6406 C1463.7656,1152.2344 1464.0938,1151.7813 1464.0938,1151.3906 C1464.0938,1150.9375 1463.7031,1150.5469 1463.2344,1150.5469 C1463.0156,1150.5469 1462.8125,1150.625 1462.625,1150.8125 C1462.1719,1151.2969 1462.1719,1151.2969 1461.9844,1151.3906 C1461.5625,1151.6563 1460.875,1151.7813 1460.1094,1151.7813 C1458.0625,1151.7813 1456.7656,1150.6875 1456.7656,1148.9844 L1456.7656,1147.8906 C1456.7656,1146.1094 1458.0156,1144.7969 1459.75,1144.7969 C1460.3281,1144.7969 1460.9375,1144.9531 1461.4063,1145.2031 C1461.8906,1145.4844 1462.0625,1145.7031 1462.1563,1146.1094 C1462.2188,1146.5156 1462.25,1146.6406 1462.3906,1146.7656 C1462.5313,1146.9063 1462.7656,1147.0156 1462.9844,1147.0156 C1463.25,1147.0156 1463.5156,1146.875 1463.6875,1146.6563 C1463.7969,1146.5 1463.8281,1146.3125 1463.8281,1145.8906 L1463.8281,1144.4688 C1463.8281,1144.0313 1463.8125,1143.9063 1463.7188,1143.75 C1463.5625,1143.4844 1463.2813,1143.3438 1462.9844,1143.3438 C1462.6875,1143.3438 1462.4844,1143.4375 1462.2656,1143.75 L1462.0938,1143.6719 Z " fill="#FFFFFF"/><text fill="#FFFFFF" font-family="sans-serif" font-size="14" lengthAdjust="spacing" textLength="68" x="1480.25" y="1152.8467">Statistics</text><line style="stroke:#E7E7E7;stroke-width:0.5;" x1="1360.5" x2="1635.5" y1="1164" y2="1164"/><rect fill="none" height="6" style="stroke:#A6A6A6;stroke-width:1.0;" width="6" x="1367.5" y="1174.6484"/><text fill="#FFFFFF" font-family="sans-serif" font-size="14" lengthAdjust="spacing" textLength="251" x="1379.5" y="1180.9951">ArrayList&lt;StatisticItem&gt; statistics</text><line style="stroke:#E7E7E7;stroke-width:0.5;" x1="1360.5" x2="1635.5" y1="1188.2969" y2="1188.2969"/><ellipse cx="1370.5" cy="1201.9453" fill="#595959" rx="3" ry="3" style="stroke:#ABABAB;stroke-width:1.0;"/><text fill="#FFFFFF" font-family="sans-serif" font-size="14" lengthAdjust="spacing" textLength="71" x="1379.5" y="1205.292">Statistic()</text></g><!--class StatisticItem--><g id="elem_StatisticItem"><rect codeLine="32" fill="#0E0E0E" height="145.7813" id="StatisticItem" rx="2.5" ry="2.5" style="stroke:#E7E7E7;stroke-width:0.5;" width="732" x="1026" y="1281"/><ellipse cx="1340.25" cy="1297" fill="#3D3D3D" rx="11" ry="11" style="stroke:#E7E7E7;stroke-width:1.0;"/><path d="M1342.5938,1292.6719 C1341.6563,1292.2344 1341.0625,1292.0938 1340.1875,1292.0938 C1337.5625,1292.0938 1335.5625,1294.1719 1335.5625,1296.8906 L1335.5625,1298.0156 C1335.5625,1300.5938 1337.6719,1302.4844 1340.5625,1302.4844 C1341.7813,1302.4844 1342.9375,1302.1875 1343.6875,1301.6406 C1344.2656,1301.2344 1344.5938,1300.7813 1344.5938,1300.3906 C1344.5938,1299.9375 1344.2031,1299.5469 1343.7344,1299.5469 C1343.5156,1299.5469 1343.3125,1299.625 1343.125,1299.8125 C1342.6719,1300.2969 1342.6719,1300.2969 1342.4844,1300.3906 C1342.0625,1300.6563 1341.375,1300.7813 1340.6094,1300.7813 C1338.5625,1300.7813 1337.2656,1299.6875 1337.2656,1297.9844 L1337.2656,1296.8906 C1337.2656,1295.1094 1338.5156,1293.7969 1340.25,1293.7969 C1340.8281,1293.7969 1341.4375,1293.9531 1341.9063,1294.2031 C1342.3906,1294.4844 1342.5625,1294.7031 1342.6563,1295.1094 C1342.7188,1295.5156 1342.75,1295.6406 1342.8906,1295.7656 C1343.0313,1295.9063 1343.2656,1296.0156 1343.4844,1296.0156 C1343.75,1296.0156 1344.0156,1295.875 1344.1875,1295.6563 C1344.2969,1295.5 1344.3281,1295.3125 1344.3281,1294.8906 L1344.3281,1293.4688 C1344.3281,1293.0313 1344.3125,1292.9063 1344.2188,1292.75 C1344.0625,1292.4844 1343.7813,1292.3438 1343.4844,1292.3438 C1343.1875,1292.3438 1342.9844,1292.4375 1342.7656,1292.75 L1342.5938,1292.6719 Z " fill="#FFFFFF"/><text fill="#FFFFFF" font-family="sans-serif" font-size="14" lengthAdjust="spacing" textLength="95" x="1360.75" y="1301.8467">StatisticItem</text><line style="stroke:#E7E7E7;stroke-width:0.5;" x1="1027" x2="1757" y1="1313" y2="1313"/><rect fill="none" height="6" style="stroke:#A6A6A6;stroke-width:1.0;" width="6" x="1034" y="1323.6484"/><text fill="#FFFFFF" font-family="sans-serif" font-size="14" lengthAdjust="spacing" textLength="65" x="1046" y="1329.9951">int round</text><rect fill="none" height="6" style="stroke:#A6A6A6;stroke-width:1.0;" width="6" x="1034" y="1339.9453"/><text fill="#FFFFFF" font-family="sans-serif" font-size="14" lengthAdjust="spacing" textLength="103" x="1046" y="1346.292">String playerA</text><rect fill="none" height="6" style="stroke:#A6A6A6;stroke-width:1.0;" width="6" x="1034" y="1356.2422"/><text fill="#FFFFFF" font-family="sans-serif" font-size="14" lengthAdjust="spacing" textLength="149" x="1046" y="1362.5889">Shape playerAShape</text><rect fill="none" height="6" style="stroke:#A6A6A6;stroke-width:1.0;" width="6" x="1034" y="1372.5391"/><text fill="#FFFFFF" font-family="sans-serif" font-size="14" lengthAdjust="spacing" textLength="103" x="1046" y="1378.8857">String playerB</text><rect fill="none" height="6" style="stroke:#A6A6A6;stroke-width:1.0;" width="6" x="1034" y="1388.8359"/><text fill="#FFFFFF" font-family="sans-serif" font-size="14" lengthAdjust="spacing" textLength="149" x="1046" y="1395.1826">Shape playerBShape</text><line style="stroke:#E7E7E7;stroke-width:0.5;" x1="1027" x2="1757" y1="1402.4844" y2="1402.4844"/><ellipse cx="1037" cy="1416.1328" fill="#595959" rx="3" ry="3" style="stroke:#ABABAB;stroke-width:1.0;"/><text fill="#FFFFFF" font-family="sans-serif" font-size="14" lengthAdjust="spacing" textLength="706" x="1046" y="1419.4795">StatisticItem(int round, String playerA, Shape playerAShape, String playerB, Shape playerBShape)</text></g><!--class RoundController--><g id="elem_RoundController"><rect codeLine="89" fill="#0E0E0E" height="227.2656" id="RoundController" rx="2.5" ry="2.5" style="stroke:#E7E7E7;stroke-width:0.5;" width="512" x="46" y="543"/><ellipse cx="238.75" cy="559" fill="#3D3D3D" rx="11" ry="11" style="stroke:#E7E7E7;stroke-width:1.0;"/><path d="M241.0938,554.6719 C240.1563,554.2344 239.5625,554.0938 238.6875,554.0938 C236.0625,554.0938 234.0625,556.1719 234.0625,558.8906 L234.0625,560.0156 C234.0625,562.5938 236.1719,564.4844 239.0625,564.4844 C240.2813,564.4844 241.4375,564.1875 242.1875,563.6406 C242.7656,563.2344 243.0938,562.7813 243.0938,562.3906 C243.0938,561.9375 242.7031,561.5469 242.2344,561.5469 C242.0156,561.5469 241.8125,561.625 241.625,561.8125 C241.1719,562.2969 241.1719,562.2969 240.9844,562.3906 C240.5625,562.6563 239.875,562.7813 239.1094,562.7813 C237.0625,562.7813 235.7656,561.6875 235.7656,559.9844 L235.7656,558.8906 C235.7656,557.1094 237.0156,555.7969 238.75,555.7969 C239.3281,555.7969 239.9375,555.9531 240.4063,556.2031 C240.8906,556.4844 241.0625,556.7031 241.1563,557.1094 C241.2188,557.5156 241.25,557.6406 241.3906,557.7656 C241.5313,557.9063 241.7656,558.0156 241.9844,558.0156 C242.25,558.0156 242.5156,557.875 242.6875,557.6563 C242.7969,557.5 242.8281,557.3125 242.8281,556.8906 L242.8281,555.4688 C242.8281,555.0313 242.8125,554.9063 242.7188,554.75 C242.5625,554.4844 242.2813,554.3438 241.9844,554.3438 C241.6875,554.3438 241.4844,554.4375 241.2656,554.75 L241.0938,554.6719 Z " fill="#FFFFFF"/><text fill="#FFFFFF" font-family="sans-serif" font-size="14" lengthAdjust="spacing" textLength="118" x="259.25" y="563.8467">RoundController</text><line style="stroke:#E7E7E7;stroke-width:0.5;" x1="47" x2="557" y1="575" y2="575"/><rect fill="none" height="6" style="stroke:#A6A6A6;stroke-width:1.0;" width="6" x="54" y="585.6484"/><text fill="#FFFFFF" font-family="sans-serif" font-size="14" lengthAdjust="spacing" textLength="158" x="66" y="591.9951">RoundView roundView</text><rect fill="none" height="6" style="stroke:#A6A6A6;stroke-width:1.0;" width="6" x="54" y="601.9453"/><text fill="#FFFFFF" font-family="sans-serif" font-size="14" lengthAdjust="spacing" textLength="90" x="66" y="608.292">Round round</text><rect fill="none" height="6" style="stroke:#A6A6A6;stroke-width:1.0;" width="6" x="54" y="618.2422"/><text fill="#FFFFFF" font-family="sans-serif" font-size="14" lengthAdjust="spacing" textLength="168" x="66" y="624.5889">static int roundCounter</text><rect fill="none" height="6" style="stroke:#A6A6A6;stroke-width:1.0;" width="6" x="54" y="634.5391"/><text fill="#FFFFFF" font-family="sans-serif" font-size="14" lengthAdjust="spacing" textLength="249" x="66" y="640.8857">PlayerController[] playerController</text><rect fill="none" height="6" style="stroke:#A6A6A6;stroke-width:1.0;" width="6" x="54" y="650.8359"/><text fill="#FFFFFF" font-family="sans-serif" font-size="14" lengthAdjust="spacing" textLength="270" x="66" y="657.1826">StatisticController statisticController</text><line style="stroke:#E7E7E7;stroke-width:0.5;" x1="47" x2="557" y1="664.4844" y2="664.4844"/><ellipse cx="57" cy="678.1328" fill="#595959" rx="3" ry="3" style="stroke:#ABABAB;stroke-width:1.0;"/><text fill="#FFFFFF" font-family="sans-serif" font-size="14" lengthAdjust="spacing" textLength="128" x="66" y="681.4795">RoundController()</text><ellipse cx="57" cy="694.4297" fill="#595959" rx="3" ry="3" style="stroke:#ABABAB;stroke-width:1.0;"/><text fill="#FFFFFF" font-family="sans-serif" font-size="14" lengthAdjust="spacing" textLength="486" x="66" y="697.7764">void determinateWinner(Shape shapePlayerA, Shape shapePlayerB)</text><ellipse cx="57" cy="710.7266" fill="#595959" rx="3" ry="3" style="stroke:#ABABAB;stroke-width:1.0;"/><text fill="#FFFFFF" font-family="sans-serif" font-size="14" lengthAdjust="spacing" textLength="110" x="66" y="714.0732">void initGame()</text><ellipse cx="57" cy="727.0234" fill="#595959" rx="3" ry="3" style="stroke:#ABABAB;stroke-width:1.0;"/><text fill="#FFFFFF" font-family="sans-serif" font-size="14" lengthAdjust="spacing" textLength="405" x="66" y="730.3701">void setStatisticFacade(StatisticFacade statisticDacade)</text><ellipse cx="57" cy="743.3203" fill="#595959" rx="3" ry="3" style="stroke:#ABABAB;stroke-width:1.0;"/><text fill="#FFFFFF" font-family="sans-serif" font-size="14" lengthAdjust="spacing" textLength="215" x="66" y="746.667">boolean verifyRoundExisting()</text><ellipse cx="57" cy="759.6172" fill="#595959" rx="3" ry="3" style="stroke:#ABABAB;stroke-width:1.0;"/><text fill="#FFFFFF" font-family="sans-serif" font-size="14" lengthAdjust="spacing" textLength="401" x="66" y="762.9639">Shape executeRound(PlayerController playerController)</text></g><!--class RSPGameController--><g id="elem_RSPGameController"><rect codeLine="104" fill="#0E0E0E" height="210.9688" id="RSPGameController" rx="2.5" ry="2.5" style="stroke:#E7E7E7;stroke-width:0.5;" width="357" x="1228.5" y="272"/><ellipse cx="1331.25" cy="288" fill="#3D3D3D" rx="11" ry="11" style="stroke:#E7E7E7;stroke-width:1.0;"/><path d="M1333.5938,283.6719 C1332.6563,283.2344 1332.0625,283.0938 1331.1875,283.0938 C1328.5625,283.0938 1326.5625,285.1719 1326.5625,287.8906 L1326.5625,289.0156 C1326.5625,291.5938 1328.6719,293.4844 1331.5625,293.4844 C1332.7813,293.4844 1333.9375,293.1875 1334.6875,292.6406 C1335.2656,292.2344 1335.5938,291.7813 1335.5938,291.3906 C1335.5938,290.9375 1335.2031,290.5469 1334.7344,290.5469 C1334.5156,290.5469 1334.3125,290.625 1334.125,290.8125 C1333.6719,291.2969 1333.6719,291.2969 1333.4844,291.3906 C1333.0625,291.6563 1332.375,291.7813 1331.6094,291.7813 C1329.5625,291.7813 1328.2656,290.6875 1328.2656,288.9844 L1328.2656,287.8906 C1328.2656,286.1094 1329.5156,284.7969 1331.25,284.7969 C1331.8281,284.7969 1332.4375,284.9531 1332.9063,285.2031 C1333.3906,285.4844 1333.5625,285.7031 1333.6563,286.1094 C1333.7188,286.5156 1333.75,286.6406 1333.8906,286.7656 C1334.0313,286.9063 1334.2656,287.0156 1334.4844,287.0156 C1334.75,287.0156 1335.0156,286.875 1335.1875,286.6563 C1335.2969,286.5 1335.3281,286.3125 1335.3281,285.8906 L1335.3281,284.4688 C1335.3281,284.0313 1335.3125,283.9063 1335.2188,283.75 C1335.0625,283.4844 1334.7813,283.3438 1334.4844,283.3438 C1334.1875,283.3438 1333.9844,283.4375 1333.7656,283.75 L1333.5938,283.6719 Z " fill="#FFFFFF"/><text fill="#FFFFFF" font-family="sans-serif" font-size="14" lengthAdjust="spacing" textLength="143" x="1351.75" y="292.8467">RSPGameController</text><line style="stroke:#E7E7E7;stroke-width:0.5;" x1="1229.5" x2="1584.5" y1="304" y2="304"/><rect fill="none" height="6" style="stroke:#A6A6A6;stroke-width:1.0;" width="6" x="1236.5" y="314.6484"/><text fill="#FFFFFF" font-family="sans-serif" font-size="14" lengthAdjust="spacing" textLength="114" x="1248.5" y="320.9951">RPSGame game</text><rect fill="none" height="6" style="stroke:#A6A6A6;stroke-width:1.0;" width="6" x="1236.5" y="330.9453"/><text fill="#FFFFFF" font-family="sans-serif" font-size="14" lengthAdjust="spacing" textLength="182" x="1248.5" y="337.292">RPSGameView gameView</text><rect fill="none" height="6" style="stroke:#A6A6A6;stroke-width:1.0;" width="6" x="1236.5" y="347.2422"/><text fill="#FFFFFF" font-family="sans-serif" font-size="14" lengthAdjust="spacing" textLength="331" x="1248.5" y="353.5889">PlayerAdminController playerAdminController</text><rect fill="none" height="6" style="stroke:#A6A6A6;stroke-width:1.0;" width="6" x="1236.5" y="363.5391"/><text fill="#FFFFFF" font-family="sans-serif" font-size="14" lengthAdjust="spacing" textLength="256" x="1248.5" y="369.8857">PlayerController[] playersController</text><rect fill="none" height="6" style="stroke:#A6A6A6;stroke-width:1.0;" width="6" x="1236.5" y="379.8359"/><text fill="#FFFFFF" font-family="sans-serif" font-size="14" lengthAdjust="spacing" textLength="236" x="1248.5" y="386.1826">RoundController roundController</text><rect fill="none" height="6" style="stroke:#A6A6A6;stroke-width:1.0;" width="6" x="1236.5" y="396.1328"/><text fill="#FFFFFF" font-family="sans-serif" font-size="14" lengthAdjust="spacing" textLength="270" x="1248.5" y="402.4795">StatisticController statisticController</text><line style="stroke:#E7E7E7;stroke-width:0.5;" x1="1229.5" x2="1584.5" y1="409.7813" y2="409.7813"/><ellipse cx="1239.5" cy="423.4297" fill="#595959" rx="3" ry="3" style="stroke:#ABABAB;stroke-width:1.0;"/><text fill="#FFFFFF" font-family="sans-serif" font-size="14" lengthAdjust="spacing" textLength="267" x="1248.5" y="426.7764">RPSGameController(RPSGame game)</text><ellipse cx="1239.5" cy="439.7266" fill="#595959" rx="3" ry="3" style="stroke:#ABABAB;stroke-width:1.0;"/><text fill="#FFFFFF" font-family="sans-serif" font-size="14" lengthAdjust="spacing" textLength="85" x="1248.5" y="443.0732">void setup()</text><ellipse cx="1239.5" cy="456.0234" fill="#595959" rx="3" ry="3" style="stroke:#ABABAB;stroke-width:1.0;"/><text fill="#FFFFFF" font-family="sans-serif" font-size="14" lengthAdjust="spacing" textLength="110" x="1248.5" y="459.3701">void initGame()</text><ellipse cx="1239.5" cy="472.3203" fill="#595959" rx="3" ry="3" style="stroke:#ABABAB;stroke-width:1.0;"/><text fill="#FFFFFF" font-family="sans-serif" font-size="14" lengthAdjust="spacing" textLength="110" x="1248.5" y="475.667">void statistics()</text></g><!--class StatisticController--><g id="elem_StatisticController"><rect codeLine="118" fill="#0E0E0E" height="129.4844" id="StatisticController" rx="2.5" ry="2.5" style="stroke:#E7E7E7;stroke-width:0.5;" width="282" x="1463" y="863"/><ellipse cx="1532.75" cy="879" fill="#3D3D3D" rx="11" ry="11" style="stroke:#E7E7E7;stroke-width:1.0;"/><path d="M1535.0938,874.6719 C1534.1563,874.2344 1533.5625,874.0938 1532.6875,874.0938 C1530.0625,874.0938 1528.0625,876.1719 1528.0625,878.8906 L1528.0625,880.0156 C1528.0625,882.5938 1530.1719,884.4844 1533.0625,884.4844 C1534.2813,884.4844 1535.4375,884.1875 1536.1875,883.6406 C1536.7656,883.2344 1537.0938,882.7813 1537.0938,882.3906 C1537.0938,881.9375 1536.7031,881.5469 1536.2344,881.5469 C1536.0156,881.5469 1535.8125,881.625 1535.625,881.8125 C1535.1719,882.2969 1535.1719,882.2969 1534.9844,882.3906 C1534.5625,882.6563 1533.875,882.7813 1533.1094,882.7813 C1531.0625,882.7813 1529.7656,881.6875 1529.7656,879.9844 L1529.7656,878.8906 C1529.7656,877.1094 1531.0156,875.7969 1532.75,875.7969 C1533.3281,875.7969 1533.9375,875.9531 1534.4063,876.2031 C1534.8906,876.4844 1535.0625,876.7031 1535.1563,877.1094 C1535.2188,877.5156 1535.25,877.6406 1535.3906,877.7656 C1535.5313,877.9063 1535.7656,878.0156 1535.9844,878.0156 C1536.25,878.0156 1536.5156,877.875 1536.6875,877.6563 C1536.7969,877.5 1536.8281,877.3125 1536.8281,876.8906 L1536.8281,875.4688 C1536.8281,875.0313 1536.8125,874.9063 1536.7188,874.75 C1536.5625,874.4844 1536.2813,874.3438 1535.9844,874.3438 C1535.6875,874.3438 1535.4844,874.4375 1535.2656,874.75 L1535.0938,874.6719 Z " fill="#FFFFFF"/><text fill="#FFFFFF" font-family="sans-serif" font-size="14" lengthAdjust="spacing" textLength="134" x="1553.25" y="883.8467">StatisticController</text><line style="stroke:#E7E7E7;stroke-width:0.5;" x1="1464" x2="1744" y1="895" y2="895"/><rect fill="none" height="6" style="stroke:#A6A6A6;stroke-width:1.0;" width="6" x="1471" y="905.6484"/><text fill="#FFFFFF" font-family="sans-serif" font-size="14" lengthAdjust="spacing" textLength="256" x="1483" y="911.9951">ArrayList&lt;StatisticItem&gt; statistics;</text><rect fill="none" height="6" style="stroke:#A6A6A6;stroke-width:1.0;" width="6" x="1471" y="921.9453"/><text fill="#FFFFFF" font-family="sans-serif" font-size="14" lengthAdjust="spacing" textLength="197" x="1483" y="928.292">StatisticView statisticView;</text><line style="stroke:#E7E7E7;stroke-width:0.5;" x1="1464" x2="1744" y1="935.5938" y2="935.5938"/><ellipse cx="1474" cy="949.2422" fill="#595959" rx="3" ry="3" style="stroke:#ABABAB;stroke-width:1.0;"/><text fill="#FFFFFF" font-family="sans-serif" font-size="14" lengthAdjust="spacing" textLength="144" x="1483" y="952.5889">StatisticController()</text><ellipse cx="1474" cy="965.5391" fill="#595959" rx="3" ry="3" style="stroke:#ABABAB;stroke-width:1.0;"/><text fill="#FFFFFF" font-family="sans-serif" font-size="14" lengthAdjust="spacing" textLength="230" x="1483" y="968.8857">addStatistic(StatisticItem item)</text><ellipse cx="1474" cy="981.8359" fill="#595959" rx="3" ry="3" style="stroke:#ABABAB;stroke-width:1.0;"/><text fill="#FFFFFF" font-family="sans-serif" font-size="14" lengthAdjust="spacing" textLength="114" x="1483" y="985.1826">showStatistics()</text></g><!--class StatisticFacade--><g id="elem_StatisticFacade"><rect codeLine="127" fill="#0E0E0E" height="96.8906" id="StatisticFacade" rx="2.5" ry="2.5" style="stroke:#E7E7E7;stroke-width:0.5;" width="417" x="138.5" y="879"/><ellipse cx="287.25" cy="895" fill="#3D3D3D" rx="11" ry="11" style="stroke:#E7E7E7;stroke-width:1.0;"/><path d="M289.5938,890.6719 C288.6563,890.2344 288.0625,890.0938 287.1875,890.0938 C284.5625,890.0938 282.5625,892.1719 282.5625,894.8906 L282.5625,896.0156 C282.5625,898.5938 284.6719,900.4844 287.5625,900.4844 C288.7813,900.4844 289.9375,900.1875 290.6875,899.6406 C291.2656,899.2344 291.5938,898.7813 291.5938,898.3906 C291.5938,897.9375 291.2031,897.5469 290.7344,897.5469 C290.5156,897.5469 290.3125,897.625 290.125,897.8125 C289.6719,898.2969 289.6719,898.2969 289.4844,898.3906 C289.0625,898.6563 288.375,898.7813 287.6094,898.7813 C285.5625,898.7813 284.2656,897.6875 284.2656,895.9844 L284.2656,894.8906 C284.2656,893.1094 285.5156,891.7969 287.25,891.7969 C287.8281,891.7969 288.4375,891.9531 288.9063,892.2031 C289.3906,892.4844 289.5625,892.7031 289.6563,893.1094 C289.7188,893.5156 289.75,893.6406 289.8906,893.7656 C290.0313,893.9063 290.2656,894.0156 290.4844,894.0156 C290.75,894.0156 291.0156,893.875 291.1875,893.6563 C291.2969,893.5 291.3281,893.3125 291.3281,892.8906 L291.3281,891.4688 C291.3281,891.0313 291.3125,890.9063 291.2188,890.75 C291.0625,890.4844 290.7813,890.3438 290.4844,890.3438 C290.1875,890.3438 289.9844,890.4375 289.7656,890.75 L289.5938,890.6719 Z " fill="#FFFFFF"/><text fill="#FFFFFF" font-family="sans-serif" font-size="14" lengthAdjust="spacing" textLength="111" x="307.75" y="899.8467">StatisticFacade</text><line style="stroke:#E7E7E7;stroke-width:0.5;" x1="139.5" x2="554.5" y1="911" y2="911"/><rect fill="none" height="6" style="stroke:#A6A6A6;stroke-width:1.0;" width="6" x="146.5" y="921.6484"/><text fill="#FFFFFF" font-family="sans-serif" font-size="14" lengthAdjust="spacing" textLength="270" x="158.5" y="927.9951">StatisticController statisticController</text><line style="stroke:#E7E7E7;stroke-width:0.5;" x1="139.5" x2="554.5" y1="935.2969" y2="935.2969"/><ellipse cx="149.5" cy="948.9453" fill="#595959" rx="3" ry="3" style="stroke:#ABABAB;stroke-width:1.0;"/><text fill="#FFFFFF" font-family="sans-serif" font-size="14" lengthAdjust="spacing" textLength="391" x="158.5" y="952.292">StatisticFacade(StatisticController statisticController)</text><ellipse cx="149.5" cy="965.2422" fill="#595959" rx="3" ry="3" style="stroke:#ABABAB;stroke-width:1.0;"/><text fill="#FFFFFF" font-family="sans-serif" font-size="14" lengthAdjust="spacing" textLength="228" x="158.5" y="968.5889">add(StatisticItem statisticItem)</text></g><!--class PlayerAdminController--><g id="elem_PlayerAdminController"><rect codeLine="45" fill="#0E0E0E" height="210.9688" id="PlayerAdminController" rx="2.5" ry="2.5" style="stroke:#E7E7E7;stroke-width:0.5;" width="296" x="1132" y="551"/><ellipse cx="1194.25" cy="567" fill="#3D3D3D" rx="11" ry="11" style="stroke:#E7E7E7;stroke-width:1.0;"/><path d="M1196.5938,562.6719 C1195.6563,562.2344 1195.0625,562.0938 1194.1875,562.0938 C1191.5625,562.0938 1189.5625,564.1719 1189.5625,566.8906 L1189.5625,568.0156 C1189.5625,570.5938 1191.6719,572.4844 1194.5625,572.4844 C1195.7813,572.4844 1196.9375,572.1875 1197.6875,571.6406 C1198.2656,571.2344 1198.5938,570.7813 1198.5938,570.3906 C1198.5938,569.9375 1198.2031,569.5469 1197.7344,569.5469 C1197.5156,569.5469 1197.3125,569.625 1197.125,569.8125 C1196.6719,570.2969 1196.6719,570.2969 1196.4844,570.3906 C1196.0625,570.6563 1195.375,570.7813 1194.6094,570.7813 C1192.5625,570.7813 1191.2656,569.6875 1191.2656,567.9844 L1191.2656,566.8906 C1191.2656,565.1094 1192.5156,563.7969 1194.25,563.7969 C1194.8281,563.7969 1195.4375,563.9531 1195.9063,564.2031 C1196.3906,564.4844 1196.5625,564.7031 1196.6563,565.1094 C1196.7188,565.5156 1196.75,565.6406 1196.8906,565.7656 C1197.0313,565.9063 1197.2656,566.0156 1197.4844,566.0156 C1197.75,566.0156 1198.0156,565.875 1198.1875,565.6563 C1198.2969,565.5 1198.3281,565.3125 1198.3281,564.8906 L1198.3281,563.4688 C1198.3281,563.0313 1198.3125,562.9063 1198.2188,562.75 C1198.0625,562.4844 1197.7813,562.3438 1197.4844,562.3438 C1197.1875,562.3438 1196.9844,562.4375 1196.7656,562.75 L1196.5938,562.6719 Z " fill="#FFFFFF"/><text fill="#FFFFFF" font-family="sans-serif" font-size="14" lengthAdjust="spacing" textLength="163" x="1214.75" y="571.8467">PlayerAdminController</text><line style="stroke:#E7E7E7;stroke-width:0.5;" x1="1133" x2="1427" y1="583" y2="583"/><rect fill="none" height="6" style="stroke:#A6A6A6;stroke-width:1.0;" width="6" x="1140" y="593.6484"/><text fill="#FFFFFF" font-family="sans-serif" font-size="14" lengthAdjust="spacing" textLength="212" x="1152" y="599.9951">ArrayList&lt;Player&gt; playersList</text><rect fill="none" height="6" style="stroke:#A6A6A6;stroke-width:1.0;" width="6" x="1140" y="609.9453"/><text fill="#FFFFFF" font-family="sans-serif" font-size="14" lengthAdjust="spacing" textLength="263" x="1152" y="616.292">PlayerController[] playersControllers</text><ellipse cx="1143" cy="629.2422" fill="none" rx="3" ry="3" style="stroke:#ABABAB;stroke-width:1.0;"/><text fill="#FFFFFF" font-family="sans-serif" font-size="14" lengthAdjust="spacing" textLength="176" x="1152" y="632.5889">Player[] getGamePlayers</text><line style="stroke:#E7E7E7;stroke-width:0.5;" x1="1133" x2="1427" y1="639.8906" y2="639.8906"/><ellipse cx="1143" cy="653.5391" fill="#595959" rx="3" ry="3" style="stroke:#ABABAB;stroke-width:1.0;"/><text fill="#FFFFFF" font-family="sans-serif" font-size="14" lengthAdjust="spacing" textLength="173" x="1152" y="656.8857">PlayerAdminController()</text><ellipse cx="1143" cy="669.8359" fill="#595959" rx="3" ry="3" style="stroke:#ABABAB;stroke-width:1.0;"/><text fill="#FFFFFF" font-family="sans-serif" font-size="14" lengthAdjust="spacing" textLength="110" x="1152" y="673.1826">void initGame()</text><rect fill="#7F7F7F" height="6" style="stroke:#A6A6A6;stroke-width:1.0;" width="6" x="1140" y="683.1328"/><text fill="#FFFFFF" font-family="sans-serif" font-size="14" lengthAdjust="spacing" textLength="114" x="1152" y="689.4795">void addPlayer()</text><rect fill="#7F7F7F" height="6" style="stroke:#A6A6A6;stroke-width:1.0;" width="6" x="1140" y="699.4297"/><text fill="#FFFFFF" font-family="sans-serif" font-size="14" lengthAdjust="spacing" textLength="270" x="1152" y="705.7764">Player searchPlayer(Player newPlayer)</text><rect fill="#7F7F7F" height="6" style="stroke:#A6A6A6;stroke-width:1.0;" width="6" x="1140" y="715.7266"/><text fill="#FFFFFF" font-family="sans-serif" font-size="14" lengthAdjust="spacing" textLength="217" x="1152" y="722.0732">Player searchPlayerbyId(int id)</text><rect fill="#7F7F7F" height="6" style="stroke:#A6A6A6;stroke-width:1.0;" width="6" x="1140" y="732.0234"/><text fill="#FFFFFF" font-family="sans-serif" font-size="14" lengthAdjust="spacing" textLength="153" x="1152" y="738.3701">void setGamePlayer()</text><rect fill="#7F7F7F" height="6" style="stroke:#A6A6A6;stroke-width:1.0;" width="6" x="1140" y="748.3203"/><text fill="#FFFFFF" font-family="sans-serif" font-size="14" lengthAdjust="spacing" textLength="222" x="1152" y="754.667">boolean arePlayersDuplicates()</text></g><!--class PlayerControllerFactory--><g id="elem_PlayerControllerFactory"><rect codeLine="59" fill="#0E0E0E" height="64.2969" id="PlayerControllerFactory" rx="2.5" ry="2.5" style="stroke:#E7E7E7;stroke-width:0.5;" width="513" x="914.5" y="895.5"/><ellipse cx="1081.25" cy="911.5" fill="#3D3D3D" rx="11" ry="11" style="stroke:#E7E7E7;stroke-width:1.0;"/><path d="M1083.5938,907.1719 C1082.6563,906.7344 1082.0625,906.5938 1081.1875,906.5938 C1078.5625,906.5938 1076.5625,908.6719 1076.5625,911.3906 L1076.5625,912.5156 C1076.5625,915.0938 1078.6719,916.9844 1081.5625,916.9844 C1082.7813,916.9844 1083.9375,916.6875 1084.6875,916.1406 C1085.2656,915.7344 1085.5938,915.2813 1085.5938,914.8906 C1085.5938,914.4375 1085.2031,914.0469 1084.7344,914.0469 C1084.5156,914.0469 1084.3125,914.125 1084.125,914.3125 C1083.6719,914.7969 1083.6719,914.7969 1083.4844,914.8906 C1083.0625,915.1563 1082.375,915.2813 1081.6094,915.2813 C1079.5625,915.2813 1078.2656,914.1875 1078.2656,912.4844 L1078.2656,911.3906 C1078.2656,909.6094 1079.5156,908.2969 1081.25,908.2969 C1081.8281,908.2969 1082.4375,908.4531 1082.9063,908.7031 C1083.3906,908.9844 1083.5625,909.2031 1083.6563,909.6094 C1083.7188,910.0156 1083.75,910.1406 1083.8906,910.2656 C1084.0313,910.4063 1084.2656,910.5156 1084.4844,910.5156 C1084.75,910.5156 1085.0156,910.375 1085.1875,910.1563 C1085.2969,910 1085.3281,909.8125 1085.3281,909.3906 L1085.3281,907.9688 C1085.3281,907.5313 1085.3125,907.4063 1085.2188,907.25 C1085.0625,906.9844 1084.7813,906.8438 1084.4844,906.8438 C1084.1875,906.8438 1083.9844,906.9375 1083.7656,907.25 L1083.5938,907.1719 Z " fill="#FFFFFF"/><text fill="#FFFFFF" font-family="sans-serif" font-size="14" lengthAdjust="spacing" textLength="171" x="1101.75" y="916.3467">PlayerControllerFactory</text><line style="stroke:#E7E7E7;stroke-width:0.5;" x1="915.5" x2="1426.5" y1="927.5" y2="927.5"/><line style="stroke:#E7E7E7;stroke-width:0.5;" x1="915.5" x2="1426.5" y1="935.5" y2="935.5"/><ellipse cx="925.5" cy="949.1484" fill="#595959" rx="3" ry="3" style="stroke:#ABABAB;stroke-width:1.0;"/><text fill="#FFFFFF" font-family="sans-serif" font-size="14" lengthAdjust="spacing" textLength="487" x="934.5" y="952.4951">static PlayerController getPlayerController(PLayerType playerType)</text></g><!--class PlayerController--><g id="elem_PlayerController"><rect codeLine="63" fill="#0E0E0E" height="194.6719" id="PlayerController" rx="2.5" ry="2.5" style="stroke:#E7E7E7;stroke-width:0.5;" width="289" x="590.5" y="830"/><ellipse cx="673.25" cy="846" fill="#323232" rx="11" ry="11" style="stroke:#E7E7E7;stroke-width:1.0;"/><path d="M675.3281,847.8125 L675.7188,848.7969 L675.3281,848.7969 C674.875,848.7969 674.7656,848.8125 674.6094,848.9219 C674.3594,849.0781 674.2031,849.3594 674.2031,849.6563 C674.2031,849.9219 674.3438,850.1719 674.5625,850.3281 C674.7031,850.4531 674.9063,850.5 675.3281,850.5 L677.6875,850.5 C678.0469,850.5 678.2656,850.4688 678.4063,850.375 C678.6563,850.2344 678.8125,849.9375 678.8125,849.6563 C678.8125,849.375 678.6719,849.125 678.4531,848.9688 C678.2813,848.8281 678.125,848.7969 677.6563,848.7969 L674.2656,840.5938 L670.5938,840.5938 C670.1406,840.5938 670.0156,840.6094 669.8594,840.7031 C669.6094,840.875 669.4531,841.1563 669.4531,841.4375 C669.4531,841.7188 669.5938,841.9688 669.8125,842.1406 C669.9844,842.25 670.1563,842.2813 670.5938,842.2813 L671.6719,842.2813 L669.0313,848.7969 C668.6094,848.7969 668.4531,848.8125 668.2969,848.9219 C668.0469,849.0781 667.8906,849.3594 667.8906,849.6563 C667.8906,850.2188 668.2656,850.5 669.0156,850.5 L671.2813,850.5 C671.6406,850.5 671.8594,850.4688 671.9844,850.375 C672.25,850.2344 672.3906,849.9375 672.3906,849.6563 C672.3906,849.375 672.2656,849.125 672.0469,848.9531 C671.875,848.8281 671.7344,848.7969 671.2813,848.7969 L670.8906,848.7969 L671.2813,847.8125 L675.3281,847.8125 Z M674.625,846.1094 L671.9531,846.1094 L673.2969,842.8438 L674.625,846.1094 Z " fill="#FFFFFF"/><text fill="#FFFFFF" font-family="sans-serif" font-size="14" font-style="italic" lengthAdjust="spacing" textLength="115" x="693.75" y="850.8467">PlayerController</text><line style="stroke:#E7E7E7;stroke-width:0.5;" x1="591.5" x2="878.5" y1="862" y2="862"/><rect fill="none" height="6" style="stroke:#A6A6A6;stroke-width:1.0;" width="6" x="598.5" y="872.6484"/><text fill="#FFFFFF" font-family="sans-serif" font-size="14" lengthAdjust="spacing" textLength="93" x="610.5" y="878.9951">Player player</text><polygon fill="none" points="601.5,886.9453,605.5,890.9453,601.5,894.9453,597.5,890.9453" style="stroke:#737373;stroke-width:1.0;"/><text fill="#FFFFFF" font-family="sans-serif" font-size="14" lengthAdjust="spacing" textLength="168" x="610.5" y="895.292">PlayersView playerView</text><polygon fill="none" points="601.5,903.2422,605.5,907.2422,601.5,911.2422,597.5,907.2422" style="stroke:#737373;stroke-width:1.0;"/><text fill="#FFFFFF" font-family="sans-serif" font-size="14" lengthAdjust="spacing" textLength="165" x="610.5" y="911.5889">PlayerType playerType</text><line style="stroke:#E7E7E7;stroke-width:0.5;" x1="591.5" x2="878.5" y1="918.8906" y2="918.8906"/><ellipse cx="601.5" cy="932.5391" fill="#595959" rx="3" ry="3" style="stroke:#ABABAB;stroke-width:1.0;"/><text fill="#FFFFFF" font-family="sans-serif" font-size="14" lengthAdjust="spacing" textLength="127" x="610.5" y="935.8857">PlayerController()</text><ellipse cx="601.5" cy="948.8359" fill="#595959" rx="3" ry="3" style="stroke:#ABABAB;stroke-width:1.0;"/><text fill="#FFFFFF" font-family="sans-serif" font-size="14" lengthAdjust="spacing" textLength="213" x="610.5" y="952.1826">abstract Shape selectShape()</text><ellipse cx="601.5" cy="965.1328" fill="#595959" rx="3" ry="3" style="stroke:#ABABAB;stroke-width:1.0;"/><text fill="#FFFFFF" font-family="sans-serif" font-size="14" lengthAdjust="spacing" textLength="259" x="610.5" y="968.4795">abstract PlayerView initPlayerView()</text><ellipse cx="601.5" cy="981.4297" fill="#595959" rx="3" ry="3" style="stroke:#ABABAB;stroke-width:1.0;"/><text fill="#FFFFFF" font-family="sans-serif" font-size="14" lengthAdjust="spacing" textLength="263" x="610.5" y="984.7764">abstract PlayerType initPlayerType()</text><ellipse cx="601.5" cy="997.7266" fill="#595959" rx="3" ry="3" style="stroke:#ABABAB;stroke-width:1.0;"/><text fill="#FFFFFF" font-family="sans-serif" font-size="14" lengthAdjust="spacing" textLength="145" x="610.5" y="1001.0732">void increaseScore()</text><ellipse cx="601.5" cy="1014.0234" fill="#595959" rx="3" ry="3" style="stroke:#ABABAB;stroke-width:1.0;"/><text fill="#FFFFFF" font-family="sans-serif" font-size="14" lengthAdjust="spacing" textLength="110" x="610.5" y="1017.3701">void getScore()</text></g><!--class HumanController--><g id="elem_HumanController"><rect codeLine="76" fill="#0E0E0E" height="96.8906" id="HumanController" rx="2.5" ry="2.5" style="stroke:#E7E7E7;stroke-width:0.5;" width="214" x="881" y="608"/><ellipse cx="923" cy="624" fill="#3D3D3D" rx="11" ry="11" style="stroke:#E7E7E7;stroke-width:1.0;"/><path d="M925.3438,619.6719 C924.4063,619.2344 923.8125,619.0938 922.9375,619.0938 C920.3125,619.0938 918.3125,621.1719 918.3125,623.8906 L918.3125,625.0156 C918.3125,627.5938 920.4219,629.4844 923.3125,629.4844 C924.5313,629.4844 925.6875,629.1875 926.4375,628.6406 C927.0156,628.2344 927.3438,627.7813 927.3438,627.3906 C927.3438,626.9375 926.9531,626.5469 926.4844,626.5469 C926.2656,626.5469 926.0625,626.625 925.875,626.8125 C925.4219,627.2969 925.4219,627.2969 925.2344,627.3906 C924.8125,627.6563 924.125,627.7813 923.3594,627.7813 C921.3125,627.7813 920.0156,626.6875 920.0156,624.9844 L920.0156,623.8906 C920.0156,622.1094 921.2656,620.7969 923,620.7969 C923.5781,620.7969 924.1875,620.9531 924.6563,621.2031 C925.1406,621.4844 925.3125,621.7031 925.4063,622.1094 C925.4688,622.5156 925.5,622.6406 925.6406,622.7656 C925.7813,622.9063 926.0156,623.0156 926.2344,623.0156 C926.5,623.0156 926.7656,622.875 926.9375,622.6563 C927.0469,622.5 927.0781,622.3125 927.0781,621.8906 L927.0781,620.4688 C927.0781,620.0313 927.0625,619.9063 926.9688,619.75 C926.8125,619.4844 926.5313,619.3438 926.2344,619.3438 C925.9375,619.3438 925.7344,619.4375 925.5156,619.75 L925.3438,619.6719 Z " fill="#FFFFFF"/><text fill="#FFFFFF" font-family="sans-serif" font-size="14" lengthAdjust="spacing" textLength="122" x="943" y="628.8467">HumanController</text><line style="stroke:#E7E7E7;stroke-width:0.5;" x1="882" x2="1094" y1="640" y2="640"/><ellipse cx="892" cy="653.6484" fill="none" rx="3" ry="3" style="stroke:#ABABAB;stroke-width:1.0;"/><text fill="#FFFFFF" font-family="sans-serif" font-size="14" lengthAdjust="spacing" textLength="184" x="901" y="656.9951">PlayerView initPlayerView</text><ellipse cx="892" cy="669.9453" fill="none" rx="3" ry="3" style="stroke:#ABABAB;stroke-width:1.0;"/><text fill="#FFFFFF" font-family="sans-serif" font-size="14" lengthAdjust="spacing" textLength="188" x="901" y="673.292">PlayerType initPlayerType</text><line style="stroke:#E7E7E7;stroke-width:0.5;" x1="882" x2="1094" y1="680.5938" y2="680.5938"/><ellipse cx="892" cy="694.2422" fill="#595959" rx="3" ry="3" style="stroke:#ABABAB;stroke-width:1.0;"/><text fill="#FFFFFF" font-family="sans-serif" font-size="14" lengthAdjust="spacing" textLength="148" x="901" y="697.5889">Shape selectShape()</text></g><!--class ComputerController--><g id="elem_ComputerController"><rect codeLine="82" fill="#0E0E0E" height="96.8906" id="ComputerController" rx="2.5" ry="2.5" style="stroke:#E7E7E7;stroke-width:0.5;" width="214" x="632" y="608"/><ellipse cx="663.2" cy="624" fill="#3D3D3D" rx="11" ry="11" style="stroke:#E7E7E7;stroke-width:1.0;"/><path d="M665.5438,619.6719 C664.6063,619.2344 664.0125,619.0938 663.1375,619.0938 C660.5125,619.0938 658.5125,621.1719 658.5125,623.8906 L658.5125,625.0156 C658.5125,627.5938 660.6219,629.4844 663.5125,629.4844 C664.7313,629.4844 665.8875,629.1875 666.6375,628.6406 C667.2156,628.2344 667.5438,627.7813 667.5438,627.3906 C667.5438,626.9375 667.1531,626.5469 666.6844,626.5469 C666.4656,626.5469 666.2625,626.625 666.075,626.8125 C665.6219,627.2969 665.6219,627.2969 665.4344,627.3906 C665.0125,627.6563 664.325,627.7813 663.5594,627.7813 C661.5125,627.7813 660.2156,626.6875 660.2156,624.9844 L660.2156,623.8906 C660.2156,622.1094 661.4656,620.7969 663.2,620.7969 C663.7781,620.7969 664.3875,620.9531 664.8563,621.2031 C665.3406,621.4844 665.5125,621.7031 665.6063,622.1094 C665.6688,622.5156 665.7,622.6406 665.8406,622.7656 C665.9813,622.9063 666.2156,623.0156 666.4344,623.0156 C666.7,623.0156 666.9656,622.875 667.1375,622.6563 C667.2469,622.5 667.2781,622.3125 667.2781,621.8906 L667.2781,620.4688 C667.2781,620.0313 667.2625,619.9063 667.1688,619.75 C667.0125,619.4844 666.7313,619.3438 666.4344,619.3438 C666.1375,619.3438 665.9344,619.4375 665.7156,619.75 L665.5438,619.6719 Z " fill="#FFFFFF"/><text fill="#FFFFFF" font-family="sans-serif" font-size="14" lengthAdjust="spacing" textLength="146" x="680.8" y="628.8467">ComputerController</text><line style="stroke:#E7E7E7;stroke-width:0.5;" x1="633" x2="845" y1="640" y2="640"/><ellipse cx="643" cy="653.6484" fill="none" rx="3" ry="3" style="stroke:#ABABAB;stroke-width:1.0;"/><text fill="#FFFFFF" font-family="sans-serif" font-size="14" lengthAdjust="spacing" textLength="184" x="652" y="656.9951">PlayerView initPlayerView</text><ellipse cx="643" cy="669.9453" fill="none" rx="3" ry="3" style="stroke:#ABABAB;stroke-width:1.0;"/><text fill="#FFFFFF" font-family="sans-serif" font-size="14" lengthAdjust="spacing" textLength="188" x="652" y="673.292">PlayerType initPlayerType</text><line style="stroke:#E7E7E7;stroke-width:0.5;" x1="633" x2="845" y1="680.5938" y2="680.5938"/><ellipse cx="643" cy="694.2422" fill="#595959" rx="3" ry="3" style="stroke:#ABABAB;stroke-width:1.0;"/><text fill="#FFFFFF" font-family="sans-serif" font-size="14" lengthAdjust="spacing" textLength="148" x="652" y="697.5889">Shape selectShape()</text></g><!--class Shape--><g id="elem_Shape"><rect codeLine="136" fill="#0E0E0E" height="113.1875" id="Shape" rx="2.5" ry="2.5" style="stroke:#E7E7E7;stroke-width:0.5;" width="417" x="2236.5" y="84"/><ellipse cx="2418.25" cy="100" fill="#545454" rx="11" ry="11" style="stroke:#E7E7E7;stroke-width:1.0;"/><path d="M2417.0469,100.875 L2418.5,100.875 L2418.5,100.9844 C2418.5,101.3906 2418.5313,101.5469 2418.6094,101.7031 C2418.7656,101.9531 2419.0469,102.1094 2419.3438,102.1094 C2419.5938,102.1094 2419.8594,101.9688 2420.0156,101.75 C2420.1406,101.5938 2420.1719,101.4375 2420.1719,100.9844 L2420.1719,99.0625 C2420.1719,98.9063 2420.1719,98.8594 2420.1563,98.7031 C2420.0938,98.2344 2419.7813,97.9219 2419.3281,97.9219 C2419.0781,97.9219 2418.8125,98.0625 2418.6406,98.2813 C2418.5313,98.4531 2418.5,98.6094 2418.5,99.0625 L2418.5,99.1875 L2417.0469,99.1875 L2417.0469,96.7813 L2421.0313,96.7813 L2421.0313,97.6406 C2421.0313,98.0469 2421.0625,98.2188 2421.1406,98.375 C2421.3125,98.625 2421.5938,98.7813 2421.875,98.7813 C2422.1406,98.7813 2422.4063,98.6406 2422.5781,98.4219 C2422.6875,98.25 2422.7188,98.1094 2422.7188,97.6406 L2422.7188,95.0938 L2415.0938,95.0938 C2414.6563,95.0938 2414.5313,95.1094 2414.375,95.2031 C2414.125,95.3594 2413.9688,95.6563 2413.9688,95.9375 C2413.9688,96.2188 2414.1094,96.4688 2414.3281,96.6406 C2414.4844,96.75 2414.6719,96.7813 2415.0938,96.7813 L2415.3438,96.7813 L2415.3438,103.2969 L2415.0938,103.2969 C2414.6875,103.2969 2414.5313,103.3125 2414.375,103.4219 C2414.125,103.5938 2413.9688,103.8594 2413.9688,104.1563 C2413.9688,104.4219 2414.1094,104.6719 2414.3281,104.8281 C2414.4688,104.9531 2414.7031,105 2415.0938,105 L2423.0938,105 L2423.0938,102.4219 C2423.0938,101.9844 2423.0625,101.8438 2422.9844,101.6875 C2422.8125,101.4375 2422.5313,101.2813 2422.25,101.2813 C2421.9844,101.2813 2421.7188,101.3906 2421.5469,101.6406 C2421.4375,101.7969 2421.4063,101.9375 2421.4063,102.4219 L2421.4063,103.2969 L2417.0469,103.2969 L2417.0469,100.875 Z " fill="#FFFFFF"/><text fill="#FFFFFF" font-family="sans-serif" font-size="14" lengthAdjust="spacing" textLength="45" x="2438.75" y="104.8467">Shape</text><line style="stroke:#E7E7E7;stroke-width:0.5;" x1="2237.5" x2="2652.5" y1="116" y2="116"/><text fill="#FFFFFF" font-family="sans-serif" font-size="14" lengthAdjust="spacing" textLength="41" x="2242.5" y="132.9951">ROCK</text><text fill="#FFFFFF" font-family="sans-serif" font-size="14" lengthAdjust="spacing" textLength="62" x="2242.5" y="149.292">SCISSOR</text><text fill="#FFFFFF" font-family="sans-serif" font-size="14" lengthAdjust="spacing" textLength="47" x="2242.5" y="165.5889">PAPER</text><line style="stroke:#E7E7E7;stroke-width:0.5;" x1="2237.5" x2="2652.5" y1="172.8906" y2="172.8906"/><ellipse cx="2247.5" cy="186.5391" fill="#595959" rx="3" ry="3" style="stroke:#ABABAB;stroke-width:1.0;"/><text fill="#FFFFFF" font-family="sans-serif" font-size="14" lengthAdjust="spacing" textLength="391" x="2256.5" y="189.8857">static boolean winsWith(Shape shape1, Shape shape2)</text></g><!--class PlayerType--><g id="elem_PlayerType"><rect codeLine="143" fill="#0E0E0E" height="80.5938" id="PlayerType" rx="2.5" ry="2.5" style="stroke:#E7E7E7;stroke-width:0.5;" width="112" x="2089" y="100"/><ellipse cx="2104" cy="116" fill="#545454" rx="11" ry="11" style="stroke:#E7E7E7;stroke-width:1.0;"/><path d="M2102.7969,116.875 L2104.25,116.875 L2104.25,116.9844 C2104.25,117.3906 2104.2813,117.5469 2104.3594,117.7031 C2104.5156,117.9531 2104.7969,118.1094 2105.0938,118.1094 C2105.3438,118.1094 2105.6094,117.9688 2105.7656,117.75 C2105.8906,117.5938 2105.9219,117.4375 2105.9219,116.9844 L2105.9219,115.0625 C2105.9219,114.9063 2105.9219,114.8594 2105.9063,114.7031 C2105.8438,114.2344 2105.5313,113.9219 2105.0781,113.9219 C2104.8281,113.9219 2104.5625,114.0625 2104.3906,114.2813 C2104.2813,114.4531 2104.25,114.6094 2104.25,115.0625 L2104.25,115.1875 L2102.7969,115.1875 L2102.7969,112.7813 L2106.7813,112.7813 L2106.7813,113.6406 C2106.7813,114.0469 2106.8125,114.2188 2106.8906,114.375 C2107.0625,114.625 2107.3438,114.7813 2107.625,114.7813 C2107.8906,114.7813 2108.1563,114.6406 2108.3281,114.4219 C2108.4375,114.25 2108.4688,114.1094 2108.4688,113.6406 L2108.4688,111.0938 L2100.8438,111.0938 C2100.4063,111.0938 2100.2813,111.1094 2100.125,111.2031 C2099.875,111.3594 2099.7188,111.6563 2099.7188,111.9375 C2099.7188,112.2188 2099.8594,112.4688 2100.0781,112.6406 C2100.2344,112.75 2100.4219,112.7813 2100.8438,112.7813 L2101.0938,112.7813 L2101.0938,119.2969 L2100.8438,119.2969 C2100.4375,119.2969 2100.2813,119.3125 2100.125,119.4219 C2099.875,119.5938 2099.7188,119.8594 2099.7188,120.1563 C2099.7188,120.4219 2099.8594,120.6719 2100.0781,120.8281 C2100.2188,120.9531 2100.4531,121 2100.8438,121 L2108.8438,121 L2108.8438,118.4219 C2108.8438,117.9844 2108.8125,117.8438 2108.7344,117.6875 C2108.5625,117.4375 2108.2813,117.2813 2108,117.2813 C2107.7344,117.2813 2107.4688,117.3906 2107.2969,117.6406 C2107.1875,117.7969 2107.1563,117.9375 2107.1563,118.4219 L2107.1563,119.2969 L2102.7969,119.2969 L2102.7969,116.875 Z " fill="#FFFFFF"/><text fill="#FFFFFF" font-family="sans-serif" font-size="14" lengthAdjust="spacing" textLength="80" x="2118" y="120.8467">PlayerType</text><line style="stroke:#E7E7E7;stroke-width:0.5;" x1="2090" x2="2200" y1="132" y2="132"/><text fill="#FFFFFF" font-family="sans-serif" font-size="14" lengthAdjust="spacing" textLength="51" x="2095" y="148.9951">HUMAN</text><text fill="#FFFFFF" font-family="sans-serif" font-size="14" lengthAdjust="spacing" textLength="77" x="2095" y="165.292">CONPUTER</text><line style="stroke:#E7E7E7;stroke-width:0.5;" x1="2090" x2="2200" y1="172.5938" y2="172.5938"/></g><!--class RSPGameView--><g id="elem_RSPGameView"><rect codeLine="177" fill="#0E0E0E" height="96.8906" id="RSPGameView" rx="2.5" ry="2.5" style="stroke:#E7E7E7;stroke-width:0.5;" width="437" x="2268.5" y="608"/><ellipse cx="2430.75" cy="624" fill="#3D3D3D" rx="11" ry="11" style="stroke:#E7E7E7;stroke-width:1.0;"/><path d="M2433.0938,619.6719 C2432.1563,619.2344 2431.5625,619.0938 2430.6875,619.0938 C2428.0625,619.0938 2426.0625,621.1719 2426.0625,623.8906 L2426.0625,625.0156 C2426.0625,627.5938 2428.1719,629.4844 2431.0625,629.4844 C2432.2813,629.4844 2433.4375,629.1875 2434.1875,628.6406 C2434.7656,628.2344 2435.0938,627.7813 2435.0938,627.3906 C2435.0938,626.9375 2434.7031,626.5469 2434.2344,626.5469 C2434.0156,626.5469 2433.8125,626.625 2433.625,626.8125 C2433.1719,627.2969 2433.1719,627.2969 2432.9844,627.3906 C2432.5625,627.6563 2431.875,627.7813 2431.1094,627.7813 C2429.0625,627.7813 2427.7656,626.6875 2427.7656,624.9844 L2427.7656,623.8906 C2427.7656,622.1094 2429.0156,620.7969 2430.75,620.7969 C2431.3281,620.7969 2431.9375,620.9531 2432.4063,621.2031 C2432.8906,621.4844 2433.0625,621.7031 2433.1563,622.1094 C2433.2188,622.5156 2433.25,622.6406 2433.3906,622.7656 C2433.5313,622.9063 2433.7656,623.0156 2433.9844,623.0156 C2434.25,623.0156 2434.5156,622.875 2434.6875,622.6563 C2434.7969,622.5 2434.8281,622.3125 2434.8281,621.8906 L2434.8281,620.4688 C2434.8281,620.0313 2434.8125,619.9063 2434.7188,619.75 C2434.5625,619.4844 2434.2813,619.3438 2433.9844,619.3438 C2433.6875,619.3438 2433.4844,619.4375 2433.2656,619.75 L2433.0938,619.6719 Z " fill="#FFFFFF"/><text fill="#FFFFFF" font-family="sans-serif" font-size="14" lengthAdjust="spacing" textLength="104" x="2451.25" y="628.8467">RSPGameView</text><line style="stroke:#E7E7E7;stroke-width:0.5;" x1="2269.5" x2="2704.5" y1="640" y2="640"/><line style="stroke:#E7E7E7;stroke-width:0.5;" x1="2269.5" x2="2704.5" y1="648" y2="648"/><ellipse cx="2279.5" cy="661.6484" fill="#595959" rx="3" ry="3" style="stroke:#ABABAB;stroke-width:1.0;"/><text fill="#FFFFFF" font-family="sans-serif" font-size="14" lengthAdjust="spacing" textLength="411" x="2288.5" y="664.9951">static void play(String playerAName,String playerBName)</text><ellipse cx="2279.5" cy="677.9453" fill="#595959" rx="3" ry="3" style="stroke:#ABABAB;stroke-width:1.0;"/><text fill="#FFFFFF" font-family="sans-serif" font-size="14" lengthAdjust="spacing" textLength="227" x="2288.5" y="681.292">void showWinner(Player winner)</text><ellipse cx="2279.5" cy="694.2422" fill="#595959" rx="3" ry="3" style="stroke:#ABABAB;stroke-width:1.0;"/><text fill="#FFFFFF" font-family="sans-serif" font-size="14" lengthAdjust="spacing" textLength="169" x="2288.5" y="697.5889">void showMainWindow()</text></g><!--class RoundView--><g id="elem_RoundView"><rect codeLine="183" fill="#0E0E0E" height="96.8906" id="RoundView" rx="2.5" ry="2.5" style="stroke:#E7E7E7;stroke-width:0.5;" width="353" x="2769.5" y="879"/><ellipse cx="2902.25" cy="895" fill="#3D3D3D" rx="11" ry="11" style="stroke:#E7E7E7;stroke-width:1.0;"/><path d="M2904.5938,890.6719 C2903.6563,890.2344 2903.0625,890.0938 2902.1875,890.0938 C2899.5625,890.0938 2897.5625,892.1719 2897.5625,894.8906 L2897.5625,896.0156 C2897.5625,898.5938 2899.6719,900.4844 2902.5625,900.4844 C2903.7813,900.4844 2904.9375,900.1875 2905.6875,899.6406 C2906.2656,899.2344 2906.5938,898.7813 2906.5938,898.3906 C2906.5938,897.9375 2906.2031,897.5469 2905.7344,897.5469 C2905.5156,897.5469 2905.3125,897.625 2905.125,897.8125 C2904.6719,898.2969 2904.6719,898.2969 2904.4844,898.3906 C2904.0625,898.6563 2903.375,898.7813 2902.6094,898.7813 C2900.5625,898.7813 2899.2656,897.6875 2899.2656,895.9844 L2899.2656,894.8906 C2899.2656,893.1094 2900.5156,891.7969 2902.25,891.7969 C2902.8281,891.7969 2903.4375,891.9531 2903.9063,892.2031 C2904.3906,892.4844 2904.5625,892.7031 2904.6563,893.1094 C2904.7188,893.5156 2904.75,893.6406 2904.8906,893.7656 C2905.0313,893.9063 2905.2656,894.0156 2905.4844,894.0156 C2905.75,894.0156 2906.0156,893.875 2906.1875,893.6563 C2906.2969,893.5 2906.3281,893.3125 2906.3281,892.8906 L2906.3281,891.4688 C2906.3281,891.0313 2906.3125,890.9063 2906.2188,890.75 C2906.0625,890.4844 2905.7813,890.3438 2905.4844,890.3438 C2905.1875,890.3438 2904.9844,890.4375 2904.7656,890.75 L2904.5938,890.6719 Z " fill="#FFFFFF"/><text fill="#FFFFFF" font-family="sans-serif" font-size="14" lengthAdjust="spacing" textLength="79" x="2922.75" y="899.8467">RoundView</text><line style="stroke:#E7E7E7;stroke-width:0.5;" x1="2770.5" x2="3121.5" y1="911" y2="911"/><line style="stroke:#E7E7E7;stroke-width:0.5;" x1="2770.5" x2="3121.5" y1="919" y2="919"/><ellipse cx="2780.5" cy="932.6484" fill="#595959" rx="3" ry="3" style="stroke:#ABABAB;stroke-width:1.0;"/><text fill="#FFFFFF" font-family="sans-serif" font-size="14" lengthAdjust="spacing" textLength="308" x="2789.5" y="935.9951">void executeRound(int round, String name)</text><ellipse cx="2780.5" cy="948.9453" fill="#595959" rx="3" ry="3" style="stroke:#ABABAB;stroke-width:1.0;"/><text fill="#FFFFFF" font-family="sans-serif" font-size="14" lengthAdjust="spacing" textLength="327" x="2789.5" y="952.292">void showWinner(Player winner, Player looser)</text><ellipse cx="2780.5" cy="965.2422" fill="#595959" rx="3" ry="3" style="stroke:#ABABAB;stroke-width:1.0;"/><text fill="#FFFFFF" font-family="sans-serif" font-size="14" lengthAdjust="spacing" textLength="102" x="2789.5" y="968.5889">void showTie()</text></g><!--class StatisticView--><g id="elem_StatisticView"><rect codeLine="188" fill="#0E0E0E" height="64.2969" id="StatisticView" rx="2.5" ry="2.5" style="stroke:#E7E7E7;stroke-width:0.5;" width="391" x="2766.5" y="1140.5"/><ellipse cx="2910.25" cy="1156.5" fill="#3D3D3D" rx="11" ry="11" style="stroke:#E7E7E7;stroke-width:1.0;"/><path d="M2912.5938,1152.1719 C2911.6563,1151.7344 2911.0625,1151.5938 2910.1875,1151.5938 C2907.5625,1151.5938 2905.5625,1153.6719 2905.5625,1156.3906 L2905.5625,1157.5156 C2905.5625,1160.0938 2907.6719,1161.9844 2910.5625,1161.9844 C2911.7813,1161.9844 2912.9375,1161.6875 2913.6875,1161.1406 C2914.2656,1160.7344 2914.5938,1160.2813 2914.5938,1159.8906 C2914.5938,1159.4375 2914.2031,1159.0469 2913.7344,1159.0469 C2913.5156,1159.0469 2913.3125,1159.125 2913.125,1159.3125 C2912.6719,1159.7969 2912.6719,1159.7969 2912.4844,1159.8906 C2912.0625,1160.1563 2911.375,1160.2813 2910.6094,1160.2813 C2908.5625,1160.2813 2907.2656,1159.1875 2907.2656,1157.4844 L2907.2656,1156.3906 C2907.2656,1154.6094 2908.5156,1153.2969 2910.25,1153.2969 C2910.8281,1153.2969 2911.4375,1153.4531 2911.9063,1153.7031 C2912.3906,1153.9844 2912.5625,1154.2031 2912.6563,1154.6094 C2912.7188,1155.0156 2912.75,1155.1406 2912.8906,1155.2656 C2913.0313,1155.4063 2913.2656,1155.5156 2913.4844,1155.5156 C2913.75,1155.5156 2914.0156,1155.375 2914.1875,1155.1563 C2914.2969,1155 2914.3281,1154.8125 2914.3281,1154.3906 L2914.3281,1152.9688 C2914.3281,1152.5313 2914.3125,1152.4063 2914.2188,1152.25 C2914.0625,1151.9844 2913.7813,1151.8438 2913.4844,1151.8438 C2913.1875,1151.8438 2912.9844,1151.9375 2912.7656,1152.25 L2912.5938,1152.1719 Z " fill="#FFFFFF"/><text fill="#FFFFFF" font-family="sans-serif" font-size="14" lengthAdjust="spacing" textLength="95" x="2930.75" y="1161.3467">StatisticView</text><line style="stroke:#E7E7E7;stroke-width:0.5;" x1="2767.5" x2="3156.5" y1="1172.5" y2="1172.5"/><line style="stroke:#E7E7E7;stroke-width:0.5;" x1="2767.5" x2="3156.5" y1="1180.5" y2="1180.5"/><ellipse cx="2777.5" cy="1194.1484" fill="#595959" rx="3" ry="3" style="stroke:#ABABAB;stroke-width:1.0;"/><text fill="#FFFFFF" font-family="sans-serif" font-size="14" lengthAdjust="spacing" textLength="365" x="2786.5" y="1197.4951">showStatistics(ArrayList&lt;StatisticItem&gt; statistics)</text></g><!--class PlayerView--><g id="elem_PlayerView"><rect codeLine="150" fill="#0E0E0E" height="80.5938" id="PlayerView" rx="2.5" ry="2.5" style="stroke:#E7E7E7;stroke-width:0.5;" width="239" x="2492.5" y="1132"/><ellipse cx="2568.75" cy="1148" fill="#3D3D3D" rx="11" ry="11" style="stroke:#E7E7E7;stroke-width:1.0;"/><path d="M2571.0938,1143.6719 C2570.1563,1143.2344 2569.5625,1143.0938 2568.6875,1143.0938 C2566.0625,1143.0938 2564.0625,1145.1719 2564.0625,1147.8906 L2564.0625,1149.0156 C2564.0625,1151.5938 2566.1719,1153.4844 2569.0625,1153.4844 C2570.2813,1153.4844 2571.4375,1153.1875 2572.1875,1152.6406 C2572.7656,1152.2344 2573.0938,1151.7813 2573.0938,1151.3906 C2573.0938,1150.9375 2572.7031,1150.5469 2572.2344,1150.5469 C2572.0156,1150.5469 2571.8125,1150.625 2571.625,1150.8125 C2571.1719,1151.2969 2571.1719,1151.2969 2570.9844,1151.3906 C2570.5625,1151.6563 2569.875,1151.7813 2569.1094,1151.7813 C2567.0625,1151.7813 2565.7656,1150.6875 2565.7656,1148.9844 L2565.7656,1147.8906 C2565.7656,1146.1094 2567.0156,1144.7969 2568.75,1144.7969 C2569.3281,1144.7969 2569.9375,1144.9531 2570.4063,1145.2031 C2570.8906,1145.4844 2571.0625,1145.7031 2571.1563,1146.1094 C2571.2188,1146.5156 2571.25,1146.6406 2571.3906,1146.7656 C2571.5313,1146.9063 2571.7656,1147.0156 2571.9844,1147.0156 C2572.25,1147.0156 2572.5156,1146.875 2572.6875,1146.6563 C2572.7969,1146.5 2572.8281,1146.3125 2572.8281,1145.8906 L2572.8281,1144.4688 C2572.8281,1144.0313 2572.8125,1143.9063 2572.7188,1143.75 C2572.5625,1143.4844 2572.2813,1143.3438 2571.9844,1143.3438 C2571.6875,1143.3438 2571.4844,1143.4375 2571.2656,1143.75 L2571.0938,1143.6719 Z " fill="#FFFFFF"/><text fill="#FFFFFF" font-family="sans-serif" font-size="14" lengthAdjust="spacing" textLength="78" x="2589.25" y="1152.8467">PlayerView</text><line style="stroke:#E7E7E7;stroke-width:0.5;" x1="2493.5" x2="2730.5" y1="1164" y2="1164"/><line style="stroke:#E7E7E7;stroke-width:0.5;" x1="2493.5" x2="2730.5" y1="1172" y2="1172"/><ellipse cx="2503.5" cy="1185.6484" fill="#595959" rx="3" ry="3" style="stroke:#ABABAB;stroke-width:1.0;"/><text fill="#FFFFFF" font-family="sans-serif" font-size="14" lengthAdjust="spacing" textLength="189" x="2512.5" y="1188.9951">abstract String getName()</text><ellipse cx="2503.5" cy="1201.9453" fill="#595959" rx="3" ry="3" style="stroke:#ABABAB;stroke-width:1.0;"/><text fill="#FFFFFF" font-family="sans-serif" font-size="14" lengthAdjust="spacing" textLength="213" x="2512.5" y="1205.292">abstract Shape selectShape()</text></g><!--class HumanPlayerView--><g id="elem_HumanPlayerView"><rect codeLine="154" fill="#0E0E0E" height="80.5938" id="HumanPlayerView" rx="2.5" ry="2.5" style="stroke:#E7E7E7;stroke-width:0.5;" width="174" x="2560" y="887"/><ellipse cx="2581.75" cy="903" fill="#3D3D3D" rx="11" ry="11" style="stroke:#E7E7E7;stroke-width:1.0;"/><path d="M2584.0938,898.6719 C2583.1563,898.2344 2582.5625,898.0938 2581.6875,898.0938 C2579.0625,898.0938 2577.0625,900.1719 2577.0625,902.8906 L2577.0625,904.0156 C2577.0625,906.5938 2579.1719,908.4844 2582.0625,908.4844 C2583.2813,908.4844 2584.4375,908.1875 2585.1875,907.6406 C2585.7656,907.2344 2586.0938,906.7813 2586.0938,906.3906 C2586.0938,905.9375 2585.7031,905.5469 2585.2344,905.5469 C2585.0156,905.5469 2584.8125,905.625 2584.625,905.8125 C2584.1719,906.2969 2584.1719,906.2969 2583.9844,906.3906 C2583.5625,906.6563 2582.875,906.7813 2582.1094,906.7813 C2580.0625,906.7813 2578.7656,905.6875 2578.7656,903.9844 L2578.7656,902.8906 C2578.7656,901.1094 2580.0156,899.7969 2581.75,899.7969 C2582.3281,899.7969 2582.9375,899.9531 2583.4063,900.2031 C2583.8906,900.4844 2584.0625,900.7031 2584.1563,901.1094 C2584.2188,901.5156 2584.25,901.6406 2584.3906,901.7656 C2584.5313,901.9063 2584.7656,902.0156 2584.9844,902.0156 C2585.25,902.0156 2585.5156,901.875 2585.6875,901.6563 C2585.7969,901.5 2585.8281,901.3125 2585.8281,900.8906 L2585.8281,899.4688 C2585.8281,899.0313 2585.8125,898.9063 2585.7188,898.75 C2585.5625,898.4844 2585.2813,898.3438 2584.9844,898.3438 C2584.6875,898.3438 2584.4844,898.4375 2584.2656,898.75 L2584.0938,898.6719 Z " fill="#FFFFFF"/><text fill="#FFFFFF" font-family="sans-serif" font-size="14" lengthAdjust="spacing" textLength="127" x="2597.25" y="907.8467">HumanPlayerView</text><line style="stroke:#E7E7E7;stroke-width:0.5;" x1="2561" x2="2733" y1="919" y2="919"/><line style="stroke:#E7E7E7;stroke-width:0.5;" x1="2561" x2="2733" y1="927" y2="927"/><ellipse cx="2571" cy="940.6484" fill="#595959" rx="3" ry="3" style="stroke:#ABABAB;stroke-width:1.0;"/><text fill="#FFFFFF" font-family="sans-serif" font-size="14" lengthAdjust="spacing" textLength="124" x="2580" y="943.9951">String getName()</text><ellipse cx="2571" cy="956.9453" fill="#595959" rx="3" ry="3" style="stroke:#ABABAB;stroke-width:1.0;"/><text fill="#FFFFFF" font-family="sans-serif" font-size="14" lengthAdjust="spacing" textLength="148" x="2580" y="960.292">Shape selectShape()</text></g><!--class ComputerPlayerView--><g id="elem_ComputerPlayerView"><rect codeLine="158" fill="#0E0E0E" height="96.8906" id="ComputerPlayerView" rx="2.5" ry="2.5" style="stroke:#E7E7E7;stroke-width:0.5;" width="290" x="2235" y="879"/><ellipse cx="2300.25" cy="895" fill="#3D3D3D" rx="11" ry="11" style="stroke:#E7E7E7;stroke-width:1.0;"/><path d="M2302.5938,890.6719 C2301.6563,890.2344 2301.0625,890.0938 2300.1875,890.0938 C2297.5625,890.0938 2295.5625,892.1719 2295.5625,894.8906 L2295.5625,896.0156 C2295.5625,898.5938 2297.6719,900.4844 2300.5625,900.4844 C2301.7813,900.4844 2302.9375,900.1875 2303.6875,899.6406 C2304.2656,899.2344 2304.5938,898.7813 2304.5938,898.3906 C2304.5938,897.9375 2304.2031,897.5469 2303.7344,897.5469 C2303.5156,897.5469 2303.3125,897.625 2303.125,897.8125 C2302.6719,898.2969 2302.6719,898.2969 2302.4844,898.3906 C2302.0625,898.6563 2301.375,898.7813 2300.6094,898.7813 C2298.5625,898.7813 2297.2656,897.6875 2297.2656,895.9844 L2297.2656,894.8906 C2297.2656,893.1094 2298.5156,891.7969 2300.25,891.7969 C2300.8281,891.7969 2301.4375,891.9531 2301.9063,892.2031 C2302.3906,892.4844 2302.5625,892.7031 2302.6563,893.1094 C2302.7188,893.5156 2302.75,893.6406 2302.8906,893.7656 C2303.0313,893.9063 2303.2656,894.0156 2303.4844,894.0156 C2303.75,894.0156 2304.0156,893.875 2304.1875,893.6563 C2304.2969,893.5 2304.3281,893.3125 2304.3281,892.8906 L2304.3281,891.4688 C2304.3281,891.0313 2304.3125,890.9063 2304.2188,890.75 C2304.0625,890.4844 2303.7813,890.3438 2303.4844,890.3438 C2303.1875,890.3438 2302.9844,890.4375 2302.7656,890.75 L2302.5938,890.6719 Z " fill="#FFFFFF"/><text fill="#FFFFFF" font-family="sans-serif" font-size="14" lengthAdjust="spacing" textLength="151" x="2320.75" y="899.8467">ComputerPlayerView</text><line style="stroke:#E7E7E7;stroke-width:0.5;" x1="2236" x2="2524" y1="911" y2="911"/><line style="stroke:#E7E7E7;stroke-width:0.5;" x1="2236" x2="2524" y1="919" y2="919"/><ellipse cx="2246" cy="932.6484" fill="#595959" rx="3" ry="3" style="stroke:#ABABAB;stroke-width:1.0;"/><text fill="#FFFFFF" font-family="sans-serif" font-size="14" lengthAdjust="spacing" textLength="124" x="2255" y="935.9951">String getName()</text><ellipse cx="2246" cy="948.9453" fill="#595959" rx="3" ry="3" style="stroke:#ABABAB;stroke-width:1.0;"/><text fill="#FFFFFF" font-family="sans-serif" font-size="14" lengthAdjust="spacing" textLength="148" x="2255" y="952.292">Shape selectShape()</text><ellipse cx="2246" cy="965.2422" fill="#595959" rx="3" ry="3" style="stroke:#ABABAB;stroke-width:1.0;"/><text fill="#FFFFFF" font-family="sans-serif" font-size="14" lengthAdjust="spacing" textLength="264" x="2255" y="968.5889">static String getRandomString(int n)</text></g><!--class PlayerAdminView--><g id="elem_PlayerAdminView"><rect codeLine="163" fill="#0E0E0E" height="162.0781" id="PlayerAdminView" rx="2.5" ry="2.5" style="stroke:#E7E7E7;stroke-width:0.5;" width="361" x="1838.5" y="846.5"/><ellipse cx="1952.75" cy="862.5" fill="#3D3D3D" rx="11" ry="11" style="stroke:#E7E7E7;stroke-width:1.0;"/><path d="M1955.0938,858.1719 C1954.1563,857.7344 1953.5625,857.5938 1952.6875,857.5938 C1950.0625,857.5938 1948.0625,859.6719 1948.0625,862.3906 L1948.0625,863.5156 C1948.0625,866.0938 1950.1719,867.9844 1953.0625,867.9844 C1954.2813,867.9844 1955.4375,867.6875 1956.1875,867.1406 C1956.7656,866.7344 1957.0938,866.2813 1957.0938,865.8906 C1957.0938,865.4375 1956.7031,865.0469 1956.2344,865.0469 C1956.0156,865.0469 1955.8125,865.125 1955.625,865.3125 C1955.1719,865.7969 1955.1719,865.7969 1954.9844,865.8906 C1954.5625,866.1563 1953.875,866.2813 1953.1094,866.2813 C1951.0625,866.2813 1949.7656,865.1875 1949.7656,863.4844 L1949.7656,862.3906 C1949.7656,860.6094 1951.0156,859.2969 1952.75,859.2969 C1953.3281,859.2969 1953.9375,859.4531 1954.4063,859.7031 C1954.8906,859.9844 1955.0625,860.2031 1955.1563,860.6094 C1955.2188,861.0156 1955.25,861.1406 1955.3906,861.2656 C1955.5313,861.4063 1955.7656,861.5156 1955.9844,861.5156 C1956.25,861.5156 1956.5156,861.375 1956.6875,861.1563 C1956.7969,861 1956.8281,860.8125 1956.8281,860.3906 L1956.8281,858.9688 C1956.8281,858.5313 1956.8125,858.4063 1956.7188,858.25 C1956.5625,857.9844 1956.2813,857.8438 1955.9844,857.8438 C1955.6875,857.8438 1955.4844,857.9375 1955.2656,858.25 L1955.0938,858.1719 Z " fill="#FFFFFF"/><text fill="#FFFFFF" font-family="sans-serif" font-size="14" lengthAdjust="spacing" textLength="124" x="1973.25" y="867.3467">PlayerAdminView</text><line style="stroke:#E7E7E7;stroke-width:0.5;" x1="1839.5" x2="2198.5" y1="878.5" y2="878.5"/><ellipse cx="1849.5" cy="892.1484" fill="none" rx="3" ry="3" style="stroke:#ABABAB;stroke-width:1.0;"/><text fill="#FFFFFF" font-family="sans-serif" font-size="14" lengthAdjust="spacing" textLength="197" x="1858.5" y="895.4951">void duplicateErrorMassage</text><line style="stroke:#E7E7E7;stroke-width:0.5;" x1="1839.5" x2="2198.5" y1="902.7969" y2="902.7969"/><ellipse cx="1849.5" cy="916.4453" fill="#595959" rx="3" ry="3" style="stroke:#ABABAB;stroke-width:1.0;"/><text fill="#FFFFFF" font-family="sans-serif" font-size="14" lengthAdjust="spacing" textLength="141" x="1858.5" y="919.792">int showMainMenu()</text><rect fill="#7F7F7F" height="6" style="stroke:#A6A6A6;stroke-width:1.0;" width="6" x="1846.5" y="929.7422"/><text fill="#FFFFFF" font-family="sans-serif" font-size="14" lengthAdjust="spacing" textLength="218" x="1858.5" y="936.0889">PlayerType selectPlayerType()</text><ellipse cx="1849.5" cy="949.0391" fill="#595959" rx="3" ry="3" style="stroke:#ABABAB;stroke-width:1.0;"/><text fill="#FFFFFF" font-family="sans-serif" font-size="14" lengthAdjust="spacing" textLength="153" x="1858.5" y="952.3857">Player setPlayerInfo()</text><ellipse cx="1849.5" cy="965.3359" fill="#595959" rx="3" ry="3" style="stroke:#ABABAB;stroke-width:1.0;"/><text fill="#FFFFFF" font-family="sans-serif" font-size="14" lengthAdjust="spacing" textLength="206" x="1858.5" y="968.6826">void existingPlayerMessage()</text><ellipse cx="1849.5" cy="981.6328" fill="#595959" rx="3" ry="3" style="stroke:#ABABAB;stroke-width:1.0;"/><text fill="#FFFFFF" font-family="sans-serif" font-size="14" lengthAdjust="spacing" textLength="335" x="1858.5" y="984.9795">void showPlayers(ArraList&lt;Player&gt; playersList)</text><ellipse cx="1849.5" cy="997.9297" fill="#595959" rx="3" ry="3" style="stroke:#ABABAB;stroke-width:1.0;"/><text fill="#FFFFFF" font-family="sans-serif" font-size="14" lengthAdjust="spacing" textLength="319" x="1858.5" y="1001.2764">int selectGamePlayers(int numberOfPlayers)</text></g><!--class PlayerViewFactory--><g id="elem_PlayerViewFactory"><rect codeLine="172" fill="#0E0E0E" height="64.2969" id="PlayerViewFactory" rx="2.5" ry="2.5" style="stroke:#E7E7E7;stroke-width:0.5;" width="431" x="1838.5" y="1140.5"/><ellipse cx="1983.75" cy="1156.5" fill="#3D3D3D" rx="11" ry="11" style="stroke:#E7E7E7;stroke-width:1.0;"/><path d="M1986.0938,1152.1719 C1985.1563,1151.7344 1984.5625,1151.5938 1983.6875,1151.5938 C1981.0625,1151.5938 1979.0625,1153.6719 1979.0625,1156.3906 L1979.0625,1157.5156 C1979.0625,1160.0938 1981.1719,1161.9844 1984.0625,1161.9844 C1985.2813,1161.9844 1986.4375,1161.6875 1987.1875,1161.1406 C1987.7656,1160.7344 1988.0938,1160.2813 1988.0938,1159.8906 C1988.0938,1159.4375 1987.7031,1159.0469 1987.2344,1159.0469 C1987.0156,1159.0469 1986.8125,1159.125 1986.625,1159.3125 C1986.1719,1159.7969 1986.1719,1159.7969 1985.9844,1159.8906 C1985.5625,1160.1563 1984.875,1160.2813 1984.1094,1160.2813 C1982.0625,1160.2813 1980.7656,1159.1875 1980.7656,1157.4844 L1980.7656,1156.3906 C1980.7656,1154.6094 1982.0156,1153.2969 1983.75,1153.2969 C1984.3281,1153.2969 1984.9375,1153.4531 1985.4063,1153.7031 C1985.8906,1153.9844 1986.0625,1154.2031 1986.1563,1154.6094 C1986.2188,1155.0156 1986.25,1155.1406 1986.3906,1155.2656 C1986.5313,1155.4063 1986.7656,1155.5156 1986.9844,1155.5156 C1987.25,1155.5156 1987.5156,1155.375 1987.6875,1155.1563 C1987.7969,1155 1987.8281,1154.8125 1987.8281,1154.3906 L1987.8281,1152.9688 C1987.8281,1152.5313 1987.8125,1152.4063 1987.7188,1152.25 C1987.5625,1151.9844 1987.2813,1151.8438 1986.9844,1151.8438 C1986.6875,1151.8438 1986.4844,1151.9375 1986.2656,1152.25 L1986.0938,1152.1719 Z " fill="#FFFFFF"/><text fill="#FFFFFF" font-family="sans-serif" font-size="14" lengthAdjust="spacing" textLength="132" x="2004.25" y="1161.3467">PlayerViewFactory</text><line style="stroke:#E7E7E7;stroke-width:0.5;" x1="1839.5" x2="2268.5" y1="1172.5" y2="1172.5"/><line style="stroke:#E7E7E7;stroke-width:0.5;" x1="1839.5" x2="2268.5" y1="1180.5" y2="1180.5"/><ellipse cx="1849.5" cy="1194.1484" fill="#595959" rx="3" ry="3" style="stroke:#ABABAB;stroke-width:1.0;"/><text fill="#FFFFFF" font-family="sans-serif" font-size="14" lengthAdjust="spacing" textLength="405" x="1858.5" y="1197.4951">static PlayerView getPlayerView(PlayerType playerType)</text></g><!--link RPSGame to Player--><g id="link_RPSGame_Player"><path codeLine="194" d="M838.12,1221.131 C833.137,1242.949 827.173,1269.06 821.871,1292.27 " fill="none" id="RPSGame-to-Player" style="stroke:#E7E7E7;stroke-width:1.0;"/><polygon fill="#E7E7E7" points="820.751,1297.177,826.6561,1289.2948,821.8653,1292.3027,818.8573,1287.5119,820.751,1297.177" style="stroke:#E7E7E7;stroke-width:1.0;"/></g><!--link RPSGame to Round--><g id="link_RPSGame_Round"><path codeLine="195" d="M771.242,1203.857 C723.131,1223.689 660.703,1251.343 608,1281 C596.409,1287.522 584.482,1294.988 573.027,1302.586 " fill="none" id="RPSGame-to-Round" style="stroke:#E7E7E7;stroke-width:1.0;"/><polygon fill="#E7E7E7" points="568.829,1305.39,578.5349,1303.7182,572.9871,1302.6132,574.0921,1297.0653,568.829,1305.39" style="stroke:#E7E7E7;stroke-width:1.0;"/></g><!--reverse link Statistics to StatisticItem--><g id="link_Statistics_StatisticItem"><path codeLine="196" d="M1467.62,1224.953 C1457.35,1242.336 1445.69,1262.078 1434.66,1280.766 " fill="none" id="Statistics-backto-StatisticItem" style="stroke:#E7E7E7;stroke-width:1.0;"/><polygon fill="#E7E7E7" points="1474.48,1213.337,1467.9839,1216.4675,1468.3751,1223.668,1474.8712,1220.5375,1474.48,1213.337" style="stroke:#E7E7E7;stroke-width:1.0;"/></g><!--reverse link RSPGameController to RPSGame--><g id="link_RSPGameController_RPSGame"><path codeLine="198" d="M1541.08,492.382 C1701.23,641.533 1927.92,903.885 1762,1073 C1753.83,1081.329 1353.61,1079.832 1342,1081 C1193.73,1095.921 1023.22,1131.377 926.568,1153.218 " fill="none" id="RSPGameController-backto-RPSGame" style="stroke:#E7E7E7;stroke-width:1.0;"/><polygon fill="#E7E7E7" points="1531.11,483.164,1532.7984,490.1747,1539.9191,491.3126,1538.2308,484.3019,1531.11,483.164" style="stroke:#E7E7E7;stroke-width:1.0;"/></g><!--reverse link RSPGameController to PlayerController--><g id="link_RSPGameController_PlayerController"><path codeLine="199" d="M1215.31,382.31 C1005.77,391.01 689.658,418.98 614,508 C576.294,552.363 595.184,714.902 614,770 C621.159,790.963 632.391,811.298 645.191,829.989 " fill="none" id="RSPGameController-backto-PlayerController" style="stroke:#E7E7E7;stroke-width:1.0;"/><polygon fill="#E7E7E7" points="1228.33,381.79,1222.1764,378.0306,1216.3394,382.2649,1222.493,386.0243,1228.33,381.79" style="stroke:#E7E7E7;stroke-width:1.0;"/></g><!--reverse link RSPGameController to RoundController--><g id="link_RSPGameController_RoundController"><path codeLine="200" d="M1215.13,389.65 C1043.38,403.97 786.624,436.22 574,508 C546.007,517.45 517.487,529.647 489.959,542.976 " fill="none" id="RSPGameController-backto-RoundController" style="stroke:#E7E7E7;stroke-width:1.0;"/><polygon fill="#E7E7E7" points="1228.12,388.58,1221.8146,385.0812,1216.1597,389.5558,1222.4651,393.0547,1228.12,388.58" style="stroke:#E7E7E7;stroke-width:1.0;"/></g><!--reverse link RSPGameController to StatisticController--><g id="link_RSPGameController_StatisticController"><path codeLine="201" d="M1449.09,495.582 C1489.44,607.833 1548.85,773.089 1581.11,862.831 " fill="none" id="RSPGameController-backto-StatisticController" style="stroke:#E7E7E7;stroke-width:1.0;"/><polygon fill="#E7E7E7" points="1444.63,483.188,1442.8969,490.1877,1448.6916,494.4797,1450.4247,487.48,1444.63,483.188" style="stroke:#E7E7E7;stroke-width:1.0;"/></g><!--reverse link RoundController to Round--><g id="link_RoundController_Round"><path codeLine="202" d="M133.87,781.124 C129.034,788.299 124.701,795.76 121,803.5 C69.3312,911.56 66.7799,966.197 121,1073 C182.801,1194.735 325.13,1276.21 417.803,1318.527 " fill="none" id="RoundController-backto-Round" style="stroke:#E7E7E7;stroke-width:1.0;"/><polygon fill="#E7E7E7" points="141.578,770.456,134.8221,772.9774,134.5511,780.1834,141.307,777.662,141.578,770.456" style="stroke:#E7E7E7;stroke-width:1.0;"/></g><!--link RoundController to PlayerController--><g id="link_RoundController_PlayerController"><path codeLine="203" d="M531.56,770.026 C550.269,780.845 568.638,792.064 586,803.5 C596.977,810.731 608.085,818.63 619.027,826.824 " fill="none" id="RoundController-to-PlayerController" style="stroke:#E7E7E7;stroke-width:1.0;"/><polygon fill="#E7E7E7" points="623.05,829.855,618.2677,821.2451,619.0562,826.8468,613.4545,827.6353,623.05,829.855" style="stroke:#E7E7E7;stroke-width:1.0;"/></g><!--link RoundController to StatisticController--><g id="link_RoundController_StatisticController"><path codeLine="204" d="M558.203,766.285 C563.489,767.612 568.758,768.853 574,770 C763.008,811.341 1262.05,737.714 1444,803.5 C1477.6,815.65 1509.83,837.64 1536.43,859.702 " fill="none" id="RoundController-to-StatisticController" style="stroke:#E7E7E7;stroke-width:1.0;"/><polygon fill="#E7E7E7" points="1540.32,862.956,1535.9958,854.1072,1536.4895,859.7425,1530.8542,860.2361,1540.32,862.956" style="stroke:#E7E7E7;stroke-width:1.0;"/></g><!--link RoundController to StatisticFacade--><g id="link_RoundController_StatisticFacade"><path codeLine="205" d="M320.823,770.022 C326.834,805.951 333.204,844.032 338.156,873.63 " fill="none" id="RoundController-to-StatisticFacade" style="stroke:#E7E7E7;stroke-width:1.0;"/><polygon fill="#E7E7E7" points="339,878.679,341.4588,869.142,338.1743,873.7476,333.5687,870.4631,339,878.679" style="stroke:#E7E7E7;stroke-width:1.0;"/></g><!--link ComputerController to PlayerController--><g id="link_ComputerController_PlayerController"><path codeLine="206" d="M738.289,705.282 C737.857,734.39 737.283,772.943 736.737,809.702 " fill="none" id="ComputerController-to-PlayerController" style="stroke:#E7E7E7;stroke-width:1.0;"/><polygon fill="none" points="743.734,809.974,736.437,829.868,729.735,809.766,743.734,809.974" style="stroke:#E7E7E7;stroke-width:1.0;"/></g><!--link HumanController to PlayerController--><g id="link_HumanController_PlayerController"><path codeLine="207" d="M943.06,705.282 C914.353,735.805 875.877,776.714 839.822,815.049 " fill="none" id="HumanController-to-PlayerController" style="stroke:#E7E7E7;stroke-width:1.0;"/><polygon fill="none" points="844.686,820.095,825.885,829.868,834.488,810.503,844.686,820.095" style="stroke:#E7E7E7;stroke-width:1.0;"/></g><!--link RSPGameController to RSPGameView--><g id="link_RSPGameController_RSPGameView"><path codeLine="208" d="M1585.64,424.32 C1781.92,474.66 2095.9,555.19 2296.7,606.691 " fill="none" id="RSPGameController-to-RSPGameView" style="stroke:#E7E7E7;stroke-width:1.0;"/><polygon fill="#E7E7E7" points="2301.71,607.978,2293.9868,601.8663,2296.8669,606.7351,2291.9982,609.6152,2301.71,607.978" style="stroke:#E7E7E7;stroke-width:1.0;"/></g><!--reverse link RPSApp to RSPGameController--><g id="link_RPSApp_RSPGameController"><path codeLine="210" d="M1407,210.2 C1407,229.53 1407,251 1407,271.92 " fill="none" id="RPSApp-backto-RSPGameController" style="stroke:#E7E7E7;stroke-width:1.0;"/><polygon fill="#E7E7E7" points="1407,197.19,1403,203.19,1407,209.19,1411,203.19,1407,197.19" style="stroke:#E7E7E7;stroke-width:1.0;"/></g><!--link RSPGameView to RoundView--><g id="link_RSPGameView_RoundView"><path codeLine="212" d="M2575.64,705.164 C2626.95,733.142 2692.56,769.566 2750,803.5 C2789.22,826.67 2832.15,853.446 2867.81,876.087 " fill="none" id="RSPGameView-to-RoundView" style="stroke:#E7E7E7;stroke-width:1.0;stroke-dasharray:7.0,7.0;"/><polygon fill="#E7E7E7" points="2872.12,878.827,2866.6749,870.6202,2867.9018,876.1424,2862.3796,877.3693,2872.12,878.827" style="stroke:#E7E7E7;stroke-width:1.0;"/></g><!--link RoundView to PlayerView--><g id="link_RoundView_PlayerView"><path codeLine="213" d="M2886.25,976.08 C2848.22,1005.462 2797.38,1043.121 2750,1073 C2743.61,1077.03 2741.39,1076.973 2735,1081 C2711.87,1095.572 2687.41,1113.09 2666.45,1128.815 " fill="none" id="RoundView-to-PlayerView" style="stroke:#E7E7E7;stroke-width:1.0;stroke-dasharray:7.0,7.0;"/><polygon fill="#E7E7E7" points="2662.31,1131.935,2671.9034,1129.7065,2666.3011,1128.9231,2667.0844,1123.3208,2662.31,1131.935" style="stroke:#E7E7E7;stroke-width:1.0;"/></g><!--link RoundView to StatisticView--><g id="link_RoundView_StatisticView"><path codeLine="214" d="M2949.14,976.219 C2952.22,1022.972 2956.84,1093.181 2959.63,1135.449 " fill="none" id="RoundView-to-StatisticView" style="stroke:#E7E7E7;stroke-width:1.0;stroke-dasharray:7.0,7.0;"/><polygon fill="#E7E7E7" points="2959.96,1140.462,2963.3595,1131.2184,2959.6312,1135.4728,2955.3768,1131.7445,2959.96,1140.462" style="stroke:#E7E7E7;stroke-width:1.0;"/></g><!--link HumanPlayerView to PlayerView--><g id="link_HumanPlayerView_PlayerView"><path codeLine="216" d="M2641.3,968.083 C2635.68,1007.092 2627.02,1067.189 2620.58,1111.961 " fill="none" id="HumanPlayerView-to-PlayerView" style="stroke:#E7E7E7;stroke-width:1.0;"/><polygon fill="none" points="2627.48,1113.136,2617.7,1131.934,2613.62,1111.14,2627.48,1113.136" style="stroke:#E7E7E7;stroke-width:1.0;"/></g><!--link ComputerPlayerView to PlayerView--><g id="link_ComputerPlayerView_PlayerView"><path codeLine="217" d="M2425.56,976.219 C2464.31,1016.808 2519.94,1075.077 2560.34,1117.393 " fill="none" id="ComputerPlayerView-to-PlayerView" style="stroke:#E7E7E7;stroke-width:1.0;"/><polygon fill="none" points="2565.46,1112.62,2574.21,1131.92,2555.34,1122.288,2565.46,1112.62" style="stroke:#E7E7E7;stroke-width:1.0;"/></g><!--link PlayerAdminView to PlayerViewFactory--><g id="link_PlayerAdminView_PlayerViewFactory"><path codeLine="219" d="M2030.56,1008.741 C2036.7,1051.388 2043.95,1101.732 2048.74,1135.014 " fill="none" id="PlayerAdminView-to-PlayerViewFactory" style="stroke:#E7E7E7;stroke-width:1.0;"/><polygon fill="#E7E7E7" points="2049.49,1140.205,2052.1644,1130.7262,2048.7763,1135.2562,2044.2463,1131.8681,2049.49,1140.205" style="stroke:#E7E7E7;stroke-width:1.0;"/></g><!--link PlayerAdminController to PlayerAdminView--><g id="link_PlayerAdminController_PlayerAdminView"><path codeLine="220" d="M1428.24,696.277 C1524.34,722.931 1651.56,761.078 1761,803.5 C1792.2,815.593 1824.86,829.85 1856.06,844.292 " fill="none" id="PlayerAdminController-to-PlayerAdminView" style="stroke:#E7E7E7;stroke-width:1.0;"/><polygon fill="#E7E7E7" points="1860.65,846.423,1854.1635,839.0119,1856.1127,844.3223,1850.8023,846.2715,1860.65,846.423" style="stroke:#E7E7E7;stroke-width:1.0;"/></g><!--link PlayerAdminController to PlayerControllerFactory--><g id="link_PlayerAdminController_PlayerControllerFactory"><path codeLine="221" d="M1237.55,762.273 C1219.14,807.688 1198.81,857.864 1185.52,890.656 " fill="none" id="PlayerAdminController-to-PlayerControllerFactory" style="stroke:#E7E7E7;stroke-width:1.0;"/><polygon fill="#E7E7E7" points="1183.62,895.365,1190.7019,888.5205,1185.4942,890.7295,1183.2851,885.5218,1183.62,895.365" style="stroke:#E7E7E7;stroke-width:1.0;"/></g><!--reverse link RSPGameController to PlayerAdminController--><g id="link_RSPGameController_PlayerAdminController"><path codeLine="222" d="M1353.49,495.218 C1345.05,513.61 1336.38,532.528 1328.08,550.63 " fill="none" id="RSPGameController-backto-PlayerAdminController" style="stroke:#E7E7E7;stroke-width:1.0;"/><polygon fill="#E7E7E7" points="1358.99,483.222,1352.8532,487.0088,1353.9884,494.13,1360.1252,490.3432,1358.99,483.222" style="stroke:#E7E7E7;stroke-width:1.0;"/></g><!--reverse link StatisticController to Statistics--><g id="link_StatisticController_Statistics"><path codeLine="223" d="M1571.07,1003.996 C1552.61,1046.317 1530.33,1097.376 1515.27,1131.91 " fill="none" id="StatisticController-backto-Statistics" style="stroke:#E7E7E7;stroke-width:1.0;"/><polygon fill="#E7E7E7" points="1576.29,992.028,1570.2243,995.9276,1571.491,1003.0266,1577.5567,999.127,1576.29,992.028" style="stroke:#E7E7E7;stroke-width:1.0;"/></g><!--reverse link PlayerController to Player--><g id="link_PlayerController_Player"><path codeLine="224" d="M728.452,1038.508 C727.661,1104.386 732.217,1189.035 754,1261 C757.702,1273.231 763.332,1285.552 769.581,1297.027 " fill="none" id="PlayerController-backto-Player" style="stroke:#E7E7E7;stroke-width:1.0;"/><polygon fill="#E7E7E7" points="728.688,1025.17,724.5825,1031.0983,728.4757,1037.1681,732.5812,1031.2398,728.688,1025.17" style="stroke:#E7E7E7;stroke-width:1.0;"/></g><!--SRC=[pLXBR-Cs4BxhLmZeHQdZ1Thh5W4SRxeRT9COTdRtKFJ0I8n3H285KexNSFFVovV4jo8NMw0-oE9mEFo6Cvo7s3F2BQ2WoHk2IVb4IGDp2byWPJ1hGVaCjdnCokSMj9nM8iO8FMOv_vKrO2nVhpQBjbKKyPjpmaV0XMpv8w0k2UuegMj8vRmPPWFhJ4aipWpbXQ0gXzzXkUkWaABdNkMp1zcG2jO6XqAtgi41KaELM3OTHNYROnkWd42uorb9g4TMGkuFBSmx_iYSsPcQBIoXv_aWw3pt5XkjNZseQxB3rJ6sSzxAlyN8tAKxzuWmg2MAZdIWbg9PUcTb6szlkOYRdZzTXQKrCDn_zCzlffPiOITVYhIkcmvqY7MePDwc2qh1uJEV-crWkUvWSv6pOOMxvS0sPJSXwXYQFDInTv7emM-U-5Nef-HWPErbUksbMflGHs0j1dJdkOk8ZmCK7i-bowDsym_fDNFkK3dSHtDC_LmRkKhs9LjK3SBBY828STMA2osJ2Lh8hfYCn3__wlaDZGNBz7tapDmFXOkgCSjId1vkouzSZqSOTLRmSQ1A1b1LEXQSfPJ96GIqVD9iciQladgRjkpXS5r9nq1L2WcpDO-XUI2aXW3dWFR7ys7NrgW47MGU_skMjBWvjDz1sH5w26q-a_Us31O8u_YqOlLv29Nj43L7qO07rb6-TmBMCNcWIdum_PC-ZQy8xZMFU4tnUL2JBZRkNOCIwheoMCEoa- -ZtAi1ddHDCvomIW8tgyHmnEzB2W636v7FabpSdZ66gFTysZLWD5BC9fr4yW1Ih16jtmQx94tBomxwlyGRGMuL4od8AhLB8BH_cvRxv_ew3tbfoH-TTv7IWTigzxoCgPEU5I1OICiYrKRoQYcth217n-Cx3spV4CQYJbEc4i-LcqijscLCLY81pFgGEsZ1eo6eOE6DZKOVvDYJqeTaNdcZnuFKxUgxOCTRVqC5LzV3gjGAugj_u6SZlh9PkQMvxosnWjwUaPwqrIynL_1IR5-rkDJivEGVyLbh4-gEVuZ7-KrCOPzDmYrsRN6wDmtLRZ5Yk8WIfvVJxnC78utAxD7xLAcQleEy9385kWCXH_pXSRCdij-SfhcwMiSVOTpazHsN4chiAShiqHlrzwv3jTKINU5TeuAJg-7wRlc7GzWihpURkxL3MorMLsjFHns- -rYpHvXzGzsJ7HH_SSBXhx6kIi8oESd5zkdBpUBMeIplRbTVxg_MWUgsvY_SmKxlERuwgo8LbMg8U75o6w_SfnTVhwb2PXJ9sm3-pRvzJV8VRssxZ96s1hWYZHhBFWI_3TXA0mcqyei9l_yt0E4RY7Vf7afMHGhqUFKwz4wQxne_acJz2dMkLQmta37kVqbkWLIt2eM8iQcczYoXg4HlDQVg77VD0wHtZvgMshlgExKhIWcz0HBfH0k8mv_Ogwca3ks-8jhqd4qkILMP4Tg_trTg9mGNxhSEuRxdxgUDsrIwvNRHTPws_bwEKhp2spX_HVPZsMOebuzPp76iCYpyNeDFHDf_CCnhGbWQ-3s2KpvunGxRJR8JAeGmP_4JwWkV-Vn28tP8yZWoiq_-ytpkVeVZ8lowKp9fAObPlonC2V5glpXN9CDdVXKvI0jcZEOZomNJb6qSFbM0P67doTd-ZcpgzTC9hl0CfA7ChPH6NRIjqjdd7kmb0yExTnVcMcIcdnHqgx5r9notp38lUzgm9KEOvGAMp4iibb6iK9V5kn33Ewn_apFuv3Ngftw74oif7KTaMT386Md_0000]--></g></svg>